<svg id="debut" xmlns="http://www.w3.org/2000/svg" width="327.023" height="327.022" viewBox="0 0 327.023 327.022"  fill="#c1b4cf">
  <path id="Контур_806" data-name="Контур 806" d="M317.442,0H9.581a9.581,9.581,0,0,0,0,19.161H30L1.609,61.751c-4.117,6.175.651,14.9,7.972,14.9h47.9v24.593a35.509,35.509,0,0,0-7.934,5.8,38.289,38.289,0,0,0,0,54.191l20.322,20.322a9.577,9.577,0,0,0,13.548,0L124.063,140.9a9.577,9.577,0,0,0,0-13.548l-20.322-20.322a38.219,38.219,0,0,0-27.1-10.863V76.646H250.377V96.172a38.208,38.208,0,0,0-27.1,10.863L202.96,127.357a9.577,9.577,0,0,0,0,13.548L243.6,181.548a9.577,9.577,0,0,0,13.548,0l20.322-20.322a38.289,38.289,0,0,0,0-54.191,35.542,35.542,0,0,0-7.934-5.8V76.646h47.9s0,0,.005,0a.009.009,0,0,0,0,0c.005,0,.012,0,.017,0,7.343-.025,12.073-8.693,7.944-14.89L297.021,19.162h20.421a9.581,9.581,0,1,0,0-19.161ZM27.482,57.484,47.9,26.851,68.325,57.484ZM65.805,19.161h40.843L86.226,49.795Zm38.323,38.323L124.55,26.851l20.421,30.633Zm38.323-38.323h42.12l-21.06,30.633Zm39.6,38.323,20.421-30.633,20.421,30.633Zm58.744-7.69L220.374,19.161h40.843Zm58.745,7.69H258.7l20.421-30.633Zm0,0"/>
  <path id="Контур_807" data-name="Контур 807" d="M317.442,482H9.581a9.581,9.581,0,0,0,0,19.161H317.442a9.581,9.581,0,1,0,0-19.161Zm0,0" transform="translate(0 -174.139)"/>
  <path id="Контур_808" data-name="Контур 808" d="M183.429,248.027,146.752,284.7a28.685,28.685,0,0,1-8.952,6.05l12.233,22.026L199.1,263.7Zm0,0" transform="translate(-49.785 -89.608)"/>
  <path id="Контур_809" data-name="Контур 809" d="M226.764,378.308,274.7,290.751a28.7,28.7,0,0,1-8.949-6.048l-36.676-36.676L98.788,378.308Zm0,0" transform="translate(-35.691 -89.608)"/>
  <path id="Контур_810" data-name="Контур 810" d="M384.4,433.119l-32.742-33.38-18.188,33.38Zm0,0" transform="translate(-120.478 -144.419)">
</svg>