<svg id="mystery" xmlns="http://www.w3.org/2000/svg" width="246.615" height="280.594" viewBox="0 0 246.615 280.594">
  <path id="Контур_790" data-name="Контур 790" d="M320.422,130.163l-3.235,6.471q3.07-.192,6.157-.193h26.074a8.226,8.226,0,0,0,8.22-8.22V120H336.855A18.272,18.272,0,0,0,320.422,130.163Z" transform="translate(-160.347 -54.236)" fill="#c1b4cf"/>
  <path id="Контур_791" data-name="Контур 791" d="M141.784,120H121v8.221a8.226,8.226,0,0,0,8.221,8.22h26.074q3.083,0,6.157.193l-3.235-6.471A18.272,18.272,0,0,0,141.784,120Z" transform="translate(-71.677 -54.236)" fill="#c1b4cf"/>
  <path id="Контур_792" data-name="Контур 792" d="M277.615,73.985V0H261.174a16.462,16.462,0,0,1-16.441,16.441H207.508a67.287,67.287,0,0,0-53.2,25.793,67.287,67.287,0,0,0-53.2-25.793H63.882A16.463,16.463,0,0,1,47.441,0H31V73.985a57.465,57.465,0,0,0,32.882,51.772v71.536H47.441v83.3H96.764v-83.3H80.323V130.7a56.809,56.809,0,0,0,8.221.831h26.074A48.24,48.24,0,0,1,148.5,145.561l5.812,5.812,5.812-5.812A48.24,48.24,0,0,1,194,131.528h26.074a56.877,56.877,0,0,0,24.662-5.772v23.727a24.662,24.662,0,1,0,16.441,0V114.129A57.3,57.3,0,0,0,277.615,73.985ZM133.291,100.8a81.557,81.557,0,0,0-18.673-2.152H88.544A24.689,24.689,0,0,1,63.882,73.985V49.323h37.225a34.635,34.635,0,0,1,31.14,19.251l18.127,36.238Zm86.781-2.152H194a81.527,81.527,0,0,0-18.673,2.152l-17.083,4.014,18.127-36.238a34.635,34.635,0,0,1,31.14-19.251h37.225V73.985A24.689,24.689,0,0,1,220.072,98.646Z" transform="translate(-31)" fill="#c1b4cf"/>
</svg>
