<svg xmlns="http://www.w3.org/2000/svg" fill="#c1b4cf" width="324.3" height="353.326" viewBox="0 0 324.3 353.326">
	<path id="kinograd" d="M71.529,149.38a34.313,34.313,0,0,0-5.247-14.717l249.28-86.312L302.478,7.706A10.792,10.792,0,0,0,288.722.582L17.56,94.471a11.375,11.375,0,0,0-6.87,14.264l6.416,19.926a34.425,34.425,0,0,0,6.256,54.177V342.051a11.08,11.08,0,0,0,10.873,11.274H320.112a11.08,11.08,0,0,0,10.871-11.274V149.38ZM230.413,34.033l33-11.427L255.475,55.9l-33,11.427Zm-81.54,28.232,33.006-11.427-7.942,33.288-33,11.428ZM39.223,170.58c-9.139,0-16.576-7.712-16.576-17.192S30.084,136.2,39.223,136.2,55.8,143.908,55.8,153.388,48.365,170.58,39.223,170.58ZM67.337,90.5,100.342,79.07,92.4,112.359,59.395,123.788Zm32.422,96.951h-34.8l17.7-28.967h34.8Zm68.866-28.967h34.8l-17.7,28.967h-34.8Zm-8.541,139.99v-76.41l58.679,38.2Zm111.6-111.023H236.888l17.7-28.967h34.795Z" transform="translate(-6.683 0.001)"/>
</svg>
