<svg xmlns="http://www.w3.org/2000/svg" width="359.892" height="290.009" viewBox="0 0 359.892 290.009">
  <g id="mrmsmtuci" transform="translate(0 -49.709)">
    <path id="Контур_803" data-name="Контур 803" d="M295.051,156.843a10.545,10.545,0,0,0-12.294,8.438L281.322,173l-32.4,23.224-17.311-37v-9.274a10.544,10.544,0,0,0-21.087,0v9.274l-17.312,37-32.385-23.214-1.5-8.061A10.544,10.544,0,1,0,138.6,168.8l2.275,12.231,11.356,61.058a10.536,10.536,0,0,0,5.38,19.6H284.528a10.536,10.536,0,0,0,5.379-19.6l11.245-60.46c.019-.089.045-.174.062-.264l2.275-12.231a10.543,10.543,0,0,0-8.438-12.295Z" transform="translate(-41.121 -26.647)" fill="#c1b4cf"/>
    <g id="Сгруппировать_176" data-name="Сгруппировать 176" transform="translate(0 49.709)">
      <path id="Контур_804" data-name="Контур 804" d="M.065,145.8a5.145,5.145,0,0,1,4-4.68,74.158,74.158,0,0,1,14.916-1.442c.468,0,.945,0,1.425.013,12.349.234,22.659,3.591,29.817,9.707.5.425.981.87,1.456,1.329a128.881,128.881,0,0,1,10.355-30.878c-10.2-5.527-17.459-12.754-21.039-20.985-3.754-8.634-3.949-19.475-.561-31.352a76.053,76.053,0,0,1,6.147-15.209,5.108,5.108,0,0,1,5.647-2.454,75.976,75.976,0,0,1,15.313,5.874c11,5.62,18.8,13.155,22.552,21.788s3.949,19.476.561,31.352a76.306,76.306,0,0,1-6.119,15.16c-.065.131-.119.264-.19.393a106.459,106.459,0,0,0,73.991,155.814,10.973,10.973,0,0,1,8.781,12.794c0,.02-.01.039-.014.06a78.856,78.856,0,0,1-2.778,13.866c-3.508,11.842-9.485,20.889-17.283,26.165-6.385,4.319-14.846,6.6-24.468,6.6-2.026,0-4.13-.1-6.25-.3a74.811,74.811,0,0,1-16.077-3.252,5.144,5.144,0,0,1-3.45-5.1,74.922,74.922,0,0,1,2.967-16.136c3.508-11.842,9.485-20.89,17.283-26.165l.041-.026a128.252,128.252,0,0,1-26.113-18.518,79.424,79.424,0,0,1-7.435,4.344c-8.179,4.191-16.085,6.316-23.5,6.316a35.109,35.109,0,0,1-6.276-.553h-.006q-.546-.1-1.083-.217c-9.2-2.005-18.106-8.189-25.757-17.884a75.909,75.909,0,0,1-8.74-13.88,5.144,5.144,0,0,1,1.309-6.014,74.881,74.881,0,0,1,13.724-8.987c8.18-4.191,16.085-6.316,23.5-6.316,1.168,0,2.321.061,3.456.17-.065-.148-.135-.292-.2-.44a129.652,129.652,0,0,1-8.408-27.09c-1.51.093-3.139.153-4.869.153-.47,0-.945,0-1.43-.013C32.91,199.577,22.6,196.22,15.442,190.1S3.358,174.327,1.2,162.167A76.082,76.082,0,0,1,.065,145.8Z" transform="translate(0 -49.709)" fill="#c1b4cf"/>
      <path id="Контур_805" data-name="Контур 805" d="M441.226,145.8a5.145,5.145,0,0,0-4-4.68,74.161,74.161,0,0,0-14.917-1.442c-.468,0-.944,0-1.425.013-12.349.234-22.659,3.591-29.817,9.707-.5.425-.981.87-1.456,1.329a128.881,128.881,0,0,0-10.355-30.878c10.2-5.527,17.459-12.754,21.039-20.985,3.754-8.634,3.949-19.475.561-31.352a76.05,76.05,0,0,0-6.147-15.209,5.107,5.107,0,0,0-5.646-2.454,75.976,75.976,0,0,0-15.313,5.874c-11,5.62-18.8,13.155-22.552,21.788s-3.949,19.476-.561,31.352a76.234,76.234,0,0,0,6.12,15.16c.065.131.119.264.19.393a106.459,106.459,0,0,1-73.991,155.814,10.973,10.973,0,0,0-8.781,12.794c0,.02.01.039.014.06a78.853,78.853,0,0,0,2.778,13.866c3.508,11.842,9.485,20.889,17.283,26.165,6.385,4.319,14.846,6.6,24.468,6.6,2.026,0,4.13-.1,6.25-.3a74.811,74.811,0,0,0,16.077-3.252,5.144,5.144,0,0,0,3.45-5.1,74.948,74.948,0,0,0-2.966-16.136c-3.508-11.842-9.485-20.89-17.283-26.165l-.041-.026a128.251,128.251,0,0,0,26.113-18.518,79.421,79.421,0,0,0,7.435,4.344c8.179,4.191,16.085,6.316,23.5,6.316a35.109,35.109,0,0,0,6.276-.553h.006q.546-.1,1.083-.217c9.2-2.005,18.106-8.189,25.757-17.884a75.906,75.906,0,0,0,8.74-13.88,5.144,5.144,0,0,0-1.309-6.014,74.88,74.88,0,0,0-13.724-8.987c-8.18-4.191-16.085-6.316-23.5-6.316-1.168,0-2.321.061-3.456.17.065-.148.135-.292.2-.44a129.651,129.651,0,0,0,8.408-27.09c1.51.093,3.139.153,4.869.153.47,0,.945,0,1.43-.013,12.348-.234,22.659-3.591,29.816-9.707s12.083-15.778,14.24-27.938a76.108,76.108,0,0,0,1.136-16.364Z" transform="translate(-81.399 -49.709)" fill="#c1b4cf"/>
    </g>
  </g>
</svg>
