<svg xmlns="http://www.w3.org/2000/svg" width="42.608" height="28.711" viewBox="0 0 42.608 28.711">
  <g id="letter" transform="translate(0 -83.5)">
    <path id="Контур_822" data-name="Контур 822" d="M39.82,83.5H7.781a2.791,2.791,0,0,0-2.788,2.788v5.95H.624a.624.624,0,0,0,0,1.248h7.49a.624.624,0,0,0,0-1.248H6.241v-5.95a1.528,1.528,0,0,1,.1-.553l12.12,12.12-12.12,12.12a1.528,1.528,0,0,1-.1-.553v-4.078a.624.624,0,0,0-1.248,0v4.078a2.791,2.791,0,0,0,2.788,2.788H39.82a2.791,2.791,0,0,0,2.788-2.788V86.288A2.791,2.791,0,0,0,39.82,83.5ZM29.135,97.855l12.12-12.12a1.528,1.528,0,0,1,.1.553v23.135a1.528,1.528,0,0,1-.1.553ZM39.82,84.748a1.529,1.529,0,0,1,.553.1L26.449,98.777a3.749,3.749,0,0,1-5.3,0L7.228,84.853a1.529,1.529,0,0,1,.553-.1ZM7.781,110.962a1.528,1.528,0,0,1-.553-.1l12.12-12.12.922.922a5,5,0,0,0,7.061,0l.922-.922,12.12,12.12a1.528,1.528,0,0,1-.553.1Z" fill="#280050"/>
    <path id="Контур_823" data-name="Контур 823" d="M5.617,218.5a.624.624,0,0,0-.624.624V221H.624a.624.624,0,1,0,0,1.248H10.61a.624.624,0,1,0,0-1.248H6.241v-1.872A.624.624,0,0,0,5.617,218.5Z" transform="translate(0 -123.765)" fill="#280050"/>
    <path id="Контур_824" data-name="Контур 824" d="M8.114,282.245a.624.624,0,0,0,0-1.248H6.241v-1.872a.624.624,0,1,0-1.248,0V281H.624a.624.624,0,0,0,0,1.248Z" transform="translate(0 -178.772)" fill="#280050"/>
  </g>
</svg>
