<svg xmlns="http://www.w3.org/2000/svg" width="490" height="1255.999" viewBox="0 0 490 1255.999">
  <g id="decorate_Phone" data-name="decorate Phone" transform="translate(108 -5486)">
    <g id="human">
      <ellipse id="Эллипс_26" data-name="Эллипс 26" cx="233" cy="242" rx="233" ry="242" transform="translate(-84 5525)" fill="#e5e0eb"/>
      <ellipse id="Эллипс_27" data-name="Эллипс 27" cx="218" cy="227" rx="218" ry="227" transform="translate(-108 5496)" opacity="0.13"/>
      <g id="human_phone" data-name="human phone" transform="translate(126 5486)">
        <path id="Контур_357" data-name="Контур 357" d="M665.732,765.519c0,4.492-4.28,14.7-2.794,19.174s1.219,10.84,3.7,13.819,3.424,10.155-1.986,11.922c0,0-15.4-3.479-22.351-29.8s.877-1.726-4.109-14.141-1.486-15.894-1.486-15.894,9.655-11.2,15.257-11.237S665.732,765.519,665.732,765.519Z" transform="translate(-635.517 -294.449)"/>
        <path id="Контур_358" data-name="Контур 358" d="M15.681,227.582,28.432,216.7l-.76-2.541-12.189-1.78L0,224.569Z" transform="translate(203.752 -66.945)"/>
        <path id="Контур_359" data-name="Контур 359" d="M406.458,847.45c-.774,4.3-3.082,5.916-3.91,13.011a7.2,7.2,0,0,0,5.862,7.909c12.751,2.294,23.967,6.526,45.059,5.773,5.574-.2,21.091-3.581,21.091-3.581s.6-6.766-3.184-7.957-14.127-1.6-14.723-1.794-12.935-6.362-15.517-8.354.39-3.931-4.389-4.109S406.458,847.45,406.458,847.45Z" transform="translate(-281.922 -328.522)"/>
        <path id="Контур_360" data-name="Контур 360" d="M605.221,692.5s-28.706,15.887-31.76,18.633-52.55,28.008-52.55,28.008-5.478,1.835-8.553.609l-13.12-29.281s11.3-10.08,13.435-11,63.233-47.935,83.085-50.092l8.128-1.671s5,1.116,5.3,4.472S605.221,692.5,605.221,692.5Z" transform="translate(-482.774 -265.56)" fill="#444"/>
        <path id="Контур_361" data-name="Контур 361" d="M605.754,686.529c-5.629,2.7-11.073,5.786-16.49,8.9-7.416,4.225-14.757,8.58-22.077,12.97q-11.641,6.992-23.221,14.134-9.827,5.985-19.612,12.148L512.6,742.024l-.685.411c-.205.13-.4-.192-.192-.322l10.409-6.505q9.457-5.9,18.941-11.751,11.491-7.087,23.043-14.065c7.423-4.472,14.86-8.9,22.372-13.223,5.759-3.314,11.539-6.615,17.489-9.587.52-.253,1.034-.514,1.561-.76.212-.1.4.219.185.322Z" transform="translate(-487.887 -277.693)"/>
        <path id="Контур_362" data-name="Контур 362" d="M514.056,651.182l15.613-3.472s5,1.116,5.3,4.472S531,692.5,531,692.5s-28.706,15.887-31.76,18.633l12.874-25.1Z" transform="translate(-408.557 -265.56)"/>
        <path id="Контур_363" data-name="Контур 363" d="M520.029,485.09c2.547,6.786,6.334,118.3,4.211,123.815,0,0-7.711,122.528-6.848,124.63s-39.163,1.191-37.978-1.479-4.335-37.225-5.04-43.716c-1.144-10.477-13.367-148.426-14.853-152.583s-14.819-19.681-20.16-45.791l36.225-3.568Z" transform="translate(-357.432 -214.299)" fill="#444"/>
        <path id="Контур_364" data-name="Контур 364" d="M444.337,489.945l36.2-3.54,44.442-1.294c.685,1.828.685,6.122,1.424,11.765.219,1.657-20.174-.5-41.614.993-.452,0-11.135,1.185-11.559,1.226l-22.262.37S446.385,502.154,444.337,489.945Z" transform="translate(-362.381 -214.305)"/>
        <path id="Контур_365" data-name="Контур 365" d="M491.275,496.718c-.281,5.745-2.739,11-5.293,16.044-2.643,5.266-4.793,10.758-7.423,16.024-.11.212-.431,0-.329-.192,2.554-5.074,4.595-10.388,7.149-15.462s5.232-10.525,5.519-16.435a.189.189,0,0,1,.377,0Z" transform="translate(-350.448 -217.901)"/>
        <path id="Контур_366" data-name="Контур 366" d="M493.958,494.027c.4,4.978-1.808,9.587-3.787,14.024q-3.349,7.464-6.69,14.942c-.1.226-.424.034-.322-.185l6.41-14.332c2.054-4.554,4.431-9.313,4.013-14.449A.189.189,0,0,1,493.958,494.027Z" transform="translate(-356.555 -217.059)"/>
        <path id="Контур_367" data-name="Контур 367" d="M427.841,233.411c3.027-.336,7.731-.685,10.758,2.349s26.885,41,30.247,64.527c1.192,8.341-3.006,36.184-3.006,36.184s12.292,54.324,12.08,57.583c-.336,5.04,1.007,15.12-9.409,18.147s-25.878,0-25.878,0L418.1,267.356Z" transform="translate(-295.929 -134.897)" fill="#c1b4cf"/>
        <path id="Контур_368" data-name="Контур 368" d="M364.2,346.1s12.1.685,17.8-2.356,12.073-9.4,12.073-9.4,2.123-1.027,2.965-1.465c4.657-2.438,2.684-5.232,2.684-5.232s6.492-1.274,5.91-4.465a3.2,3.2,0,0,0-1.712-2.1s2.5-2.363,2.63-3.287.13-2.363-2.232-2.363a19.516,19.516,0,0,0-5.519,1.185l-8.4,1.705s1.315-1.315-1.315-2.1-13.524-1.445-15.23-1.965-14.319,9.19-14.319,9.19Z" transform="translate(-184.503 -160.441)" fill="#ffc48e"/>
        <path id="Контур_369" data-name="Контур 369" d="M382.8,324.23a3.2,3.2,0,0,1,1.712,2.1c.582,3.191-5.91,4.465-5.91,4.465s1.972,2.794-2.684,5.232c-.842.438-2.965,1.465-2.965,1.465s-6.362,6.382-12.073,9.4l5.56-7.916s5.6-2.849,3.842-5.814h0l6.478-4.4-13.613.11Z" transform="translate(-163.369 -163.593)"/>
        <path id="Контур_370" data-name="Контур 370" d="M454.5,182.616l4.677-11.258,4.937-1.37s1.513-1.575,8.9-5.28c.685-.342,2.547-3.479,4.725-7.724l4.109-1.3a3.027,3.027,0,0,0,2.123-2.917c-.034-3.5,0-10.039.431-11.641.63-2.2,7.861-18.551,4.711-25.782S472.423,90.5,451.647,97.1s-22.009,30.185-18.551,41.5L427.125,155.9Z" transform="translate(-314.1 -91.539)" fill="#ffc48e"/>
        <path id="Контур_371" data-name="Контур 371" d="M443.839,160.2a6.165,6.165,0,0,0-.329,1.459,6.489,6.489,0,0,1-.342,1.527c-.075.226-.438.13-.363-.1a6.068,6.068,0,0,0,.329-1.459,6.355,6.355,0,0,1,.342-1.52C443.552,159.866,443.915,159.969,443.839,160.2Z" transform="translate(-278.771 -111.814)"/>
        <path id="Контур_372" data-name="Контур 372" d="M127.24,93.97,154.59,120.7l4.65-11.258Z" transform="translate(-14.187 -29.62)"/>
        <path id="Контур_373" data-name="Контур 373" d="M482.594,106.05c7.163,6.7-1.815,17.017-8.1,16.387s-19.674-9.388-24.07-10.642l-2.41,3.335a4.985,4.985,0,0,1-4.033,2.054h-3.554s-3.6,10.642-4.636,12.422c-.685,1.082-5.958-2.479-8.9,0-5.663,4.711-10.272,16.079-10.272,16.079l-2.739-8.512s-4.109-14.107-2.849-20.393,5.67-21.358,13.805-25.131S463.119,87.835,482.594,106.05Z" transform="translate(-298.242 -89.648)"/>
        <path id="Контур_374" data-name="Контур 374" d="M501.194,304.082s.157-.993.4-2.63c.931-6.266-1.856-20.311-2.657-25.638-1.007-6.718-21.913-61.13-21.913-61.13s3.7-10.08,3.7-12.436-35.609-30.918-35.609-30.918l-5.376,8.4,2.287,9.409Z" transform="translate(-334.606 -115.396)" fill="#ffece0"/>
        <path id="Контур_375" data-name="Контур 375" d="M426.812,355.5l10.128-1.13s-2.554-27.919-4.793-28.665-12.086,4.287-12.086,4.287Z" transform="translate(-256.293 -164.034)" fill="#ffece0"/>
        <path id="Контур_376" data-name="Контур 376" d="M75.26,242.34l6.752,25.508,10.128-1.123-5.834-6.7Z" transform="translate(88.507 -76.389)"/>
        <path id="Контур_377" data-name="Контур 377" d="M456.648,183.47s15.75,8.135,27.912,21.447c3.527,3.869-.144,5.9,5.177,13.778,12.97,19.215,30.048,63.164,30.048,63.164s6.266,21.146,7.444,50.509S531.762,393,531.762,393s-13.538,4.355-24.892,4.355-67.246-.39-70.471-.39c-5.821,0-9.464-4.259-9.792-7.437-.6-5.9,5.252-36.944,8.779-55.351s-6.423-99.67-9.553-108.3,8.217-20.359,22.317-27.391c0,0,4.636-2.431,5.341-4.211Z" transform="translate(-354.71 -119.223)" fill="#306"/>
        <path id="Контур_378" data-name="Контур 378" d="M431.16,387.052c2.287,2.575,12.86,3.424,15.147,2.862s30.575-2.575,42-3.718,31.151-8.861,36.013-9.717,6.286-4,6.286-4l-.281,12a154.379,154.379,0,0,1-27,6.067c-16,2.2-53.516,6.067-53.516,6.067l-11.039-2.739Z" transform="translate(-357.565 -178.802)"/>
        <path id="Контур_379" data-name="Контур 379" d="M505.014,324.38,501.7,337.466l16.12-1.438s-7.012-.384-8.669-2.2S505.014,324.38,505.014,324.38Z" transform="translate(-393.078 -163.64)"/>
        <path id="Контур_380" data-name="Контур 380" d="M452.47,219.314c8.6-.452,24.289,10,27.72,33.438s-4,53.995-4,53.995a18.839,18.839,0,0,0,14,.288c7.717-2.856,26.022-8.573,30.575-10.272s8.943-4.924,11.758-3.609,8.635,33.452,8.635,33.452a48.788,48.788,0,0,1-6.957,1.6c-4.862.856-24.577,8.573-36.013,9.717s-39.717,3.143-42,3.718-12.86-.288-15.147-2.862-10.861-52.5-10.861-61.158C430.18,230.736,441.609,219.882,452.47,219.314Z" transform="translate(-367.445 -130.517)" fill="#306"/>
        <path id="Контур_381" data-name="Контур 381" d="M504.97,145.028c-1.609-4.793-1.842-7.348-5.971-7.807s-7.122,7.574-5.718,12.169,3.9,8.5,8.039,7.581Z" transform="translate(-374.223 -104.638)" fill="#ffc48e"/>
        <path id="Контур_382" data-name="Контур 382" d="M481.979,498.058c1.678,15.935,5.382,31.541,8.615,47.209,1.609,7.765,3.1,15.558,4.15,23.42S496.4,584.56,496.8,592.53c1.657,32.726,1.78,65.575.794,98.328q-.822,27.549-2.814,55.036c0,.24-.4.247-.377,0q3.554-49.078,3.39-98.335-.082-24.591-1.1-49.174c-.342-8.135-.787-16.27-1.678-24.365s-2.26-16.044-3.835-23.967c-3.424-17.277-7.731-34.424-9.587-51.975,0-.24.349-.233.377,0Z" transform="translate(-359.702 -218.337)"/>
        <path id="Контур_383" data-name="Контур 383" d="M485.725,842.978c-8.9-.39-17.763-.562-26.652-.849-2.013-.062-4.027-.13-6.04-.219-.24,0-.24-.383,0-.37,8.9.383,17.77.555,26.652.842,2.013.068,4.026.13,6.04.219C485.965,842.6,485.971,842.992,485.725,842.978Z" transform="translate(-327.717 -326.658)"/>
        <path id="Контур_384" data-name="Контур 384" d="M645.086,772.365l-8.9-21.666c-.089-.219.274-.315.363-.1l8.9,21.66C645.538,772.488,645.175,772.584,645.086,772.365Z" transform="translate(-612.803 -297.954)"/>
        <path id="Контур_385" data-name="Контур 385" d="M453.474,147.1l-.952,7.923a12.065,12.065,0,0,0,.575,5.382l3.465,9.957a11.977,11.977,0,0,0,5.328,6.444l1.171-.116,5.43-4.588,10.21,2.321-1.774,2.945-9-.822-3.424,3.794,1.534,5.184-5.047,1.465-10.744-10.443a11.984,11.984,0,0,1-3.616-8.4l-.466-23.016Z" transform="translate(-315.926 -107.137)"/>
        <path id="Контур_386" data-name="Контур 386" d="M521.64,292.038a260.414,260.414,0,0,1-5.828,34.979.192.192,0,0,1-.363-.1,259.99,259.99,0,0,0,5.841-34.876c0-.233.4-.24.377,0Z" transform="translate(-406.342 -153.39)"/>
        <path id="Контур_387" data-name="Контур 387" d="M503.482,329c-7.4,1.794-14.88,3.307-22.344,4.793-8.827,1.76-17.729,3.5-26.631,4.629-1.7.219-3.424.411-5.108.5a11.434,11.434,0,0,1-3.02-.1c-.233-.055-.137-.418.1-.363a9.841,9.841,0,0,0,2.616.1c1.431-.062,2.855-.205,4.273-.37,4.061-.479,8.108-1.144,12.141-1.842,9.21-1.589,18.386-3.424,27.528-5.382,3.465-.746,6.93-1.493,10.368-2.328.24-.055.336.308.1.363Z" transform="translate(-340.927 -164.98)"/>
        <path id="Контур_388" data-name="Контур 388" d="M544.229,233.33c-5.109-3.78-10.272-7.533-15.579-11-4.191-2.739-8.553-5.608-13.285-7.368-1.472-.548-3.287-1.178-4.862-.719a.192.192,0,0,1-.1-.363,7.067,7.067,0,0,1,3.944.336,33.415,33.415,0,0,1,5.7,2.493,141.932,141.932,0,0,1,15.175,9.642q4.643,3.266,9.2,6.656c.192.144,0,.473-.192.329Z" transform="translate(-425.644 -128.763)"/>
        <path id="Контур_389" data-name="Контур 389" d="M512.346,265.546c-2.3,6-4.793,11.929-7.067,17.928-.089.219-.452.123-.363-.1,2.294-6,4.794-11.929,7.067-17.928C512.065,265.224,512.428,265.32,512.346,265.546Z" transform="translate(-389.809 -145.023)"/>
        <path id="Контур_390" data-name="Контур 390" d="M453.478,366.543a149.491,149.491,0,0,0-3.1-28.412c-.055-.24.308-.335.356-.1a149.468,149.468,0,0,1,3.123,28.514.188.188,0,0,1-.377,0Z" transform="translate(-293.963 -167.9)"/>
        <path id="Контур_391" data-name="Контур 391" d="M443.477,372.872a2.6,2.6,0,0,1-3.123,1.507,2.321,2.321,0,0,1-1.411-3.068,2.383,2.383,0,0,1,1.431-1.513.192.192,0,0,1,.233.13l.315,1.856c.041.24-.322.342-.363.1l-.315-1.856.226.13a2.212,2.212,0,0,0-1.212,2.671,1.945,1.945,0,0,0,2.575,1.137,1.993,1.993,0,0,0,1.281-1.2C443.189,372.543,443.552,372.639,443.477,372.872Z" transform="translate(-275.656 -177.954)"/>
        <path id="Контур_392" data-name="Контур 392" d="M522.558,217.894a34.116,34.116,0,0,0-4.109-3.876c-2.006-1.691-4.109-3.294-6.2-4.855a136.952,136.952,0,0,0-12.086-8.169,50.064,50.064,0,0,0-7.533-3.287c-.226-.089-.13-.452.1-.363a52.732,52.732,0,0,1,6.909,2.9c1.869,1.048,3.67,2.219,5.478,3.424,4.424,2.951,8.765,6.081,12.874,9.457a37.588,37.588,0,0,1,4.862,4.526c.151.185-.11.452-.267.267Z" transform="translate(-391.859 -123.591)"/>
        <path id="Контур_393" data-name="Контур 393" d="M442.437,419.512c1.445,1.883-.205,5.122-2.643,4.759a3.273,3.273,0,0,1-2.6-2.513,2.657,2.657,0,0,1,1.418-2.89,3.075,3.075,0,0,1,3.527.308c.178.164-.089.425-.267.26-1.479-1.37-4.417-.288-4.362,1.828a2.89,2.89,0,0,0,1.952,2.541,2.294,2.294,0,0,0,2.664-1.027,2.739,2.739,0,0,0,0-3.075c-.151-.192.178-.383.322-.192Z" transform="translate(-274.027 -193.293)"/>
        <path id="Контур_394" data-name="Контур 394" d="M513.6,418.827H487.388a.192.192,0,0,1,0-.377H513.6a.192.192,0,0,1,0,.377Z" transform="translate(-379.109 -193.293)"/>
        <path id="Контур_395" data-name="Контур 395" d="M513.5,423.488c-.507,3.273-.589,6.642-.774,9.943q-.322,5.691-.548,11.395l-.1,2.465a.178.178,0,0,1-.1.164,29.937,29.937,0,0,1-5.9,2.054,26.447,26.447,0,0,1-12.374.4,17.873,17.873,0,0,1-7.163-3.479c-.192-.157.075-.418.267-.267,6.848,5.478,16.469,4.554,24.091,1.37.274-.11.541-.253.815-.356V447.1a16.2,16.2,0,0,1,.116-2.7q.226-5.382.52-10.772c.192-3.424.274-6.848.794-10.231,0-.233.4-.137.363.1Z" transform="translate(-378.346 -194.81)"/>
        <path id="Контур_396" data-name="Контур 396" d="M528.19,445.2c.062-4.65.062-9.292.075-13.942V420.988a.192.192,0,0,1,.377,0c0,7.731,0,15.462-.068,23.2V445.2a.192.192,0,0,1-.377,0Z" transform="translate(-422.04 -194.044)"/>
        <path id="Контур_397" data-name="Контур 397" d="M512.907,429.147H491.028a.192.192,0,0,1,0-.377h21.845a.192.192,0,0,1,0,.377Z" transform="translate(-380.873 -196.546)"/>
        <path id="Контур_398" data-name="Контур 398" d="M452.414,693.447l-5.287-4.752c-.178-.164.089-.425.267-.267l5.28,4.752C452.859,693.337,452.592,693.6,452.414,693.447Z" transform="translate(-290.584 -278.379)"/>
        <path id="Контур_399" data-name="Контур 399" d="M451.065,684.388l-3.164-2.65c-.185-.151.082-.418.267-.26l3.164,2.643C451.517,684.279,451.25,684.539,451.065,684.388Z" transform="translate(-289.77 -276.189)"/>
        <path id="Контур_400" data-name="Контур 400" d="M387.978,324.658c-7.533,2.547-15.462,3.842-23.214,5.4-.24.048-.336-.315-.1-.363,7.752-1.561,15.716-2.856,23.221-5.4.226-.075.329.288.1.363Z" transform="translate(-169.434 -163.61)"/>
        <path id="Контур_401" data-name="Контур 401" d="M390.169,333.831c-3.006,1.02-6.095,1.815-9.176,2.568a57.519,57.519,0,0,1-10.546,1.89.188.188,0,0,1,0-.377,57.936,57.936,0,0,0,10.676-1.931c3-.74,6.012-1.513,8.943-2.506C390.3,333.392,390.395,333.755,390.169,333.831Z" transform="translate(-175.55 -166.503)"/>
        <path id="Контур_402" data-name="Контур 402" d="M392.728,343.447a41.371,41.371,0,0,1-6.745,1.568c-2.232.383-4.485.685-6.738.918a.188.188,0,0,1,0-.377c2.287-.205,4.568-.541,6.848-.938a40.479,40.479,0,0,0,6.553-1.534c.233-.082.329.281.1.363Z" transform="translate(-184.155 -169.532)"/>
        <path id="Контур_403" data-name="Контур 403" d="M400.142,319.171a146.222,146.222,0,0,1-19.3,2.321.188.188,0,0,1,0-.377,144.908,144.908,0,0,0,19.174-2.308c.233-.041.336.322.1.363Z" transform="translate(-192.624 -161.883)"/>
        <path id="Контур_404" data-name="Контур 404" d="M447.192,151.043a31.37,31.37,0,0,0-10.881-3.143c-.24,0-.24-.39,0-.37a31.856,31.856,0,0,1,11.073,3.184C447.6,150.817,447.383,151.145,447.192,151.043Z" transform="translate(-277.83 -107.893)"/>
        <path id="Контур_405" data-name="Контур 405" d="M475.82,296.493c-6.286-18.147-13.161-36.156-22.926-52.728q-4.184-7.115-8.977-13.812c-.137-.2.185-.39.329-.192,11.162,15.64,19.448,32.9,26.234,50.824,1.986,5.239,3.862,10.518,5.691,15.812.082.226-.281.322-.363.1Z" transform="translate(-311.847 -133.788)"/>
        <path id="Контур_406" data-name="Контур 406" d="M519.962,212.2a8.651,8.651,0,0,1-.863-3.335,7.368,7.368,0,0,0-2.13-3.759c-1.917-2.054-3.992-3.924-6.06-5.786a117.368,117.368,0,0,0-12.8-10.032c-2.65-1.787-5.369-3.458-8.142-5.04-.212-.116,0-.445.192-.322a124.722,124.722,0,0,1,26.6,20.42,9.962,9.962,0,0,1,2.335,3.129c.609,1.465.356,3.157,1.2,4.533C520.414,212.216,520.092,212.408,519.962,212.2Z" transform="translate(-387.482 -119.358)"/>
        <path id="Контур_407" data-name="Контур 407" d="M485.024,217.725a3.821,3.821,0,0,0-.171-1.883l.274.11c-1.863,1.061-3.759,2.054-5.622,3.143-1.1.623-2.185,1.26-3.253,1.924a14.853,14.853,0,0,0-2.225,1.575c-.178.158-.445-.1-.267-.267a14.786,14.786,0,0,1,2.15-1.534c1.075-.685,2.178-1.322,3.28-1.952,1.9-1.089,3.842-2.13,5.752-3.212a.192.192,0,0,1,.274.11,4.3,4.3,0,0,1,.171,2.054c-.041.24-.4.137-.363-.1Z" transform="translate(-341.526 -129.353)"/>
        <path id="Контур_408" data-name="Контур 408" d="M485.705,217.859a3.746,3.746,0,0,0-.171-1.979c-1.952,1.116-9.491,5.129-11.135,6.663,0,0-1.479,2.219.986,4.93Z" transform="translate(-342.029 -129.439)"/>
        <path id="Контур_409" data-name="Контур 409" d="M433.517,348.945a113.027,113.027,0,0,0-4.835-23.474l.233.13a39.553,39.553,0,0,0-9.382,3.52c-.212.11-.4-.212-.192-.329a40.3,40.3,0,0,1,9.471-3.554.2.2,0,0,1,.233.13,114.084,114.084,0,0,1,4.848,23.577.189.189,0,0,1-.377,0Z" transform="translate(-252.692 -163.909)"/>
      </g>
    </g>
    <g id="phone" transform="translate(29.996 6101.84)">
      <g id="Сгруппировать_83" data-name="Сгруппировать 83" transform="translate(0.004 -1.84)">
        <path id="Контур_272" data-name="Контур 272" d="M348.111,229.5c-4.1-6.282-17.705-37.043-7.028-49.606s15.434-8.468,15.434-8.468l6.035,10.485Z" transform="translate(-280.557 -99.122)" fill="#d3875e"/>
        <path id="Контур_273" data-name="Контур 273" d="M353.92,203.59c.331-3.849,5.9-31.97,5.9-31.97l6.035,10.485L351.41,229.693S352.488,220.294,353.92,203.59Z" transform="translate(-283.856 -99.313)"/>
        <rect id="Прямоугольник_50" data-name="Прямоугольник 50" width="190.132" height="372.619" rx="8.73" transform="matrix(0.971, 0.239, -0.239, 0.971, 98.288, 0)" fill="#413847"/>
        <path id="Контур_274" data-name="Контур 274" d="M453.615,453.633,305.091,417.076a12.04,12.04,0,0,1-8.806-14.572L371.116,98.781a12.04,12.04,0,0,1,14.572-8.806L534.2,126.54a12.047,12.047,0,0,1,8.814,14.572L468.187,444.788a12.047,12.047,0,0,1-14.572,8.845Z" transform="translate(-271.085 -80.436)" fill="#fff"/>
        <rect id="Прямоугольник_51" data-name="Прямоугольник 51" width="151.188" height="59.49" rx="4.05" transform="translate(97.795 80.511) rotate(13.6)" fill="#150000" opacity="0.2"/>
        <rect id="Прямоугольник_52" data-name="Прямоугольник 52" width="73.069" height="37.674" rx="2.18" transform="translate(55.344 252.777) rotate(13.6)" fill="#150000" opacity="0.2"/>
        <rect id="Прямоугольник_53" data-name="Прямоугольник 53" width="72.068" height="112.144" rx="3.82" transform="translate(147.77 199.585) rotate(12.88)" fill="#150000" opacity="0.2"/>
        <g id="Сгруппировать_80" data-name="Сгруппировать 80" transform="translate(64.513 181.348)" opacity="0.65">
          <line id="Линия_34" data-name="Линия 34" x1="70.398" y1="16.758" transform="translate(7.79)" stroke="#413847" stroke-miterlimit="10" stroke-width="0.36"/>
          <line id="Линия_35" data-name="Линия 35" x1="70.398" y1="16.751" transform="translate(6.343 6.143)" stroke="#413847" stroke-miterlimit="10" stroke-width="0.36"/>
          <line id="Линия_36" data-name="Линия 36" x1="70.398" y1="16.751" transform="translate(4.819 11.755)" stroke="#413847" stroke-miterlimit="10" stroke-width="0.36"/>
          <line id="Линия_37" data-name="Линия 37" x1="70.39" y1="16.758" transform="translate(3.295 17.367)" stroke="#413847" stroke-miterlimit="10" stroke-width="0.36"/>
          <line id="Линия_38" data-name="Линия 38" x1="70.398" y1="16.758" transform="translate(1.401 23.209)" stroke="#413847" stroke-miterlimit="10" stroke-width="0.36"/>
          <line id="Линия_39" data-name="Линия 39" x1="70.39" y1="16.758" transform="translate(0 29.614)" stroke="#413847" stroke-miterlimit="10" stroke-width="0.36"/>
        </g>
        <g id="Сгруппировать_81" data-name="Сгруппировать 81" transform="translate(55.522 217.575)" opacity="0.65">
          <line id="Линия_40" data-name="Линия 40" x1="70.39" y1="16.751" transform="translate(7.798)" stroke="#413847" stroke-miterlimit="10" stroke-width="0.36"/>
          <line id="Линия_41" data-name="Линия 41" x1="70.39" y1="16.758" transform="translate(6.351 6.135)" stroke="#413847" stroke-miterlimit="10" stroke-width="0.36"/>
          <line id="Линия_42" data-name="Линия 42" x1="70.398" y1="16.758" transform="translate(4.819 11.747)" stroke="#413847" stroke-miterlimit="10" stroke-width="0.36"/>
          <line id="Линия_43" data-name="Линия 43" x1="70.398" y1="16.758" transform="translate(3.295 17.359)" stroke="#413847" stroke-miterlimit="10" stroke-width="0.36"/>
          <line id="Линия_44" data-name="Линия 44" x1="70.39" y1="16.751" transform="translate(1.409 23.209)" stroke="#413847" stroke-miterlimit="10" stroke-width="0.36"/>
          <line id="Линия_45" data-name="Линия 45" x1="70.39" y1="16.758" transform="translate(0 29.606)" stroke="#413847" stroke-miterlimit="10" stroke-width="0.36"/>
        </g>
        <g id="Сгруппировать_82" data-name="Сгруппировать 82" transform="translate(73.389 144.96)" opacity="0.65">
          <line id="Линия_46" data-name="Линия 46" x1="143.074" y1="34.048" transform="translate(8.529)" stroke="#413847" stroke-miterlimit="10" stroke-width="0.36"/>
          <line id="Линия_47" data-name="Линия 47" x1="143.074" y1="34.048" transform="translate(7.098 6.143)" stroke="#413847" stroke-miterlimit="10" stroke-width="0.36"/>
          <line id="Линия_48" data-name="Линия 48" x1="143.074" y1="34.056" transform="translate(5.381 11.709)" stroke="#413847" stroke-miterlimit="10" stroke-width="0.36"/>
          <line id="Линия_49" data-name="Линия 49" x1="143.074" y1="34.048" transform="translate(3.664 17.282)" stroke="#413847" stroke-miterlimit="10" stroke-width="0.36"/>
          <line id="Линия_50" data-name="Линия 50" x1="143.074" y1="34.048" transform="translate(1.293 23.009)" stroke="#413847" stroke-miterlimit="10" stroke-width="0.36"/>
          <line id="Линия_51" data-name="Линия 51" x1="143.074" y1="34.056" transform="translate(0 29.437)" stroke="#413847" stroke-miterlimit="10" stroke-width="0.36"/>
        </g>
        <path id="Контур_275" data-name="Контур 275" d="M350.83,495.2s11.262,62.938,17.567,73.13,14.126,22.848,14.126,22.848l12.017,71.491H544.726L527.9,601.989s36.95-84.408,37.851-154.4-.3-117.147-8.714-145.984-11.108-40.537-23.425-43.255-18.021,9.307-19.53,17.705c-.77,4.511-1.493,78.026-1.493,78.026l-8.114,58.05s-41.985,44.04-63.015,105.462L399.373,505.88Z" transform="translate(-283.723 -119.189)" fill="#ffc48e"/>
        <path id="Контур_276" data-name="Контур 276" d="M559.831,702.79c-8.668,7.783-34.318,19.961-68.951,14.195,0,0,23.941,17.474,39.929,15.873S559.831,702.79,559.831,702.79Z" transform="translate(-315.963 -221.591)" fill="#d3875e"/>
        <path id="Контур_277" data-name="Контур 277" d="M490.579,717.335a105.878,105.878,0,0,0,36.1-.092,83.482,83.482,0,0,0,25.172-8.637,43.382,43.382,0,0,0,8.183-5.6c.508-.454-.239-1.2-.77-.77-4.919,4.4-11.185,7.4-17.3,9.7a93.789,93.789,0,0,1-29.683,5.773,107.481,107.481,0,0,1-21.439-1.416c-.67-.108-.955.908-.285,1.024Z" transform="translate(-315.8 -221.433)"/>
        <path id="Контур_278" data-name="Контур 278" d="M392.339,692.5a116.657,116.657,0,0,0,14.626,8.868c.6.316,1.139-.6.531-.908a115.192,115.192,0,0,1-14.626-8.876c-.554-.393-1.085.523-.539.916Z" transform="translate(-293.224 -218.989)"/>
        <path id="Контур_279" data-name="Контур 279" d="M445.328,629.837s4.549-17.921,10.646-38.051L413.89,580.07A184.844,184.844,0,0,0,430.6,610.338C433.474,614.541,445.328,629.837,445.328,629.837Z" transform="translate(-298.239 -193.34)" fill="#d3875e"/>
        <path id="Контур_280" data-name="Контур 280" d="M456.591,623.136q5.95-22.54,12.517-44.91a.531.531,0,0,0-1.016-.285q-6.574,22.37-12.517,44.918a.527.527,0,1,0,1.016.277Z" transform="translate(-307.831 -192.774)"/>
        <path id="Контур_281" data-name="Контур 281" d="M315.28,304.226c-5,1.6-15.288,9.823-16.381,25.118s6.551,21.554,13.087,22.386S326.18,346,328.1,340.807s9.007-11.739,7.367-23.209S330.568,299.307,315.28,304.226Z" transform="translate(-271.743 -129.467)" fill="#ffc48e"/>
        <path id="Контур_282" data-name="Контур 282" d="M326.227,350.371c6.874-7.082,12.378-15.819,14.056-25.673a34.64,34.64,0,0,0-.57-14.9,29.117,29.117,0,0,0-1.155-3.379,10.129,10.129,0,0,0-1.263-2.494,7.213,7.213,0,0,0-3.549-2.132,18.79,18.79,0,0,0-13.956,1.594c-.6.323-.069,1.232.531.916a17.967,17.967,0,0,1,12.132-1.74,7.5,7.5,0,0,1,3.9,1.863,7.221,7.221,0,0,1,1.116,2.078,27.441,27.441,0,0,1,1.232,3.564c2.471,9.068.516,18.829-3.849,26.989a56.272,56.272,0,0,1-9.353,12.548.545.545,0,0,0,.77.77Z" transform="translate(-276.516 -129.124)"/>
        <path id="Контур_283" data-name="Контур 283" d="M301.367,326.543c-.955,4.434-1.232,11.809.985,16.243a22.9,22.9,0,0,0,8.368-.77s4.673-16,7.629-20.43,5.389-11.077,3.449-13.048-7.144-.985-8.86-.493S303.576,316.2,301.367,326.543Z" transform="translate(-272.172 -130.561)" fill="#fff7e7" opacity="0.47"/>
        <path id="Контур_284" data-name="Контур 284" d="M300,393.1c-5.951-3.172-22.124,1.124-27.043,15.327s-3.125,29.783,15.565,31.939c9.145,1.055,13.733-1.309,18.906-18.629,2.186-7.313,2.971-12.471,2.679-16.281C309.587,398.593,305.553,396.084,300,393.1Z" transform="translate(-265.258 -150.072)" fill="#ffc48e"/>
        <path id="Контур_285" data-name="Контур 285" d="M309.47,396.052c3.118,1.717,6.258,4.118,7.544,7.567,1.362,3.649-.262,7.636-1.216,11.193-1.917,7.144-3.78,14.4-8.306,20.423-2.132,2.825-5.073,5.519-8.783,5.689-.677,0-.677,1.093,0,1.055,7.251-.339,11.662-8.352,14.157-14.218a85.533,85.533,0,0,0,3.657-11.547,61.446,61.446,0,0,0,1.971-8.106,10.115,10.115,0,0,0-.285-4.242c-1.232-3.972-4.7-6.774-8.206-8.706-.593-.331-1.124.577-.531.908Z" transform="translate(-271.607 -150.756)"/>
        <path id="Контур_286" data-name="Контур 286" d="M266.168,505.158c2.656-6.3,10.377-6.282,17.2-5.735s24.025,1.37,24.841,18.3-6.42,18.768-18.983,20.138-21.423,3.079-24.148-7.852S263.99,510.347,266.168,505.158Z" transform="translate(-263.654 -174.724)" fill="#ffc48e"/>
        <path id="Контур_287" data-name="Контур 287" d="M296.526,500.563c4.4.816,8.907,1.847,12.609,4.5,3.341,2.394,6.928,6.289,6.32,10.708-.092.677.962.67,1.055,0,.593-4.5-2.8-8.506-6.158-11.077-3.934-3.079-8.768-4.257-13.579-5.142-.662-.123-.947.893-.277,1.016Z" transform="translate(-271.126 -174.801)"/>
        <path id="Контур_288" data-name="Контур 288" d="M288.122,536.451c-3.156-4.057-4.026-23.864-1.332-28.221,0,0,20.015.331,21.377,2.5s2.663,21.185-1.886,23.494C299.561,537.582,288.122,536.451,288.122,536.451Z" transform="translate(-268.611 -176.802)" fill="#fff7e7" opacity="0.47"/>
        <path id="Контур_289" data-name="Контур 289" d="M1.278,0H89.635a1.278,1.278,0,0,1,1.278,1.278V13.956a7.49,7.49,0,0,1-7.49,7.49H7.49A7.49,7.49,0,0,1,0,13.956V1.278A1.278,1.278,0,0,1,1.278,0Z" transform="matrix(0.969, 0.245, -0.245, 0.969, 149.828, 14.151)" fill="#413847"/>
        <circle id="Эллипс_31" data-name="Эллипс 31" cx="2.61" cy="2.61" r="2.61" transform="translate(216.378 41.331)" fill="none" stroke="#fff" stroke-miterlimit="10" stroke-width="0.18"/>
        <circle id="Эллипс_32" data-name="Эллипс 32" cx="7.49" cy="7.49" r="7.49" transform="translate(94.327 359.694)" fill="none" stroke="#fff" stroke-miterlimit="10" stroke-width="0.23"/>
        <circle id="Эллипс_33" data-name="Эллипс 33" cx="2.61" cy="2.61" r="2.61" transform="translate(203.584 37.951)" fill="#fff"/>
        <path id="Контур_290" data-name="Контур 290" d="M274.14,426.229s-.77-9.238,2.894-17.143,8.429-10.623,12.317-10.546c2.917.054,8.352,2.078,9.284,4.488,2.309,5.989-3.533,18.614-6.435,25.734,0,0-1.209,9.33-9.646,6.428C282.577,435.189,275.194,431.764,274.14,426.229Z" transform="translate(-266.053 -151.551)" fill="#fff7e7" opacity="0.47"/>
        <path id="Контур_291" data-name="Контур 291" d="M606.067,306.971a25.142,25.142,0,0,1-12.586,4.842c-1.478.1-1.909-1.54-2.433-2.617s-1.032-2.194-1.54-3.3q-1.539-3.51-2.833-7.121c-.223-.631-1.247-.362-1.016.277.955,2.663,2.009,5.3,3.156,7.875.57,1.27,1.155,2.533,1.771,3.78.446.916.908,1.917,2,2.132a9.508,9.508,0,0,0,3.441-.346,27.088,27.088,0,0,0,3.787-1.047,27.367,27.367,0,0,0,6.767-3.564c.547-.393,0-1.309-.539-.908Z" transform="translate(-337.774 -128.501)"/>
        <path id="Контур_292" data-name="Контур 292" d="M595.547,266.26s-12.478,1.747-14.118,3.156,5.535,32.478,12.378,33.986,12.963-5.781,12.963-5.781S602.452,277.191,595.547,266.26Z" transform="translate(-336.753 -121.1)" fill="#fff7e7" opacity="0.5"/>
        <path id="Контур_293" data-name="Контур 293" d="M607.057,381.378a41.99,41.99,0,0,0,13.087-3.626c.616-.277.077-1.193-.539-.908a40.709,40.709,0,0,1-12.555,3.479c-.67.069-.677,1.124,0,1.055Z" transform="translate(-342.589 -146.544)"/>
        <path id="Контур_294" data-name="Контур 294" d="M613.218,387.734a20.553,20.553,0,0,0,9.03-2.941c.577-.354.046-1.27-.531-.908a19.523,19.523,0,0,1-8.468,2.794c-.67.054-.677,1.116,0,1.055Z" transform="translate(-344.016 -148.158)"/>
        <path id="Контур_295" data-name="Контур 295" d="M146.179,516.855,87.19,486.61l48.536,10.731Z" transform="translate(-20.075 -110.604)" fill="#d3875e"/>
        <text id="МТУСИ" transform="matrix(0.97, 0.24, -0.24, 0.97, 119.669, 66.043)" fill="#306" font-size="29" font-family="Calibri" letter-spacing="0.2em"><tspan x="0" y="0">М</tspan><tspan y="0" letter-spacing="0.21em">Т</tspan><tspan y="0" letter-spacing="0.18em">У</tspan><tspan y="0">СИ</tspan></text>
      </g>
      <path id="Контур_296" data-name="Контур 296" d="M134.71,671.75l-13.51,8.706L137.574,757.4l176.8-34.271-7.367-51.676-22.1.3Z" transform="translate(-27.9 -154.995)" fill="#ffece0"/>
      <path id="Контур_297" data-name="Контур 297" d="M405.471,851.47l176.8-34.264,8.629-2.571a10.777,10.777,0,0,1,13.856,10.354v63.539H403.3S405.471,849.861,405.471,851.47Z" transform="translate(-295.797 -249.075)" fill="#306"/>
      <path id="Контур_298" data-name="Контур 298" d="M317.71,738.58l-176.8,34.271L135.7,748.38l128.964-6.1Z" transform="translate(-31.238 -170.449)" fill="#ecd0b3"/>
      <path id="Контур_299" data-name="Контур 299" d="M557.118,777.892,563.83,818c.108.67,1.124.385,1.016-.277l-6.713-40.114C558.026,776.945,557.01,777.222,557.118,777.892Z" transform="translate(-331.205 -240.568)"/>
      <path id="Контур_300" data-name="Контур 300" d="M572.872,788.926c-2.355,5.165-1.416,11.185,1.478,15.943a13.2,13.2,0,0,0,5.758,5.573,8.421,8.421,0,0,0,7.867-.77,10.423,10.423,0,0,0,4.4-7.837c.069-.677-.985-.67-1.055,0a8.98,8.98,0,0,1-5.389,7.7c-3.31,1.286-6.443,0-8.729-2.517-4.165-4.573-6.089-11.739-3.449-17.528.285-.616-.624-1.155-.908-.531Z" transform="translate(-334.527 -243.204)"/>
      <path id="Контур_301" data-name="Контур 301" d="M418.493,875.7c3.456-.808,6.928-1.54,10.408-2.225q7.636-1.54,15.273-2.979,9.407-1.786,18.829-3.518l21.408-3.926,22.6-4.1,22.855-4.141q10.862-1.971,21.731-3.972,9.815-1.8,19.637-3.649,8.106-1.54,16.166-3.079c3.926-.77,7.844-1.54,11.747-2.432l2.04-.47c.654-.154.377-1.17-.285-1.016-3.449.816-6.928,1.539-10.408,2.225q-7.621,1.54-15.273,2.979-9.414,1.794-18.829,3.518-10.692,1.986-21.4,3.926l-22.57,4.064-22.863,4.149q-10.869,1.978-21.724,3.964-9.823,1.809-19.645,3.649-8.091,1.54-16.166,3.118c-3.918.77-7.844,1.54-11.747,2.44l-2.032.462c-.662.154-.385,1.17.277,1.016Z" transform="translate(-299.151 -255.057)"/>
      <path id="Контур_302" data-name="Контур 302" d="M629.068,831.293c1.07,7.336,1.855,14.726,2.725,22.085,1.17,9.815,2.309,19.63,3.51,29.445.4,3.272.77,6.551,1.262,9.815.092.67,1.109.385,1.016-.277-1.07-7.336-1.855-14.719-2.725-22.085-1.17-9.815-2.309-19.63-3.51-29.445-.4-3.272-.77-6.551-1.263-9.815C629.992,830.346,628.976,830.631,629.068,831.293Z" transform="translate(-347.769 -252.862)"/>
      <path id="Контур_303" data-name="Контур 303" d="M401.92,835.781q-6.6-29.344-11.547-59.012-1.4-8.4-2.664-16.812l-.246.6,11.585-8.86c.531-.408,0-1.324-.531-.908l-11.593,8.853a.57.57,0,0,0-.239.6q4.472,29.737,10.608,59.182,1.74,8.337,3.61,16.635c.154.662,1.17.385,1.016-.277Z" transform="translate(-291.969 -234.456)"/>
    </g>
  </g>
</svg>
