<svg xmlns="http://www.w3.org/2000/svg" width="490" height="545.71" viewBox="0 0 490 545.71">
	<g id="human" transform="translate(108 -5486)">
		<ellipse id="Эллипс_26" data-name="Эллипс 26" cx="233" cy="242" rx="233" ry="242" transform="translate(-84 5525)" fill="#e5e0eb" />
		<ellipse id="Эллипс_27" data-name="Эллипс 27" cx="218" cy="227" rx="218" ry="227" transform="translate(-108 5496)" opacity="0.13" />
		<g id="human_phone" data-name="human phone" transform="translate(126 5486)">
			<path id="Контур_357" data-name="Контур 357" d="M665.732,765.519c0,4.492-4.28,14.7-2.794,19.174s1.219,10.84,3.7,13.819,3.424,10.155-1.986,11.922c0,0-15.4-3.479-22.351-29.8s.877-1.726-4.109-14.141-1.486-15.894-1.486-15.894,9.655-11.2,15.257-11.237S665.732,765.519,665.732,765.519Z" transform="translate(-635.517 -294.449)" />
			<path id="Контур_358" data-name="Контур 358" d="M15.681,227.582,28.432,216.7l-.76-2.541-12.189-1.78L0,224.569Z" transform="translate(203.752 -66.945)" />
			<path id="Контур_359" data-name="Контур 359" d="M406.458,847.45c-.774,4.3-3.082,5.916-3.91,13.011a7.2,7.2,0,0,0,5.862,7.909c12.751,2.294,23.967,6.526,45.059,5.773,5.574-.2,21.091-3.581,21.091-3.581s.6-6.766-3.184-7.957-14.127-1.6-14.723-1.794-12.935-6.362-15.517-8.354.39-3.931-4.389-4.109S406.458,847.45,406.458,847.45Z" transform="translate(-281.922 -328.522)" />
			<path id="Контур_360" data-name="Контур 360" d="M605.221,692.5s-28.706,15.887-31.76,18.633-52.55,28.008-52.55,28.008-5.478,1.835-8.553.609l-13.12-29.281s11.3-10.08,13.435-11,63.233-47.935,83.085-50.092l8.128-1.671s5,1.116,5.3,4.472S605.221,692.5,605.221,692.5Z" transform="translate(-482.774 -265.56)" fill="#444" />
			<path id="Контур_361" data-name="Контур 361" d="M605.754,686.529c-5.629,2.7-11.073,5.786-16.49,8.9-7.416,4.225-14.757,8.58-22.077,12.97q-11.641,6.992-23.221,14.134-9.827,5.985-19.612,12.148L512.6,742.024l-.685.411c-.205.13-.4-.192-.192-.322l10.409-6.505q9.457-5.9,18.941-11.751,11.491-7.087,23.043-14.065c7.423-4.472,14.86-8.9,22.372-13.223,5.759-3.314,11.539-6.615,17.489-9.587.52-.253,1.034-.514,1.561-.76.212-.1.4.219.185.322Z" transform="translate(-487.887 -277.693)" />
			<path id="Контур_362" data-name="Контур 362" d="M514.056,651.182l15.613-3.472s5,1.116,5.3,4.472S531,692.5,531,692.5s-28.706,15.887-31.76,18.633l12.874-25.1Z" transform="translate(-408.557 -265.56)" />
			<path id="Контур_363" data-name="Контур 363" d="M520.029,485.09c2.547,6.786,6.334,118.3,4.211,123.815,0,0-7.711,122.528-6.848,124.63s-39.163,1.191-37.978-1.479-4.335-37.225-5.04-43.716c-1.144-10.477-13.367-148.426-14.853-152.583s-14.819-19.681-20.16-45.791l36.225-3.568Z" transform="translate(-357.432 -214.299)" fill="#444" />
			<path id="Контур_364" data-name="Контур 364" d="M444.337,489.945l36.2-3.54,44.442-1.294c.685,1.828.685,6.122,1.424,11.765.219,1.657-20.174-.5-41.614.993-.452,0-11.135,1.185-11.559,1.226l-22.262.37S446.385,502.154,444.337,489.945Z" transform="translate(-362.381 -214.305)" />
			<path id="Контур_365" data-name="Контур 365" d="M491.275,496.718c-.281,5.745-2.739,11-5.293,16.044-2.643,5.266-4.793,10.758-7.423,16.024-.11.212-.431,0-.329-.192,2.554-5.074,4.595-10.388,7.149-15.462s5.232-10.525,5.519-16.435a.189.189,0,0,1,.377,0Z" transform="translate(-350.448 -217.901)" />
			<path id="Контур_366" data-name="Контур 366" d="M493.958,494.027c.4,4.978-1.808,9.587-3.787,14.024q-3.349,7.464-6.69,14.942c-.1.226-.424.034-.322-.185l6.41-14.332c2.054-4.554,4.431-9.313,4.013-14.449A.189.189,0,0,1,493.958,494.027Z" transform="translate(-356.555 -217.059)" />
			<path id="Контур_367" data-name="Контур 367" d="M427.841,233.411c3.027-.336,7.731-.685,10.758,2.349s26.885,41,30.247,64.527c1.192,8.341-3.006,36.184-3.006,36.184s12.292,54.324,12.08,57.583c-.336,5.04,1.007,15.12-9.409,18.147s-25.878,0-25.878,0L418.1,267.356Z" transform="translate(-295.929 -134.897)" fill="#c1b4cf" />
			<path id="Контур_368" data-name="Контур 368" d="M364.2,346.1s12.1.685,17.8-2.356,12.073-9.4,12.073-9.4,2.123-1.027,2.965-1.465c4.657-2.438,2.684-5.232,2.684-5.232s6.492-1.274,5.91-4.465a3.2,3.2,0,0,0-1.712-2.1s2.5-2.363,2.63-3.287.13-2.363-2.232-2.363a19.516,19.516,0,0,0-5.519,1.185l-8.4,1.705s1.315-1.315-1.315-2.1-13.524-1.445-15.23-1.965-14.319,9.19-14.319,9.19Z" transform="translate(-184.503 -160.441)" fill="#ffc48e" />
			<path id="Контур_369" data-name="Контур 369" d="M382.8,324.23a3.2,3.2,0,0,1,1.712,2.1c.582,3.191-5.91,4.465-5.91,4.465s1.972,2.794-2.684,5.232c-.842.438-2.965,1.465-2.965,1.465s-6.362,6.382-12.073,9.4l5.56-7.916s5.6-2.849,3.842-5.814h0l6.478-4.4-13.613.11Z" transform="translate(-163.369 -163.593)" />
			<path id="Контур_370" data-name="Контур 370" d="M454.5,182.616l4.677-11.258,4.937-1.37s1.513-1.575,8.9-5.28c.685-.342,2.547-3.479,4.725-7.724l4.109-1.3a3.027,3.027,0,0,0,2.123-2.917c-.034-3.5,0-10.039.431-11.641.63-2.2,7.861-18.551,4.711-25.782S472.423,90.5,451.647,97.1s-22.009,30.185-18.551,41.5L427.125,155.9Z" transform="translate(-314.1 -91.539)" fill="#ffc48e" />
			<path id="Контур_371" data-name="Контур 371" d="M443.839,160.2a6.165,6.165,0,0,0-.329,1.459,6.489,6.489,0,0,1-.342,1.527c-.075.226-.438.13-.363-.1a6.068,6.068,0,0,0,.329-1.459,6.355,6.355,0,0,1,.342-1.52C443.552,159.866,443.915,159.969,443.839,160.2Z" transform="translate(-278.771 -111.814)" />
			<path id="Контур_372" data-name="Контур 372" d="M127.24,93.97,154.59,120.7l4.65-11.258Z" transform="translate(-14.187 -29.62)" />
			<path id="Контур_373" data-name="Контур 373" d="M482.594,106.05c7.163,6.7-1.815,17.017-8.1,16.387s-19.674-9.388-24.07-10.642l-2.41,3.335a4.985,4.985,0,0,1-4.033,2.054h-3.554s-3.6,10.642-4.636,12.422c-.685,1.082-5.958-2.479-8.9,0-5.663,4.711-10.272,16.079-10.272,16.079l-2.739-8.512s-4.109-14.107-2.849-20.393,5.67-21.358,13.805-25.131S463.119,87.835,482.594,106.05Z" transform="translate(-298.242 -89.648)" />
			<path id="Контур_374" data-name="Контур 374" d="M501.194,304.082s.157-.993.4-2.63c.931-6.266-1.856-20.311-2.657-25.638-1.007-6.718-21.913-61.13-21.913-61.13s3.7-10.08,3.7-12.436-35.609-30.918-35.609-30.918l-5.376,8.4,2.287,9.409Z" transform="translate(-334.606 -115.396)" fill="#ffece0" />
			<path id="Контур_375" data-name="Контур 375" d="M426.812,355.5l10.128-1.13s-2.554-27.919-4.793-28.665-12.086,4.287-12.086,4.287Z" transform="translate(-256.293 -164.034)" fill="#ffece0" />
			<path id="Контур_376" data-name="Контур 376" d="M75.26,242.34l6.752,25.508,10.128-1.123-5.834-6.7Z" transform="translate(88.507 -76.389)" />
			<path id="Контур_377" data-name="Контур 377" d="M456.648,183.47s15.75,8.135,27.912,21.447c3.527,3.869-.144,5.9,5.177,13.778,12.97,19.215,30.048,63.164,30.048,63.164s6.266,21.146,7.444,50.509S531.762,393,531.762,393s-13.538,4.355-24.892,4.355-67.246-.39-70.471-.39c-5.821,0-9.464-4.259-9.792-7.437-.6-5.9,5.252-36.944,8.779-55.351s-6.423-99.67-9.553-108.3,8.217-20.359,22.317-27.391c0,0,4.636-2.431,5.341-4.211Z" transform="translate(-354.71 -119.223)" fill="#306" />
			<path id="Контур_378" data-name="Контур 378" d="M431.16,387.052c2.287,2.575,12.86,3.424,15.147,2.862s30.575-2.575,42-3.718,31.151-8.861,36.013-9.717,6.286-4,6.286-4l-.281,12a154.379,154.379,0,0,1-27,6.067c-16,2.2-53.516,6.067-53.516,6.067l-11.039-2.739Z" transform="translate(-357.565 -178.802)" />
			<path id="Контур_379" data-name="Контур 379" d="M505.014,324.38,501.7,337.466l16.12-1.438s-7.012-.384-8.669-2.2S505.014,324.38,505.014,324.38Z" transform="translate(-393.078 -163.64)" />
			<path id="Контур_380" data-name="Контур 380" d="M452.47,219.314c8.6-.452,24.289,10,27.72,33.438s-4,53.995-4,53.995a18.839,18.839,0,0,0,14,.288c7.717-2.856,26.022-8.573,30.575-10.272s8.943-4.924,11.758-3.609,8.635,33.452,8.635,33.452a48.788,48.788,0,0,1-6.957,1.6c-4.862.856-24.577,8.573-36.013,9.717s-39.717,3.143-42,3.718-12.86-.288-15.147-2.862-10.861-52.5-10.861-61.158C430.18,230.736,441.609,219.882,452.47,219.314Z" transform="translate(-367.445 -130.517)" fill="#306" />
			<path id="Контур_381" data-name="Контур 381" d="M504.97,145.028c-1.609-4.793-1.842-7.348-5.971-7.807s-7.122,7.574-5.718,12.169,3.9,8.5,8.039,7.581Z" transform="translate(-374.223 -104.638)" fill="#ffc48e" />
			<path id="Контур_382" data-name="Контур 382" d="M481.979,498.058c1.678,15.935,5.382,31.541,8.615,47.209,1.609,7.765,3.1,15.558,4.15,23.42S496.4,584.56,496.8,592.53c1.657,32.726,1.78,65.575.794,98.328q-.822,27.549-2.814,55.036c0,.24-.4.247-.377,0q3.554-49.078,3.39-98.335-.082-24.591-1.1-49.174c-.342-8.135-.787-16.27-1.678-24.365s-2.26-16.044-3.835-23.967c-3.424-17.277-7.731-34.424-9.587-51.975,0-.24.349-.233.377,0Z" transform="translate(-359.702 -218.337)" />
			<path id="Контур_383" data-name="Контур 383" d="M485.725,842.978c-8.9-.39-17.763-.562-26.652-.849-2.013-.062-4.027-.13-6.04-.219-.24,0-.24-.383,0-.37,8.9.383,17.77.555,26.652.842,2.013.068,4.026.13,6.04.219C485.965,842.6,485.971,842.992,485.725,842.978Z" transform="translate(-327.717 -326.658)" />
			<path id="Контур_384" data-name="Контур 384" d="M645.086,772.365l-8.9-21.666c-.089-.219.274-.315.363-.1l8.9,21.66C645.538,772.488,645.175,772.584,645.086,772.365Z" transform="translate(-612.803 -297.954)" />
			<path id="Контур_385" data-name="Контур 385" d="M453.474,147.1l-.952,7.923a12.065,12.065,0,0,0,.575,5.382l3.465,9.957a11.977,11.977,0,0,0,5.328,6.444l1.171-.116,5.43-4.588,10.21,2.321-1.774,2.945-9-.822-3.424,3.794,1.534,5.184-5.047,1.465-10.744-10.443a11.984,11.984,0,0,1-3.616-8.4l-.466-23.016Z" transform="translate(-315.926 -107.137)" />
			<path id="Контур_386" data-name="Контур 386" d="M521.64,292.038a260.414,260.414,0,0,1-5.828,34.979.192.192,0,0,1-.363-.1,259.99,259.99,0,0,0,5.841-34.876c0-.233.4-.24.377,0Z" transform="translate(-406.342 -153.39)" />
			<path id="Контур_387" data-name="Контур 387" d="M503.482,329c-7.4,1.794-14.88,3.307-22.344,4.793-8.827,1.76-17.729,3.5-26.631,4.629-1.7.219-3.424.411-5.108.5a11.434,11.434,0,0,1-3.02-.1c-.233-.055-.137-.418.1-.363a9.841,9.841,0,0,0,2.616.1c1.431-.062,2.855-.205,4.273-.37,4.061-.479,8.108-1.144,12.141-1.842,9.21-1.589,18.386-3.424,27.528-5.382,3.465-.746,6.93-1.493,10.368-2.328.24-.055.336.308.1.363Z" transform="translate(-340.927 -164.98)" />
			<path id="Контур_388" data-name="Контур 388" d="M544.229,233.33c-5.109-3.78-10.272-7.533-15.579-11-4.191-2.739-8.553-5.608-13.285-7.368-1.472-.548-3.287-1.178-4.862-.719a.192.192,0,0,1-.1-.363,7.067,7.067,0,0,1,3.944.336,33.415,33.415,0,0,1,5.7,2.493,141.932,141.932,0,0,1,15.175,9.642q4.643,3.266,9.2,6.656c.192.144,0,.473-.192.329Z" transform="translate(-425.644 -128.763)" />
			<path id="Контур_389" data-name="Контур 389" d="M512.346,265.546c-2.3,6-4.793,11.929-7.067,17.928-.089.219-.452.123-.363-.1,2.294-6,4.794-11.929,7.067-17.928C512.065,265.224,512.428,265.32,512.346,265.546Z" transform="translate(-389.809 -145.023)" />
			<path id="Контур_390" data-name="Контур 390" d="M453.478,366.543a149.491,149.491,0,0,0-3.1-28.412c-.055-.24.308-.335.356-.1a149.468,149.468,0,0,1,3.123,28.514.188.188,0,0,1-.377,0Z" transform="translate(-293.963 -167.9)" />
			<path id="Контур_391" data-name="Контур 391" d="M443.477,372.872a2.6,2.6,0,0,1-3.123,1.507,2.321,2.321,0,0,1-1.411-3.068,2.383,2.383,0,0,1,1.431-1.513.192.192,0,0,1,.233.13l.315,1.856c.041.24-.322.342-.363.1l-.315-1.856.226.13a2.212,2.212,0,0,0-1.212,2.671,1.945,1.945,0,0,0,2.575,1.137,1.993,1.993,0,0,0,1.281-1.2C443.189,372.543,443.552,372.639,443.477,372.872Z" transform="translate(-275.656 -177.954)" />
			<path id="Контур_392" data-name="Контур 392" d="M522.558,217.894a34.116,34.116,0,0,0-4.109-3.876c-2.006-1.691-4.109-3.294-6.2-4.855a136.952,136.952,0,0,0-12.086-8.169,50.064,50.064,0,0,0-7.533-3.287c-.226-.089-.13-.452.1-.363a52.732,52.732,0,0,1,6.909,2.9c1.869,1.048,3.67,2.219,5.478,3.424,4.424,2.951,8.765,6.081,12.874,9.457a37.588,37.588,0,0,1,4.862,4.526c.151.185-.11.452-.267.267Z" transform="translate(-391.859 -123.591)" />
			<path id="Контур_393" data-name="Контур 393" d="M442.437,419.512c1.445,1.883-.205,5.122-2.643,4.759a3.273,3.273,0,0,1-2.6-2.513,2.657,2.657,0,0,1,1.418-2.89,3.075,3.075,0,0,1,3.527.308c.178.164-.089.425-.267.26-1.479-1.37-4.417-.288-4.362,1.828a2.89,2.89,0,0,0,1.952,2.541,2.294,2.294,0,0,0,2.664-1.027,2.739,2.739,0,0,0,0-3.075c-.151-.192.178-.383.322-.192Z" transform="translate(-274.027 -193.293)" />
			<path id="Контур_394" data-name="Контур 394" d="M513.6,418.827H487.388a.192.192,0,0,1,0-.377H513.6a.192.192,0,0,1,0,.377Z" transform="translate(-379.109 -193.293)" />
			<path id="Контур_395" data-name="Контур 395" d="M513.5,423.488c-.507,3.273-.589,6.642-.774,9.943q-.322,5.691-.548,11.395l-.1,2.465a.178.178,0,0,1-.1.164,29.937,29.937,0,0,1-5.9,2.054,26.447,26.447,0,0,1-12.374.4,17.873,17.873,0,0,1-7.163-3.479c-.192-.157.075-.418.267-.267,6.848,5.478,16.469,4.554,24.091,1.37.274-.11.541-.253.815-.356V447.1a16.2,16.2,0,0,1,.116-2.7q.226-5.382.52-10.772c.192-3.424.274-6.848.794-10.231,0-.233.4-.137.363.1Z" transform="translate(-378.346 -194.81)" />
			<path id="Контур_396" data-name="Контур 396" d="M528.19,445.2c.062-4.65.062-9.292.075-13.942V420.988a.192.192,0,0,1,.377,0c0,7.731,0,15.462-.068,23.2V445.2a.192.192,0,0,1-.377,0Z" transform="translate(-422.04 -194.044)" />
			<path id="Контур_397" data-name="Контур 397" d="M512.907,429.147H491.028a.192.192,0,0,1,0-.377h21.845a.192.192,0,0,1,0,.377Z" transform="translate(-380.873 -196.546)" />
			<path id="Контур_398" data-name="Контур 398" d="M452.414,693.447l-5.287-4.752c-.178-.164.089-.425.267-.267l5.28,4.752C452.859,693.337,452.592,693.6,452.414,693.447Z" transform="translate(-290.584 -278.379)" />
			<path id="Контур_399" data-name="Контур 399" d="M451.065,684.388l-3.164-2.65c-.185-.151.082-.418.267-.26l3.164,2.643C451.517,684.279,451.25,684.539,451.065,684.388Z" transform="translate(-289.77 -276.189)" />
			<path id="Контур_400" data-name="Контур 400" d="M387.978,324.658c-7.533,2.547-15.462,3.842-23.214,5.4-.24.048-.336-.315-.1-.363,7.752-1.561,15.716-2.856,23.221-5.4.226-.075.329.288.1.363Z" transform="translate(-169.434 -163.61)" />
			<path id="Контур_401" data-name="Контур 401" d="M390.169,333.831c-3.006,1.02-6.095,1.815-9.176,2.568a57.519,57.519,0,0,1-10.546,1.89.188.188,0,0,1,0-.377,57.936,57.936,0,0,0,10.676-1.931c3-.74,6.012-1.513,8.943-2.506C390.3,333.392,390.395,333.755,390.169,333.831Z" transform="translate(-175.55 -166.503)" />
			<path id="Контур_402" data-name="Контур 402" d="M392.728,343.447a41.371,41.371,0,0,1-6.745,1.568c-2.232.383-4.485.685-6.738.918a.188.188,0,0,1,0-.377c2.287-.205,4.568-.541,6.848-.938a40.479,40.479,0,0,0,6.553-1.534c.233-.082.329.281.1.363Z" transform="translate(-184.155 -169.532)" />
			<path id="Контур_403" data-name="Контур 403" d="M400.142,319.171a146.222,146.222,0,0,1-19.3,2.321.188.188,0,0,1,0-.377,144.908,144.908,0,0,0,19.174-2.308c.233-.041.336.322.1.363Z" transform="translate(-192.624 -161.883)" />
			<path id="Контур_404" data-name="Контур 404" d="M447.192,151.043a31.37,31.37,0,0,0-10.881-3.143c-.24,0-.24-.39,0-.37a31.856,31.856,0,0,1,11.073,3.184C447.6,150.817,447.383,151.145,447.192,151.043Z" transform="translate(-277.83 -107.893)" />
			<path id="Контур_405" data-name="Контур 405" d="M475.82,296.493c-6.286-18.147-13.161-36.156-22.926-52.728q-4.184-7.115-8.977-13.812c-.137-.2.185-.39.329-.192,11.162,15.64,19.448,32.9,26.234,50.824,1.986,5.239,3.862,10.518,5.691,15.812.082.226-.281.322-.363.1Z" transform="translate(-311.847 -133.788)" />
			<path id="Контур_406" data-name="Контур 406" d="M519.962,212.2a8.651,8.651,0,0,1-.863-3.335,7.368,7.368,0,0,0-2.13-3.759c-1.917-2.054-3.992-3.924-6.06-5.786a117.368,117.368,0,0,0-12.8-10.032c-2.65-1.787-5.369-3.458-8.142-5.04-.212-.116,0-.445.192-.322a124.722,124.722,0,0,1,26.6,20.42,9.962,9.962,0,0,1,2.335,3.129c.609,1.465.356,3.157,1.2,4.533C520.414,212.216,520.092,212.408,519.962,212.2Z" transform="translate(-387.482 -119.358)" />
			<path id="Контур_407" data-name="Контур 407" d="M485.024,217.725a3.821,3.821,0,0,0-.171-1.883l.274.11c-1.863,1.061-3.759,2.054-5.622,3.143-1.1.623-2.185,1.26-3.253,1.924a14.853,14.853,0,0,0-2.225,1.575c-.178.158-.445-.1-.267-.267a14.786,14.786,0,0,1,2.15-1.534c1.075-.685,2.178-1.322,3.28-1.952,1.9-1.089,3.842-2.13,5.752-3.212a.192.192,0,0,1,.274.11,4.3,4.3,0,0,1,.171,2.054c-.041.24-.4.137-.363-.1Z" transform="translate(-341.526 -129.353)" />
			<path id="Контур_408" data-name="Контур 408" d="M485.705,217.859a3.746,3.746,0,0,0-.171-1.979c-1.952,1.116-9.491,5.129-11.135,6.663,0,0-1.479,2.219.986,4.93Z" transform="translate(-342.029 -129.439)" />
			<path id="Контур_409" data-name="Контур 409" d="M433.517,348.945a113.027,113.027,0,0,0-4.835-23.474l.233.13a39.553,39.553,0,0,0-9.382,3.52c-.212.11-.4-.212-.192-.329a40.3,40.3,0,0,1,9.471-3.554.2.2,0,0,1,.233.13,114.084,114.084,0,0,1,4.848,23.577.189.189,0,0,1-.377,0Z" transform="translate(-252.692 -163.909)" />
		</g>
	</g>
</svg>
