<svg xmlns="http://www.w3.org/2000/svg" width="309.406" height="643.517" viewBox="0 0 309.406 643.517">
  <g id="phone" transform="translate(6.996 3.358)">
    <path id="Контур_296" data-name="Контур 296" d="M134.71,671.75l-13.51,8.706L137.574,757.4l176.8-34.271-7.367-51.676-22.1.3Z" transform="translate(-27.9 -154.995)" fill="#ffece0"/>
    <path id="Контур_298" data-name="Контур 298" d="M317.71,738.58l-176.8,34.271L135.7,748.38l128.964-6.1Z" transform="translate(-31.238 -170.449)" fill="#ecd0b3"/>
    <path id="Контур_299" data-name="Контур 299" d="M557.118,777.892,563.83,818c.108.67,1.124.385,1.016-.277l-6.713-40.114C558.026,776.945,557.01,777.222,557.118,777.892Z" transform="translate(-331.205 -240.568)"/>
    <path id="Контур_300" data-name="Контур 300" d="M572.872,788.926c-2.355,5.165-1.416,11.185,1.478,15.943a13.2,13.2,0,0,0,5.758,5.573,8.421,8.421,0,0,0,7.867-.77,10.423,10.423,0,0,0,4.4-7.837c.069-.677-.985-.67-1.055,0a8.98,8.98,0,0,1-5.389,7.7c-3.31,1.286-6.443,0-8.729-2.517-4.165-4.573-6.089-11.739-3.449-17.528.285-.616-.624-1.155-.908-.531Z" transform="translate(-334.527 -243.204)"/>
    <path id="Контур_301" data-name="Контур 301" d="M418.493,875.7c3.456-.808,6.928-1.54,10.408-2.225q7.636-1.54,15.273-2.979,9.407-1.786,18.829-3.518l21.408-3.926,22.6-4.1,22.855-4.141q10.862-1.971,21.731-3.972,9.815-1.8,19.637-3.649,8.106-1.54,16.166-3.079c3.926-.77,7.844-1.54,11.747-2.432l2.04-.47c.654-.154.377-1.17-.285-1.016-3.449.816-6.928,1.539-10.408,2.225q-7.621,1.54-15.273,2.979-9.414,1.794-18.829,3.518-10.692,1.986-21.4,3.926l-22.57,4.064-22.863,4.149q-10.869,1.978-21.724,3.964-9.823,1.809-19.645,3.649-8.091,1.54-16.166,3.118c-3.918.77-7.844,1.54-11.747,2.44l-2.032.462c-.662.154-.385,1.17.277,1.016Z" transform="translate(-299.151 -255.057)"/>
    <path id="Контур_302" data-name="Контур 302" d="M629.068,831.293c1.07,7.336,1.855,14.726,2.725,22.085,1.17,9.815,2.309,19.63,3.51,29.445.4,3.272.77,6.551,1.262,9.815.092.67,1.109.385,1.016-.277-1.07-7.336-1.855-14.719-2.725-22.085-1.17-9.815-2.309-19.63-3.51-29.445-.4-3.272-.77-6.551-1.263-9.815C629.992,830.346,628.976,830.631,629.068,831.293Z" transform="translate(-347.769 -252.862)"/>
    <path id="Контур_303" data-name="Контур 303" d="M401.92,835.781q-6.6-29.344-11.547-59.012-1.4-8.4-2.664-16.812l-.246.6,11.585-8.86c.531-.408,0-1.324-.531-.908l-11.593,8.853a.57.57,0,0,0-.239.6q4.472,29.737,10.608,59.182,1.74,8.337,3.61,16.635c.154.662,1.17.385,1.016-.277Z" transform="translate(-291.969 -234.456)"/>
    <g id="phone-2" data-name="phone" transform="translate(-7 -1.518)">
      <g id="Сгруппировать_198" data-name="Сгруппировать 198" transform="translate(0.004 -1.84)">
        <path id="Контур_827" data-name="Контур 827" d="M348.127,229.584c-4.1-6.29-17.73-37.094-7.038-49.675s15.456-8.479,15.456-8.479l6.044,10.5Z" transform="translate(-280.479 -99.023)" fill="#d3875e"/>
        <path id="Контур_828" data-name="Контур 828" d="M353.923,203.634c.331-3.854,5.9-32.014,5.9-32.014l6.044,10.5L351.41,229.774S352.489,220.362,353.923,203.634Z" transform="translate(-283.762 -99.212)"/>
        <rect id="Прямоугольник_124" data-name="Прямоугольник 124" width="190.396" height="373.137" rx="8.73" transform="matrix(0.971, 0.239, -0.239, 0.971, 98.425, 0)" fill="#413847"/>
        <path id="Контур_829" data-name="Контур 829" d="M453.834,454.139,305.1,417.531a12.056,12.056,0,0,1-8.819-14.592L371.221,98.794a12.056,12.056,0,0,1,14.592-8.819l148.723,36.616a12.064,12.064,0,0,1,8.826,14.592l-74.936,304.1a12.064,12.064,0,0,1-14.592,8.857Z" transform="translate(-271.05 -80.424)" fill="#fff"/>
        <rect id="Прямоугольник_125" data-name="Прямоугольник 125" width="151.398" height="59.572" rx="4.05" transform="translate(97.931 80.623) rotate(13.6)" fill="#150000" opacity="0.2"/>
        <rect id="Прямоугольник_126" data-name="Прямоугольник 126" width="73.171" height="37.726" rx="2.18" transform="translate(55.421 253.129) rotate(13.6)" fill="#150000" opacity="0.2"/>
        <rect id="Прямоугольник_127" data-name="Прямоугольник 127" width="72.168" height="112.3" rx="3.82" transform="translate(147.975 199.863) rotate(12.88)" fill="#150000" opacity="0.2"/>
        <g id="Сгруппировать_194" data-name="Сгруппировать 194" transform="translate(64.603 181.601)" opacity="0.65">
          <line id="Линия_86" data-name="Линия 86" x1="70.496" y1="16.782" transform="translate(7.801)" stroke="#413847" stroke-miterlimit="10" stroke-width="0.36"/>
          <line id="Линия_87" data-name="Линия 87" x1="70.496" y1="16.774" transform="translate(6.352 6.152)" stroke="#413847" stroke-miterlimit="10" stroke-width="0.36"/>
          <line id="Линия_88" data-name="Линия 88" x1="70.496" y1="16.774" transform="translate(4.826 11.771)" stroke="#413847" stroke-miterlimit="10" stroke-width="0.36"/>
          <line id="Линия_89" data-name="Линия 89" x1="70.488" y1="16.782" transform="translate(3.299 17.391)" stroke="#413847" stroke-miterlimit="10" stroke-width="0.36"/>
          <line id="Линия_90" data-name="Линия 90" x1="70.496" y1="16.782" transform="translate(1.403 23.242)" stroke="#413847" stroke-miterlimit="10" stroke-width="0.36"/>
          <line id="Линия_91" data-name="Линия 91" x1="70.488" y1="16.782" transform="translate(0 29.655)" stroke="#413847" stroke-miterlimit="10" stroke-width="0.36"/>
        </g>
        <g id="Сгруппировать_195" data-name="Сгруппировать 195" transform="translate(55.599 217.878)" opacity="0.65">
          <line id="Линия_92" data-name="Линия 92" x1="70.488" y1="16.774" transform="translate(7.809)" stroke="#413847" stroke-miterlimit="10" stroke-width="0.36"/>
          <line id="Линия_93" data-name="Линия 93" x1="70.488" y1="16.782" transform="translate(6.36 6.144)" stroke="#413847" stroke-miterlimit="10" stroke-width="0.36"/>
          <line id="Линия_94" data-name="Линия 94" x1="70.496" y1="16.782" transform="translate(4.826 11.763)" stroke="#413847" stroke-miterlimit="10" stroke-width="0.36"/>
          <line id="Линия_95" data-name="Линия 95" x1="70.496" y1="16.782" transform="translate(3.299 17.383)" stroke="#413847" stroke-miterlimit="10" stroke-width="0.36"/>
          <line id="Линия_96" data-name="Линия 96" x1="70.488" y1="16.774" transform="translate(1.411 23.242)" stroke="#413847" stroke-miterlimit="10" stroke-width="0.36"/>
          <line id="Линия_97" data-name="Линия 97" x1="70.488" y1="16.782" transform="translate(0 29.647)" stroke="#413847" stroke-miterlimit="10" stroke-width="0.36"/>
        </g>
        <g id="Сгруппировать_196" data-name="Сгруппировать 196" transform="translate(73.491 145.162)" opacity="0.65">
          <line id="Линия_98" data-name="Линия 98" x1="143.273" y1="34.095" transform="translate(8.541)" stroke="#413847" stroke-miterlimit="10" stroke-width="0.36"/>
          <line id="Линия_99" data-name="Линия 99" x1="143.273" y1="34.095" transform="translate(7.107 6.152)" stroke="#413847" stroke-miterlimit="10" stroke-width="0.36"/>
          <line id="Линия_100" data-name="Линия 100" x1="143.273" y1="34.103" transform="translate(5.388 11.725)" stroke="#413847" stroke-miterlimit="10" stroke-width="0.36"/>
          <line id="Линия_101" data-name="Линия 101" x1="143.273" y1="34.095" transform="translate(3.669 17.306)" stroke="#413847" stroke-miterlimit="10" stroke-width="0.36"/>
          <line id="Линия_102" data-name="Линия 102" x1="143.273" y1="34.095" transform="translate(1.295 23.041)" stroke="#413847" stroke-miterlimit="10" stroke-width="0.36"/>
          <line id="Линия_103" data-name="Линия 103" x1="143.273" y1="34.103" transform="translate(0 29.478)" stroke="#413847" stroke-miterlimit="10" stroke-width="0.36"/>
        </g>
        <path id="Контур_830" data-name="Контур 830" d="M350.83,495.526s11.278,63.026,17.591,73.232,14.145,22.879,14.145,22.879l12.033,71.59H545l-16.851-60.76s37-84.525,37.9-154.612-.3-117.31-8.726-146.187-11.124-40.594-23.457-43.315-18.046,9.32-19.557,17.73c-.771,4.517-1.5,78.135-1.5,78.135l-8.125,58.131s-42.043,44.1-63.1,105.609l-42.143-11.732Z" transform="translate(-283.629 -118.996)" fill="#ffc48e"/>
        <path id="Контур_831" data-name="Контур 831" d="M559.926,702.79c-8.68,7.793-34.365,19.989-69.046,14.215,0,0,23.974,17.5,39.985,15.9S559.926,702.79,559.926,702.79Z" transform="translate(-315.72 -220.922)" fill="#d3875e"/>
        <path id="Контур_832" data-name="Контур 832" d="M490.58,717.356a106.019,106.019,0,0,0,36.154-.093,83.6,83.6,0,0,0,25.207-8.649A43.461,43.461,0,0,0,560.135,703c.509-.455-.239-1.2-.771-.771-4.926,4.4-11.2,7.408-17.329,9.713a93.91,93.91,0,0,1-29.724,5.781,107.615,107.615,0,0,1-21.469-1.418c-.671-.108-.956.91-.285,1.025Z" transform="translate(-315.558 -220.764)"/>
        <path id="Контур_833" data-name="Контур 833" d="M392.339,692.5a116.825,116.825,0,0,0,14.646,8.88c.6.316,1.141-.6.532-.91a115.339,115.339,0,0,1-14.646-8.888c-.555-.393-1.087.524-.54.917Z" transform="translate(-293.086 -218.332)"/>
        <path id="Контур_834" data-name="Контур 834" d="M445.372,629.906s4.556-17.946,10.661-38.1L413.89,580.07a185.1,185.1,0,0,0,16.736,30.31C433.5,614.589,445.372,629.906,445.372,629.906Z" transform="translate(-298.078 -192.803)" fill="#d3875e"/>
        <path id="Контур_835" data-name="Контур 835" d="M456.592,623.2q5.959-22.571,12.534-44.972a.532.532,0,0,0-1.018-.285q-6.583,22.4-12.534,44.98a.527.527,0,1,0,1.018.278Z" transform="translate(-307.626 -192.239)"/>
        <path id="Контур_836" data-name="Контур 836" d="M315.3,304.228c-5.011,1.6-15.309,9.836-16.4,25.153s6.56,21.584,13.1,22.417,14.215-5.743,16.134-10.939,9.019-11.756,7.377-23.242S330.612,299.3,315.3,304.228Z" transform="translate(-271.706 -129.226)" fill="#ffc48e"/>
        <path id="Контур_837" data-name="Контур 837" d="M326.236,350.44c6.884-7.092,12.4-15.841,14.076-25.708a34.69,34.69,0,0,0-.57-14.916,29.159,29.159,0,0,0-1.156-3.384,10.142,10.142,0,0,0-1.264-2.5,7.223,7.223,0,0,0-3.554-2.135,18.817,18.817,0,0,0-13.976,1.6c-.6.324-.069,1.233.532.917a17.992,17.992,0,0,1,12.149-1.742,7.508,7.508,0,0,1,3.9,1.865,7.232,7.232,0,0,1,1.118,2.081,27.476,27.476,0,0,1,1.233,3.569c2.475,9.081.517,18.855-3.854,27.026a56.35,56.35,0,0,1-9.366,12.565.546.546,0,0,0,.771.771Z" transform="translate(-276.457 -128.885)"/>
        <path id="Контур_838" data-name="Контур 838" d="M301.368,326.57c-.956,4.44-1.233,11.825.987,16.265a22.93,22.93,0,0,0,8.379-.771s4.679-16.019,7.639-20.459,5.4-11.093,3.453-13.066-7.154-.987-8.873-.493S303.581,316.209,301.368,326.57Z" transform="translate(-272.133 -130.315)" fill="#fff7e7" opacity="0.47"/>
        <path id="Контур_839" data-name="Контур 839" d="M300.044,393.106c-5.959-3.176-22.155,1.125-27.081,15.348s-3.13,29.825,15.587,31.983c9.158,1.056,13.752-1.31,18.932-18.655,2.189-7.323,2.976-12.488,2.683-16.3C309.641,398.6,305.6,396.089,300.044,393.106Z" transform="translate(-265.25 -149.736)" fill="#ffc48e"/>
        <path id="Контур_840" data-name="Контур 840" d="M309.485,396.053c3.122,1.719,6.267,4.124,7.554,7.578,1.364,3.654-.262,7.647-1.218,11.208-1.919,7.154-3.785,14.423-8.318,20.451-2.135,2.829-5.08,5.527-8.8,5.7-.678,0-.678,1.095,0,1.056,7.262-.339,11.679-8.364,14.176-14.238a85.638,85.638,0,0,0,3.662-11.563,61.525,61.525,0,0,0,1.973-8.117,10.129,10.129,0,0,0-.285-4.247c-1.233-3.978-4.7-6.784-8.217-8.719-.594-.331-1.125.578-.532.91Z" transform="translate(-271.57 -150.417)"/>
        <path id="Контур_841" data-name="Контур 841" d="M266.172,505.166c2.659-6.313,10.391-6.29,17.229-5.743s24.059,1.372,24.876,18.323-6.429,18.794-19.01,20.166S267.814,541,265.085,530.05,263.99,510.362,266.172,505.166Z" transform="translate(-263.654 -174.272)" fill="#ffc48e"/>
        <path id="Контур_842" data-name="Контур 842" d="M296.527,500.564c4.409.817,8.919,1.85,12.627,4.5,3.346,2.4,6.938,6.3,6.329,10.723-.092.678.964.671,1.056,0,.594-4.5-2.806-8.518-6.167-11.093-3.939-3.083-8.78-4.263-13.6-5.149-.663-.123-.948.894-.278,1.018Z" transform="translate(-271.092 -174.349)"/>
        <path id="Контур_843" data-name="Контур 843" d="M288.126,536.49c-3.161-4.062-4.032-23.9-1.334-28.26,0,0,20.043.331,21.407,2.505s2.667,21.214-1.889,23.527C299.581,537.623,288.126,536.49,288.126,536.49Z" transform="translate(-268.588 -176.341)" fill="#fff7e7" opacity="0.47"/>
        <path id="Контур_844" data-name="Контур 844" d="M1.28,0H89.76a1.28,1.28,0,0,1,1.28,1.28v12.7a7.5,7.5,0,0,1-7.5,7.5H7.5a7.5,7.5,0,0,1-7.5-7.5V1.28A1.28,1.28,0,0,1,1.28,0Z" transform="matrix(0.969, 0.245, -0.245, 0.969, 150.037, 14.171)" fill="#413847"/>
        <circle id="Эллипс_65" data-name="Эллипс 65" cx="2.613" cy="2.613" r="2.613" transform="translate(216.679 41.388)" fill="none" stroke="#fff" stroke-miterlimit="10" stroke-width="0.183"/>
        <circle id="Эллипс_66" data-name="Эллипс 66" cx="7.501" cy="7.501" r="7.501" transform="translate(94.459 360.195)" fill="none" stroke="#fff" stroke-miterlimit="10" stroke-width="0.229"/>
        <circle id="Эллипс_67" data-name="Эллипс 67" cx="2.613" cy="2.613" r="2.613" transform="translate(203.867 38.004)" fill="#fff"/>
        <path id="Контур_845" data-name="Контур 845" d="M274.14,426.268s-.771-9.25,2.9-17.167,8.441-10.638,12.334-10.561c2.922.054,8.364,2.081,9.3,4.494,2.313,6-3.538,18.64-6.444,25.77,0,0-1.21,9.343-9.659,6.437C282.589,435.24,275.2,431.81,274.14,426.268Z" transform="translate(-266.041 -151.207)" fill="#fff7e7" opacity="0.47"/>
        <path id="Контур_846" data-name="Контур 846" d="M606.1,306.983a25.177,25.177,0,0,1-12.6,4.849c-1.48.1-1.912-1.542-2.436-2.621s-1.033-2.2-1.542-3.307q-1.542-3.515-2.837-7.131c-.224-.632-1.249-.362-1.018.278.956,2.667,2.012,5.3,3.161,7.886.57,1.272,1.156,2.536,1.773,3.785.447.917.91,1.919,2,2.135a9.52,9.52,0,0,0,3.446-.347,27.116,27.116,0,0,0,3.793-1.048,27.4,27.4,0,0,0,6.776-3.569c.547-.393,0-1.31-.54-.91Z" transform="translate(-337.429 -128.265)"/>
        <path id="Контур_847" data-name="Контур 847" d="M595.567,266.26s-12.5,1.75-14.138,3.161,5.543,32.523,12.4,34.034,12.981-5.789,12.981-5.789S602.482,277.206,595.567,266.26Z" transform="translate(-336.413 -120.898)" fill="#fff7e7" opacity="0.5"/>
        <path id="Контур_848" data-name="Контур 848" d="M607.057,381.384a42.048,42.048,0,0,0,13.1-3.631c.617-.277.077-1.195-.54-.91a40.767,40.767,0,0,1-12.573,3.484c-.671.069-.678,1.125,0,1.056Z" transform="translate(-342.222 -146.224)"/>
        <path id="Контур_849" data-name="Контур 849" d="M613.219,387.74a20.582,20.582,0,0,0,9.042-2.945c.578-.355.046-1.272-.532-.91a19.549,19.549,0,0,1-8.479,2.8c-.671.054-.678,1.118,0,1.056Z" transform="translate(-343.643 -147.831)"/>
        <path id="Контур_850" data-name="Контур 850" d="M146.261,516.9,87.19,486.61l48.6,10.746Z" transform="translate(-19.982 -110.081)" fill="#d3875e"/>
        <g id="Сгруппировать_197" data-name="Сгруппировать 197" transform="translate(122.149 49.589)">
          <path id="Контур_851" data-name="Контур 851" d="M442.345,165.084a.37.37,0,0,1-.108.185.424.424,0,0,1-.247.085,2.4,2.4,0,0,1-.4,0,4.485,4.485,0,0,1-.609-.116,4.779,4.779,0,0,1-.578-.177,3.087,3.087,0,0,1-.362-.185.47.47,0,0,1-.17-.185.409.409,0,0,1,0-.216l4.062-16.242h0l-10.646,14.646a.517.517,0,0,1-.17.146.686.686,0,0,1-.262.062,2.207,2.207,0,0,1-.378,0,4.614,4.614,0,0,1-.5-.108,3.708,3.708,0,0,1-.509-.154,1.974,1.974,0,0,1-.339-.17.625.625,0,0,1-.193-.177.308.308,0,0,1-.069-.185l-2.212-17.884h0L424.6,160.652a.369.369,0,0,1-.108.193.485.485,0,0,1-.247.085,2.649,2.649,0,0,1-.409,0,4.348,4.348,0,0,1-.617-.116,3.3,3.3,0,0,1-.586-.185,2.5,2.5,0,0,1-.355-.177.362.362,0,0,1-.154-.185.409.409,0,0,1,0-.216l4.286-17.152a1.087,1.087,0,0,1,.54-.771,1.187,1.187,0,0,1,.771-.077l1.542.378a3.5,3.5,0,0,1,.771.293,1.811,1.811,0,0,1,.547.432,1.582,1.582,0,0,1,.324.578,3.56,3.56,0,0,1,.139.771L433,159.341h.069l8.911-12.072a3.98,3.98,0,0,1,.532-.648,1.918,1.918,0,0,1,.54-.378,1.479,1.479,0,0,1,.57-.139,2.651,2.651,0,0,1,.663.085l1.6.4a1.164,1.164,0,0,1,.4.17.94.94,0,0,1,.293.285,1.072,1.072,0,0,1,.139.4,1.442,1.442,0,0,1-.039.532Z" transform="translate(-422.111 -142.019)" fill="#306"/>
          <path id="Контур_852" data-name="Контур 852" d="M479.021,155.6a3.368,3.368,0,0,1-.154.47.911.911,0,0,1-.17.3.455.455,0,0,1-.208.139.37.37,0,0,1-.224,0l-5.242-1.31-4.039,16.188a.37.37,0,0,1-.108.185.4.4,0,0,1-.239.085,1.789,1.789,0,0,1-.4,0,4.1,4.1,0,0,1-.609-.116,4.04,4.04,0,0,1-.578-.177,2.708,2.708,0,0,1-.37-.185.432.432,0,0,1-.17-.193.4.4,0,0,1,0-.216l4.039-16.188-5.242-1.31a.393.393,0,0,1-.193-.108.409.409,0,0,1-.108-.224,1.219,1.219,0,0,1,0-.347,2.691,2.691,0,0,1,.085-.486,2.805,2.805,0,0,1,.154-.47,1.651,1.651,0,0,1,.177-.316.386.386,0,0,1,.2-.146.37.37,0,0,1,.224,0l12.974,3.238a.433.433,0,0,1,.193.108.409.409,0,0,1,.108.231.926.926,0,0,1,0,.362A3.4,3.4,0,0,1,479.021,155.6Z" transform="translate(-431.937 -144.113)" fill="#306"/>
          <path id="Контур_853" data-name="Контур 853" d="M497.846,173.618a29.648,29.648,0,0,1-1.935,2.421,7.476,7.476,0,0,1-1.6,1.357,3.392,3.392,0,0,1-1.542.478,5.805,5.805,0,0,1-1.68-.193,6.019,6.019,0,0,1-.632-.2,5.029,5.029,0,0,1-.578-.278,2.919,2.919,0,0,1-.47-.308,1.54,1.54,0,0,1-.278-.262.542.542,0,0,1-.108-.208.9.9,0,0,1,0-.262,1.781,1.781,0,0,1,0-.37,2.758,2.758,0,0,1,.108-.524,2.312,2.312,0,0,1,.308-.771.378.378,0,0,1,.385-.17.679.679,0,0,1,.247.154l.316.293a2.843,2.843,0,0,0,.478.339,2.732,2.732,0,0,0,.7.262,2.76,2.76,0,0,0,.686.092,1.441,1.441,0,0,0,.678-.193,3.747,3.747,0,0,0,.771-.586,9.834,9.834,0,0,0,.979-1.11l-3.315-14.97a1.538,1.538,0,0,1,0-.516.3.3,0,0,1,.17-.262.771.771,0,0,1,.432,0,6.061,6.061,0,0,1,.732.146c.278.069.493.131.663.193a1.614,1.614,0,0,1,.385.2.77.77,0,0,1,.208.231.994.994,0,0,1,.093.324l1.634,7.632c.185.856.355,1.673.509,2.467s.3,1.542.447,2.351h.039c.447-.671.894-1.326,1.349-1.989s.964-1.372,1.542-2.151l4.271-6.005a.509.509,0,0,1,.177-.185.586.586,0,0,1,.262-.092,1.882,1.882,0,0,1,.439,0,3.4,3.4,0,0,1,.694.146,4.755,4.755,0,0,1,.678.216.824.824,0,0,1,.339.224.27.27,0,0,1,.062.262.978.978,0,0,1-.177.324Z" transform="translate(-437.442 -145.635)" fill="#306"/>
          <path id="Контур_854" data-name="Контур 854" d="M529.32,184.693a1.221,1.221,0,0,1-.116.4,1.768,1.768,0,0,1-.123.293,1.054,1.054,0,0,1-.154.2,1.189,1.189,0,0,1-.262.2,4.907,4.907,0,0,1-.717.285,7.46,7.46,0,0,1-1.287.293,10.465,10.465,0,0,1-1.688.085,9.55,9.55,0,0,1-1.989-.293,8.781,8.781,0,0,1-3.13-1.426,6.825,6.825,0,0,1-2.043-2.405,8.31,8.31,0,0,1-.855-3.315,13.374,13.374,0,0,1,.439-4.14,13.518,13.518,0,0,1,1.634-3.985,9.3,9.3,0,0,1,2.451-2.66,7.355,7.355,0,0,1,3.083-1.28,8.48,8.48,0,0,1,3.508.17,8.633,8.633,0,0,1,1.542.547,10.025,10.025,0,0,1,1.31.771,6.743,6.743,0,0,1,1.025.825,3.738,3.738,0,0,1,.57.671,1.608,1.608,0,0,1,.177.355.924.924,0,0,1,0,.262,2.885,2.885,0,0,1,0,.339,3.4,3.4,0,0,1-.093.455,2.894,2.894,0,0,1-.154.478,1.094,1.094,0,0,1-.17.316.532.532,0,0,1-.185.17.293.293,0,0,1-.216,0,1.087,1.087,0,0,1-.493-.416,8.812,8.812,0,0,0-.771-.856,7.822,7.822,0,0,0-1.233-.971,6.362,6.362,0,0,0-1.9-.771,5.242,5.242,0,0,0-2.39-.069,4.927,4.927,0,0,0-2.112,1.033,7.141,7.141,0,0,0-1.711,2.074,13.173,13.173,0,0,0-1.588,6.306,6.474,6.474,0,0,0,.532,2.552,4.708,4.708,0,0,0,1.411,1.827,5.819,5.819,0,0,0,2.243,1.056,6.668,6.668,0,0,0,2.02.216,7.761,7.761,0,0,0,1.542-.262,9.972,9.972,0,0,0,1.118-.37,1.125,1.125,0,0,1,.663-.123.409.409,0,0,1,.162.085.37.37,0,0,1,.077.193,1.538,1.538,0,0,1,0,.355A3.647,3.647,0,0,1,529.32,184.693Z" transform="translate(-443.839 -147.706)" fill="#306"/>
          <path id="Контур_855" data-name="Контур 855" d="M558.208,193.983a.316.316,0,0,1-.108.177.455.455,0,0,1-.239.092,1.788,1.788,0,0,1-.4,0,6.081,6.081,0,0,1-.609-.123,5.952,5.952,0,0,1-.578-.177,1.542,1.542,0,0,1-.362-.185.44.44,0,0,1-.162-.185.376.376,0,0,1,0-.208l3.083-12.234c.069-.3.154-.609.239-.925s.185-.609.262-.863h0l-.362.37-.416.409-.439.424-.447.424-11.1,10.114a2.019,2.019,0,0,1-.224.162.616.616,0,0,1-.254.077,1.333,1.333,0,0,1-.347,0,4.561,4.561,0,0,1-.478-.092,4.937,4.937,0,0,1-.532-.17.878.878,0,0,1-.308-.177.454.454,0,0,1-.139-.193.447.447,0,0,1,0-.224l4.4-17.915a.308.308,0,0,1,.116-.17.432.432,0,0,1,.254-.085,1.48,1.48,0,0,1,.409,0,4.149,4.149,0,0,1,.57.116,3.741,3.741,0,0,1,.594.177,1.441,1.441,0,0,1,.362.177.424.424,0,0,1,.162.2.357.357,0,0,1,0,.2l-3.083,12.334c-.062.262-.139.54-.216.84a8.428,8.428,0,0,1-.27.848h0c.216-.2.47-.447.771-.771s.6-.57.91-.848l11.093-10.137a.979.979,0,0,1,.208-.139.617.617,0,0,1,.254-.077h.339a4.305,4.305,0,0,1,.486.093,3.781,3.781,0,0,1,.532.162,1.015,1.015,0,0,1,.308.177.487.487,0,0,1,.139.185.37.37,0,0,1,0,.224Z" transform="translate(-450.102 -148.955)" fill="#306"/>
        </g>
      </g>
      <path id="Контур_856" data-name="Контур 856" d="M134.729,671.751,121.2,680.469l16.4,77.048L314.641,723.2l-7.377-51.748-22.132.3Z" transform="translate(-27.77 -154.274)" fill="#ffece0"/>
      <path id="Контур_857" data-name="Контур 857" d="M405.474,851.522l177.045-34.311,8.641-2.575A10.792,10.792,0,0,1,605.036,825v63.627H403.3S405.474,849.911,405.474,851.522Z" transform="translate(-295.648 -248.287)" fill="#306"/>
      <path id="Контур_858" data-name="Контур 858" d="M317.963,738.58,140.919,772.9,135.7,748.393l129.143-6.113Z" transform="translate(-31.093 -169.656)" fill="#ecd0b3"/>
      <path id="Контур_859" data-name="Контур 859" d="M557.118,777.893l6.722,40.162c.108.671,1.126.385,1.018-.277l-6.722-40.17C558.027,776.944,557.01,777.222,557.118,777.893Z" transform="translate(-330.891 -239.819)"/>
      <path id="Контур_860" data-name="Контур 860" d="M572.873,788.927c-2.359,5.172-1.418,11.2,1.48,15.965a13.212,13.212,0,0,0,5.766,5.581A8.433,8.433,0,0,0,588,809.7a10.438,10.438,0,0,0,4.4-7.847c.069-.678-.987-.671-1.056,0a8.992,8.992,0,0,1-5.4,7.709c-3.315,1.287-6.452,0-8.742-2.521-4.17-4.579-6.1-11.756-3.453-17.552.285-.617-.624-1.156-.91-.532Z" transform="translate(-334.197 -242.443)"/>
      <path id="Контур_861" data-name="Контур 861" d="M418.494,875.745c3.461-.809,6.938-1.542,10.422-2.228q7.647-1.542,15.294-2.983,9.42-1.789,18.855-3.523L484.5,863.08l22.633-4.109,22.887-4.147q10.877-1.973,21.762-3.978,9.829-1.8,19.665-3.654,8.117-1.542,16.188-3.083c3.931-.771,7.855-1.542,11.763-2.436l2.043-.47c.655-.154.378-1.172-.285-1.017-3.453.817-6.938,1.542-10.422,2.228q-7.632,1.542-15.294,2.983-9.428,1.8-18.855,3.523-10.707,1.989-21.43,3.931l-22.6,4.07-22.895,4.155q-10.885,1.981-21.754,3.97-9.836,1.811-19.672,3.654-8.1,1.542-16.188,3.122c-3.924.771-7.855,1.542-11.763,2.444l-2.035.463c-.663.154-.385,1.172.277,1.017Z" transform="translate(-298.986 -254.241)"/>
      <path id="Контур_862" data-name="Контур 862" d="M629.068,831.294c1.072,7.346,1.858,14.747,2.729,22.116,1.172,9.829,2.313,19.657,3.515,29.486.4,3.276.771,6.56,1.264,9.828.092.671,1.11.385,1.018-.277-1.071-7.346-1.858-14.739-2.729-22.116-1.172-9.828-2.312-19.657-3.515-29.486-.4-3.276-.771-6.56-1.264-9.829C629.993,830.345,628.976,830.631,629.068,831.294Z" transform="translate(-347.378 -252.056)"/>
      <path id="Контур_863" data-name="Контур 863" d="M401.941,835.9q-6.614-29.385-11.563-59.094-1.4-8.41-2.667-16.836l-.247.6,11.6-8.873c.532-.409,0-1.326-.532-.91l-11.609,8.865a.571.571,0,0,0-.239.6q4.479,29.779,10.623,59.264,1.742,8.349,3.615,16.658c.154.663,1.172.385,1.017-.278Z" transform="translate(-291.837 -233.736)"/>
    </g>
  </g>
</svg>
