<svg xmlns="http://www.w3.org/2000/svg" width="308.954" height="641.999" viewBox="0 0 308.954 641.999">
  <g id="phone" transform="translate(-0.004 1.84)">
    <g id="Сгруппировать_83" data-name="Сгруппировать 83" transform="translate(0.004 -1.84)">
      <path id="Контур_272" data-name="Контур 272" d="M348.111,229.5c-4.1-6.282-17.705-37.043-7.028-49.606s15.434-8.468,15.434-8.468l6.035,10.485Z" transform="translate(-280.557 -99.122)" fill="#d3875e"/>
      <path id="Контур_273" data-name="Контур 273" d="M353.92,203.59c.331-3.849,5.9-31.97,5.9-31.97l6.035,10.485L351.41,229.693S352.488,220.294,353.92,203.59Z" transform="translate(-283.856 -99.313)"/>
      <rect id="Прямоугольник_50" data-name="Прямоугольник 50" width="190.132" height="372.619" rx="8.73" transform="matrix(0.971, 0.239, -0.239, 0.971, 98.288, 0)" fill="#413847"/>
      <path id="Контур_274" data-name="Контур 274" d="M453.615,453.633,305.091,417.076a12.04,12.04,0,0,1-8.806-14.572L371.116,98.781a12.04,12.04,0,0,1,14.572-8.806L534.2,126.54a12.047,12.047,0,0,1,8.814,14.572L468.187,444.788a12.047,12.047,0,0,1-14.572,8.845Z" transform="translate(-271.085 -80.436)" fill="#fff"/>
      <rect id="Прямоугольник_51" data-name="Прямоугольник 51" width="151.188" height="59.49" rx="4.05" transform="translate(97.795 80.511) rotate(13.6)" fill="#150000" opacity="0.2"/>
      <rect id="Прямоугольник_52" data-name="Прямоугольник 52" width="73.069" height="37.674" rx="2.18" transform="translate(55.344 252.777) rotate(13.6)" fill="#150000" opacity="0.2"/>
      <rect id="Прямоугольник_53" data-name="Прямоугольник 53" width="72.068" height="112.144" rx="3.82" transform="translate(147.77 199.585) rotate(12.88)" fill="#150000" opacity="0.2"/>
      <g id="Сгруппировать_80" data-name="Сгруппировать 80" transform="translate(64.513 181.348)" opacity="0.65">
        <line id="Линия_34" data-name="Линия 34" x1="70.398" y1="16.758" transform="translate(7.79)" stroke="#413847" stroke-miterlimit="10" stroke-width="0.36"/>
        <line id="Линия_35" data-name="Линия 35" x1="70.398" y1="16.751" transform="translate(6.343 6.143)" stroke="#413847" stroke-miterlimit="10" stroke-width="0.36"/>
        <line id="Линия_36" data-name="Линия 36" x1="70.398" y1="16.751" transform="translate(4.819 11.755)" stroke="#413847" stroke-miterlimit="10" stroke-width="0.36"/>
        <line id="Линия_37" data-name="Линия 37" x1="70.39" y1="16.758" transform="translate(3.295 17.367)" stroke="#413847" stroke-miterlimit="10" stroke-width="0.36"/>
        <line id="Линия_38" data-name="Линия 38" x1="70.398" y1="16.758" transform="translate(1.401 23.209)" stroke="#413847" stroke-miterlimit="10" stroke-width="0.36"/>
        <line id="Линия_39" data-name="Линия 39" x1="70.39" y1="16.758" transform="translate(0 29.614)" stroke="#413847" stroke-miterlimit="10" stroke-width="0.36"/>
      </g>
      <g id="Сгруппировать_81" data-name="Сгруппировать 81" transform="translate(55.522 217.575)" opacity="0.65">
        <line id="Линия_40" data-name="Линия 40" x1="70.39" y1="16.751" transform="translate(7.798)" stroke="#413847" stroke-miterlimit="10" stroke-width="0.36"/>
        <line id="Линия_41" data-name="Линия 41" x1="70.39" y1="16.758" transform="translate(6.351 6.135)" stroke="#413847" stroke-miterlimit="10" stroke-width="0.36"/>
        <line id="Линия_42" data-name="Линия 42" x1="70.398" y1="16.758" transform="translate(4.819 11.747)" stroke="#413847" stroke-miterlimit="10" stroke-width="0.36"/>
        <line id="Линия_43" data-name="Линия 43" x1="70.398" y1="16.758" transform="translate(3.295 17.359)" stroke="#413847" stroke-miterlimit="10" stroke-width="0.36"/>
        <line id="Линия_44" data-name="Линия 44" x1="70.39" y1="16.751" transform="translate(1.409 23.209)" stroke="#413847" stroke-miterlimit="10" stroke-width="0.36"/>
        <line id="Линия_45" data-name="Линия 45" x1="70.39" y1="16.758" transform="translate(0 29.606)" stroke="#413847" stroke-miterlimit="10" stroke-width="0.36"/>
      </g>
      <g id="Сгруппировать_82" data-name="Сгруппировать 82" transform="translate(73.389 144.96)" opacity="0.65">
        <line id="Линия_46" data-name="Линия 46" x1="143.074" y1="34.048" transform="translate(8.529)" stroke="#413847" stroke-miterlimit="10" stroke-width="0.36"/>
        <line id="Линия_47" data-name="Линия 47" x1="143.074" y1="34.048" transform="translate(7.098 6.143)" stroke="#413847" stroke-miterlimit="10" stroke-width="0.36"/>
        <line id="Линия_48" data-name="Линия 48" x1="143.074" y1="34.056" transform="translate(5.381 11.709)" stroke="#413847" stroke-miterlimit="10" stroke-width="0.36"/>
        <line id="Линия_49" data-name="Линия 49" x1="143.074" y1="34.048" transform="translate(3.664 17.282)" stroke="#413847" stroke-miterlimit="10" stroke-width="0.36"/>
        <line id="Линия_50" data-name="Линия 50" x1="143.074" y1="34.048" transform="translate(1.293 23.009)" stroke="#413847" stroke-miterlimit="10" stroke-width="0.36"/>
        <line id="Линия_51" data-name="Линия 51" x1="143.074" y1="34.056" transform="translate(0 29.437)" stroke="#413847" stroke-miterlimit="10" stroke-width="0.36"/>
      </g>
      <path id="Контур_275" data-name="Контур 275" d="M350.83,495.2s11.262,62.938,17.567,73.13,14.126,22.848,14.126,22.848l12.017,71.491H544.726L527.9,601.989s36.95-84.408,37.851-154.4-.3-117.147-8.714-145.984-11.108-40.537-23.425-43.255-18.021,9.307-19.53,17.705c-.77,4.511-1.493,78.026-1.493,78.026l-8.114,58.05s-41.985,44.04-63.015,105.462L399.373,505.88Z" transform="translate(-283.723 -119.189)" fill="#ffc48e"/>
      <path id="Контур_276" data-name="Контур 276" d="M559.831,702.79c-8.668,7.783-34.318,19.961-68.951,14.195,0,0,23.941,17.474,39.929,15.873S559.831,702.79,559.831,702.79Z" transform="translate(-315.963 -221.591)" fill="#d3875e"/>
      <path id="Контур_277" data-name="Контур 277" d="M490.579,717.335a105.878,105.878,0,0,0,36.1-.092,83.482,83.482,0,0,0,25.172-8.637,43.382,43.382,0,0,0,8.183-5.6c.508-.454-.239-1.2-.77-.77-4.919,4.4-11.185,7.4-17.3,9.7a93.789,93.789,0,0,1-29.683,5.773,107.481,107.481,0,0,1-21.439-1.416c-.67-.108-.955.908-.285,1.024Z" transform="translate(-315.8 -221.433)"/>
      <path id="Контур_278" data-name="Контур 278" d="M392.339,692.5a116.657,116.657,0,0,0,14.626,8.868c.6.316,1.139-.6.531-.908a115.192,115.192,0,0,1-14.626-8.876c-.554-.393-1.085.523-.539.916Z" transform="translate(-293.224 -218.989)"/>
      <path id="Контур_279" data-name="Контур 279" d="M445.328,629.837s4.549-17.921,10.646-38.051L413.89,580.07A184.844,184.844,0,0,0,430.6,610.338C433.474,614.541,445.328,629.837,445.328,629.837Z" transform="translate(-298.239 -193.34)" fill="#d3875e"/>
      <path id="Контур_280" data-name="Контур 280" d="M456.591,623.136q5.95-22.54,12.517-44.91a.531.531,0,0,0-1.016-.285q-6.574,22.37-12.517,44.918a.527.527,0,1,0,1.016.277Z" transform="translate(-307.831 -192.774)"/>
      <path id="Контур_281" data-name="Контур 281" d="M315.28,304.226c-5,1.6-15.288,9.823-16.381,25.118s6.551,21.554,13.087,22.386S326.18,346,328.1,340.807s9.007-11.739,7.367-23.209S330.568,299.307,315.28,304.226Z" transform="translate(-271.743 -129.467)" fill="#ffc48e"/>
      <path id="Контур_282" data-name="Контур 282" d="M326.227,350.371c6.874-7.082,12.378-15.819,14.056-25.673a34.64,34.64,0,0,0-.57-14.9,29.117,29.117,0,0,0-1.155-3.379,10.129,10.129,0,0,0-1.263-2.494,7.213,7.213,0,0,0-3.549-2.132,18.79,18.79,0,0,0-13.956,1.594c-.6.323-.069,1.232.531.916a17.967,17.967,0,0,1,12.132-1.74,7.5,7.5,0,0,1,3.9,1.863,7.221,7.221,0,0,1,1.116,2.078,27.441,27.441,0,0,1,1.232,3.564c2.471,9.068.516,18.829-3.849,26.989a56.272,56.272,0,0,1-9.353,12.548.545.545,0,0,0,.77.77Z" transform="translate(-276.516 -129.124)"/>
      <path id="Контур_283" data-name="Контур 283" d="M301.367,326.543c-.955,4.434-1.232,11.809.985,16.243a22.9,22.9,0,0,0,8.368-.77s4.673-16,7.629-20.43,5.389-11.077,3.449-13.048-7.144-.985-8.86-.493S303.576,316.2,301.367,326.543Z" transform="translate(-272.172 -130.561)" fill="#fff7e7" opacity="0.47"/>
      <path id="Контур_284" data-name="Контур 284" d="M300,393.1c-5.951-3.172-22.124,1.124-27.043,15.327s-3.125,29.783,15.565,31.939c9.145,1.055,13.733-1.309,18.906-18.629,2.186-7.313,2.971-12.471,2.679-16.281C309.587,398.593,305.553,396.084,300,393.1Z" transform="translate(-265.258 -150.072)" fill="#ffc48e"/>
      <path id="Контур_285" data-name="Контур 285" d="M309.47,396.052c3.118,1.717,6.258,4.118,7.544,7.567,1.362,3.649-.262,7.636-1.216,11.193-1.917,7.144-3.78,14.4-8.306,20.423-2.132,2.825-5.073,5.519-8.783,5.689-.677,0-.677,1.093,0,1.055,7.251-.339,11.662-8.352,14.157-14.218a85.533,85.533,0,0,0,3.657-11.547,61.446,61.446,0,0,0,1.971-8.106,10.115,10.115,0,0,0-.285-4.242c-1.232-3.972-4.7-6.774-8.206-8.706-.593-.331-1.124.577-.531.908Z" transform="translate(-271.607 -150.756)"/>
      <path id="Контур_286" data-name="Контур 286" d="M266.168,505.158c2.656-6.3,10.377-6.282,17.2-5.735s24.025,1.37,24.841,18.3-6.42,18.768-18.983,20.138-21.423,3.079-24.148-7.852S263.99,510.347,266.168,505.158Z" transform="translate(-263.654 -174.724)" fill="#ffc48e"/>
      <path id="Контур_287" data-name="Контур 287" d="M296.526,500.563c4.4.816,8.907,1.847,12.609,4.5,3.341,2.394,6.928,6.289,6.32,10.708-.092.677.962.67,1.055,0,.593-4.5-2.8-8.506-6.158-11.077-3.934-3.079-8.768-4.257-13.579-5.142-.662-.123-.947.893-.277,1.016Z" transform="translate(-271.126 -174.801)"/>
      <path id="Контур_288" data-name="Контур 288" d="M288.122,536.451c-3.156-4.057-4.026-23.864-1.332-28.221,0,0,20.015.331,21.377,2.5s2.663,21.185-1.886,23.494C299.561,537.582,288.122,536.451,288.122,536.451Z" transform="translate(-268.611 -176.802)" fill="#fff7e7" opacity="0.47"/>
      <path id="Контур_289" data-name="Контур 289" d="M1.278,0H89.635a1.278,1.278,0,0,1,1.278,1.278V13.956a7.49,7.49,0,0,1-7.49,7.49H7.49A7.49,7.49,0,0,1,0,13.956V1.278A1.278,1.278,0,0,1,1.278,0Z" transform="matrix(0.969, 0.245, -0.245, 0.969, 149.828, 14.151)" fill="#413847"/>
      <circle id="Эллипс_31" data-name="Эллипс 31" cx="2.61" cy="2.61" r="2.61" transform="translate(216.378 41.331)" fill="none" stroke="#fff" stroke-miterlimit="10" stroke-width="0.18"/>
      <circle id="Эллипс_32" data-name="Эллипс 32" cx="7.49" cy="7.49" r="7.49" transform="translate(94.327 359.694)" fill="none" stroke="#fff" stroke-miterlimit="10" stroke-width="0.23"/>
      <circle id="Эллипс_33" data-name="Эллипс 33" cx="2.61" cy="2.61" r="2.61" transform="translate(203.584 37.951)" fill="#fff"/>
      <path id="Контур_290" data-name="Контур 290" d="M274.14,426.229s-.77-9.238,2.894-17.143,8.429-10.623,12.317-10.546c2.917.054,8.352,2.078,9.284,4.488,2.309,5.989-3.533,18.614-6.435,25.734,0,0-1.209,9.33-9.646,6.428C282.577,435.189,275.194,431.764,274.14,426.229Z" transform="translate(-266.053 -151.551)" fill="#fff7e7" opacity="0.47"/>
      <path id="Контур_291" data-name="Контур 291" d="M606.067,306.971a25.142,25.142,0,0,1-12.586,4.842c-1.478.1-1.909-1.54-2.433-2.617s-1.032-2.194-1.54-3.3q-1.539-3.51-2.833-7.121c-.223-.631-1.247-.362-1.016.277.955,2.663,2.009,5.3,3.156,7.875.57,1.27,1.155,2.533,1.771,3.78.446.916.908,1.917,2,2.132a9.508,9.508,0,0,0,3.441-.346,27.088,27.088,0,0,0,3.787-1.047,27.367,27.367,0,0,0,6.767-3.564c.547-.393,0-1.309-.539-.908Z" transform="translate(-337.774 -128.501)"/>
      <path id="Контур_292" data-name="Контур 292" d="M595.547,266.26s-12.478,1.747-14.118,3.156,5.535,32.478,12.378,33.986,12.963-5.781,12.963-5.781S602.452,277.191,595.547,266.26Z" transform="translate(-336.753 -121.1)" fill="#fff7e7" opacity="0.5"/>
      <path id="Контур_293" data-name="Контур 293" d="M607.057,381.378a41.99,41.99,0,0,0,13.087-3.626c.616-.277.077-1.193-.539-.908a40.709,40.709,0,0,1-12.555,3.479c-.67.069-.677,1.124,0,1.055Z" transform="translate(-342.589 -146.544)"/>
      <path id="Контур_294" data-name="Контур 294" d="M613.218,387.734a20.553,20.553,0,0,0,9.03-2.941c.577-.354.046-1.27-.531-.908a19.523,19.523,0,0,1-8.468,2.794c-.67.054-.677,1.116,0,1.055Z" transform="translate(-344.016 -148.158)"/>
      <path id="Контур_295" data-name="Контур 295" d="M146.179,516.855,87.19,486.61l48.536,10.731Z" transform="translate(-20.075 -110.604)" fill="#d3875e"/>
      <text id="МТУСИ" transform="matrix(0.97, 0.24, -0.24, 0.97, 119.669, 66.043)" fill="#306" font-size="29" font-family="Calibri" letter-spacing="0.2em"><tspan x="0" y="0">М</tspan><tspan y="0" letter-spacing="0.21em">Т</tspan><tspan y="0" letter-spacing="0.18em">У</tspan><tspan y="0">СИ</tspan></text>
    </g>
    <path id="Контур_296" data-name="Контур 296" d="M134.71,671.75l-13.51,8.706L137.574,757.4l176.8-34.271-7.367-51.676-22.1.3Z" transform="translate(-27.9 -154.995)" fill="#ffece0"/>
    <path id="Контур_297" data-name="Контур 297" d="M405.471,851.47l176.8-34.264,8.629-2.571a10.777,10.777,0,0,1,13.856,10.354v63.539H403.3S405.471,849.861,405.471,851.47Z" transform="translate(-295.797 -249.075)" fill="#306"/>
    <path id="Контур_298" data-name="Контур 298" d="M317.71,738.58l-176.8,34.271L135.7,748.38l128.964-6.1Z" transform="translate(-31.238 -170.449)" fill="#ecd0b3"/>
    <path id="Контур_299" data-name="Контур 299" d="M557.118,777.892,563.83,818c.108.67,1.124.385,1.016-.277l-6.713-40.114C558.026,776.945,557.01,777.222,557.118,777.892Z" transform="translate(-331.205 -240.568)"/>
    <path id="Контур_300" data-name="Контур 300" d="M572.872,788.926c-2.355,5.165-1.416,11.185,1.478,15.943a13.2,13.2,0,0,0,5.758,5.573,8.421,8.421,0,0,0,7.867-.77,10.423,10.423,0,0,0,4.4-7.837c.069-.677-.985-.67-1.055,0a8.98,8.98,0,0,1-5.389,7.7c-3.31,1.286-6.443,0-8.729-2.517-4.165-4.573-6.089-11.739-3.449-17.528.285-.616-.624-1.155-.908-.531Z" transform="translate(-334.527 -243.204)"/>
    <path id="Контур_301" data-name="Контур 301" d="M418.493,875.7c3.456-.808,6.928-1.54,10.408-2.225q7.636-1.54,15.273-2.979,9.407-1.786,18.829-3.518l21.408-3.926,22.6-4.1,22.855-4.141q10.862-1.971,21.731-3.972,9.815-1.8,19.637-3.649,8.106-1.54,16.166-3.079c3.926-.77,7.844-1.54,11.747-2.432l2.04-.47c.654-.154.377-1.17-.285-1.016-3.449.816-6.928,1.539-10.408,2.225q-7.621,1.54-15.273,2.979-9.414,1.794-18.829,3.518-10.692,1.986-21.4,3.926l-22.57,4.064-22.863,4.149q-10.869,1.978-21.724,3.964-9.823,1.809-19.645,3.649-8.091,1.54-16.166,3.118c-3.918.77-7.844,1.54-11.747,2.44l-2.032.462c-.662.154-.385,1.17.277,1.016Z" transform="translate(-299.151 -255.057)"/>
    <path id="Контур_302" data-name="Контур 302" d="M629.068,831.293c1.07,7.336,1.855,14.726,2.725,22.085,1.17,9.815,2.309,19.63,3.51,29.445.4,3.272.77,6.551,1.262,9.815.092.67,1.109.385,1.016-.277-1.07-7.336-1.855-14.719-2.725-22.085-1.17-9.815-2.309-19.63-3.51-29.445-.4-3.272-.77-6.551-1.263-9.815C629.992,830.346,628.976,830.631,629.068,831.293Z" transform="translate(-347.769 -252.862)"/>
    <path id="Контур_303" data-name="Контур 303" d="M401.92,835.781q-6.6-29.344-11.547-59.012-1.4-8.4-2.664-16.812l-.246.6,11.585-8.86c.531-.408,0-1.324-.531-.908l-11.593,8.853a.57.57,0,0,0-.239.6q4.472,29.737,10.608,59.182,1.74,8.337,3.61,16.635c.154.662,1.17.385,1.016-.277Z" transform="translate(-291.969 -234.456)"/>
  </g>
</svg>
