<svg id="_18-suitcase" data-name="18-suitcase" xmlns="http://www.w3.org/2000/svg" width="134.262" height="110.649" viewBox="0 0 134.262 110.649">
  <path id="Контур_495" data-name="Контур 495" d="M78.32,117.377H55.943a5.334,5.334,0,0,1-5.594-5.03v-5.868L.964,86.3c-.335-.136-.652-.293-.964-.453v51.65a5.334,5.334,0,0,0,5.594,5.03H128.668a5.334,5.334,0,0,0,5.594-5.03V85.846c-.312.162-.629.314-.963.452L83.914,106.48v5.868A5.334,5.334,0,0,1,78.32,117.377Z" transform="translate(0 -31.875)" fill="#306"/>
  <path id="Контур_496" data-name="Контур 496" d="M55.943,60.354H78.32a5.334,5.334,0,0,1,5.594,5.029v3.7l47.069-19.238a5.031,5.031,0,0,0,3.279-4.576V25.148a5.334,5.334,0,0,0-5.594-5.03H89.508V5.03A5.334,5.334,0,0,0,83.914,0H50.348a5.334,5.334,0,0,0-5.594,5.03V20.118H5.594A5.334,5.334,0,0,0,0,25.148V45.266a5.031,5.031,0,0,0,3.279,4.579L50.348,69.08v-3.7A5.334,5.334,0,0,1,55.943,60.354Zm0-50.3H78.32V20.118H55.943Z" transform="translate(0)" fill="#306"/>
</svg>
