<?xml version="1.0" encoding="iso-8859-1"?>
<!-- Generator: Adobe Illustrator 19.0.0, SVG Export Plug-In . SVG Version: 6.00 Build 0)  -->
<svg version="1.1" id="Layer_1" xmlns="http://www.w3.org/2000/svg" xmlns:xlink="http://www.w3.org/1999/xlink" x="0px" y="0px"
	 viewBox="0 0 503.607 503.607" style="enable-background:new 0 0 503.607 503.607;" xml:space="preserve">
<g>
	<g>
		<g>
			<path d="M251.803,386.098c0,23.141,18.826,41.967,41.967,41.967c23.141,0,41.967-18.826,41.967-41.967V226.623h-83.934V386.098z"
				/>
			<path d="M117.508,386.098c0,23.141,18.827,41.967,41.967,41.967c23.141,0,41.967-18.826,41.967-41.967V293.77h-83.934V386.098z"
				/>
			<path d="M470.033,151.082h25.18c4.642,0,8.393-3.76,8.393-8.393v-33.574c0-4.633-3.752-8.393-8.393-8.393h-25.18V58.754h8.393
				c4.642,0,8.393-3.76,8.393-8.393s-3.752-8.393-8.393-8.393h-16.787h-67.148h-16.787c-4.633,0-8.393,3.76-8.393,8.393
				s3.76,8.393,8.393,8.393h8.393v41.967h-50.361V58.754h8.393c4.633,0,8.393-3.76,8.393-8.393s-3.76-8.393-8.393-8.393h-16.787
				h-67.148H243.41c-4.633,0-8.393,3.76-8.393,8.393s3.76,8.393,8.393,8.393h8.393v41.967h-50.361V58.754h8.393
				c4.633,0,8.393-3.76,8.393-8.393s-3.76-8.393-8.393-8.393h-16.787h-67.148h-16.787c-4.633,0-8.393,3.76-8.393,8.393
				s3.76,8.393,8.393,8.393h8.393v41.967H75.541c-8.578,0-17.106,1.494-25.18,4.373V8.393C50.361,3.76,46.6,0,41.967,0H8.393
				C3.76,0,0,3.76,0,8.393v402.885v83.934c0,4.633,3.76,8.393,8.393,8.393h83.934h402.885c4.642,0,8.393-3.76,8.393-8.393
				c0-23.141-18.827-41.967-41.967-41.967H100.05c-3.702-25.676-24.014-45.988-49.689-49.689V176.262
				c0-13.883,11.298-25.18,25.18-25.18h41.967v125.902h83.934V151.082h50.361v58.754h83.934v-58.754h50.361v109.115h83.934V151.082z
				 M83.934,461.639v25.18H16.787v-67.148h25.18C65.108,419.672,83.934,438.499,83.934,461.639z"/>
			<path d="M386.098,386.098c0,23.141,18.827,41.967,41.967,41.967c23.141,0,41.967-18.826,41.967-41.967V276.984h-83.934V386.098z"
				/>
		</g>
	</g>
</g>
<g>
</g>
<g>
</g>
<g>
</g>
<g>
</g>
<g>
</g>
<g>
</g>
<g>
</g>
<g>
</g>
<g>
</g>
<g>
</g>
<g>
</g>
<g>
</g>
<g>
</g>
<g>
</g>
<g>
</g>
</svg>
