<?xml version="1.0" encoding="iso-8859-1"?>
<!-- Generator: Adobe Illustrator 19.0.0, SVG Export Plug-In . SVG Version: 6.00 Build 0)  -->
<svg version="1.1" id="Capa_1" xmlns="http://www.w3.org/2000/svg" xmlns:xlink="http://www.w3.org/1999/xlink" x="0px" y="0px"
	 viewBox="0 0 512 512" style="enable-background:new 0 0 512 512;" xml:space="preserve">
<g>
	<g>
		<path d="M508.875,77.792l-32-32c-3.417-3.406-8.688-4.125-12.833-1.719L389.375,86.74C386.042,88.635,384,92.177,384,96v16.917
			l-71.479,71.469c-15.75-8.979-31.479-13.698-45.854-13.719c-50.229,0-62.646,30.875-71.708,53.427
			C186.521,245.052,181.146,255.99,160,256c-20.284,0-37.977,3.121-53.333,8.674V145.82l68.568-60.949
			c21.354-2.314,38.099-20.238,38.099-42.204C213.333,19.135,194.188,0,170.667,0c-21.953,0-39.882,16.732-42.203,38.086
			l-83.109,93.497c-3.75,4.219-3.563,10.635,0.438,14.625l3.004,3.004C32.802,166.297,0,210.695,0,288v213.333
			C0,507.229,4.771,512,10.667,512s10.667-4.771,10.667-10.667V288c0-70.247,29.109-109.302,42.564-123.686l3.228,3.228
			c2.083,2.073,4.813,3.125,7.542,3.125c2.521,0,5.063-0.896,7.083-2.698l3.583-3.185v110.525
			c-27.464,17.827-42.667,47.406-42.667,87.358c0,33.281,17.197,67.99,42.667,95.62v32.38H74.667
			c-5.896,0-10.667,4.771-10.667,10.667C64,507.229,68.771,512,74.667,512h42.667c5.896,0,10.667-4.771,10.667-10.667
			c0-5.896-4.771-10.667-10.667-10.667h-10.667v-12.504C132.373,498.665,162.734,512,192,512
			c67.792,0,106.667-42.771,106.667-117.333c0-21.146,10.938-26.531,31.896-34.958c22.542-9.063,53.417-21.479,53.417-71.708
			c0-14.375-4.708-30.094-13.708-45.865l71.479-71.469h16.917c3.833,0,7.354-2.052,9.271-5.375l42.667-74.667
			C512.979,86.448,512.271,81.188,508.875,77.792z M188.875,423.542c-2.083,2.083-4.813,3.125-7.542,3.125
			c-2.729,0-5.458-1.042-7.542-3.125l-42.667-42.667c-4.167-4.167-4.167-10.917,0-15.083c4.167-4.167,10.917-4.167,15.083,0
			l42.667,42.667C193.042,412.625,193.042,419.375,188.875,423.542z M245.333,362.667c-29.417,0-53.333-23.927-53.333-53.333
			S215.917,256,245.333,256c29.417,0,53.333,23.927,53.333,53.333S274.75,362.667,245.333,362.667z"/>
	</g>
</g>
<g>
</g>
<g>
</g>
<g>
</g>
<g>
</g>
<g>
</g>
<g>
</g>
<g>
</g>
<g>
</g>
<g>
</g>
<g>
</g>
<g>
</g>
<g>
</g>
<g>
</g>
<g>
</g>
<g>
</g>
</svg>
