<svg id="Capa_1" enable-background="new 0 0 512 512" height="512" viewBox="0 0 512 512" width="512" xmlns="http://www.w3.org/2000/svg"><g><path d="m361.253 164.213c-8.146-1.511-15.975 3.859-17.49 12.004l-2.042 10.979-46.093 33.04-24.628-52.638v-13.193c0-8.284-6.716-15-15-15s-15 6.716-15 15v13.193l-24.629 52.639-46.073-33.026-2.133-11.468c-1.515-8.145-9.342-13.517-17.49-12.004-8.145 1.515-13.519 9.345-12.004 17.49l3.236 17.401 16.156 86.864c-4.394 2.616-7.346 7.399-7.346 12.884 0 8.284 6.716 15 15 15h180.565c8.284 0 15-6.716 15-15 0-5.485-2.953-10.268-7.347-12.884l15.998-86.013c.027-.126.064-.248.088-.376l3.236-17.401c1.516-8.146-3.859-15.976-12.004-17.491z"/><g><path d="m.092 186.417c.2-3.219 2.54-5.957 5.688-6.658.946-.21 9.575-2.052 21.22-2.052.666 0 1.344.006 2.027.019 17.568.333 32.236 5.109 42.419 13.81.707.604 1.395 1.238 2.071 1.89 2.99-15.029 7.903-29.779 14.731-43.929-14.507-7.863-24.838-18.145-29.931-29.854-5.341-12.283-5.618-27.706-.798-44.603 3.524-12.355 8.533-21.262 8.745-21.637 1.291-2.278 3.716-3.694 6.33-3.694.569 0 1.14.068 1.703.203.417.1 10.336 2.505 21.785 8.356 15.646 7.996 26.741 18.715 32.083 30.997 5.341 12.283 5.618 27.707.798 44.603-3.435 12.041-8.266 20.784-8.705 21.568-.092.186-.17.376-.27.559-22.64 41.403-24.845 89.933-6.05 133.147 20.093 46.202 61.706 79.295 111.313 88.522 8.476 1.577 14.068 9.726 12.492 18.201-.005.029-.014.056-.02.085-.421 4.026-1.462 11.319-3.952 19.726-4.991 16.847-13.494 29.718-24.587 37.223-9.083 6.144-21.121 9.391-34.81 9.391-2.883 0-5.875-.143-8.891-.426-12.564-1.177-21.856-4.278-22.872-4.627-3.051-1.049-5.069-4.032-4.908-7.249.055-1.077.64-10.874 4.221-22.956 4.991-16.847 13.494-29.719 24.588-37.223.019-.013.039-.025.058-.037-13.463-7.206-25.933-16.069-37.149-26.345-2.945 1.94-6.511 4.096-10.577 6.18-11.636 5.962-22.884 8.986-33.429 8.986-3.059 0-6.055-.264-8.929-.787l-.009-.002c-.518-.094-1.032-.197-1.541-.308-13.087-2.853-25.758-11.65-36.643-25.443-7.966-10.092-12.255-19.356-12.434-19.747-1.346-2.932-.58-6.452 1.862-8.556.816-.703 8.3-7.033 19.525-12.786 11.637-5.963 22.884-8.986 33.43-8.986 1.662 0 3.302.087 4.917.242-.092-.21-.192-.416-.284-.626-5.456-12.545-9.43-25.462-11.961-38.54-2.148.132-4.465.217-6.927.217-.668 0-1.345-.006-2.035-.019-17.567-.333-32.236-5.109-42.418-13.809-10.184-8.702-17.19-22.446-20.259-39.746-2.244-12.652-1.643-22.85-1.617-23.28z"/><path d="m511.908 186.417c-.2-3.219-2.54-5.957-5.688-6.658-.946-.21-9.575-2.052-21.221-2.052-.666 0-1.343.006-2.027.019-17.568.333-32.236 5.109-42.419 13.81-.707.604-1.395 1.238-2.071 1.89-2.99-15.029-7.903-29.779-14.731-43.929 14.507-7.863 24.838-18.145 29.931-29.854 5.341-12.283 5.618-27.706.798-44.603-3.524-12.355-8.533-21.262-8.745-21.637-1.291-2.278-3.716-3.694-6.33-3.694-.569 0-1.14.068-1.703.203-.417.1-10.336 2.505-21.785 8.356-15.646 7.996-26.741 18.715-32.083 30.997-5.341 12.283-5.618 27.707-.798 44.603 3.435 12.041 8.266 20.784 8.706 21.568.092.186.169.376.27.559 22.64 41.403 24.846 89.933 6.05 133.147-20.094 46.202-61.706 79.295-111.313 88.522-8.476 1.577-14.068 9.726-12.492 18.201.005.029.014.056.02.085.421 4.026 1.462 11.319 3.952 19.726 4.991 16.847 13.494 29.718 24.587 37.223 9.083 6.144 21.121 9.391 34.81 9.391 2.883 0 5.875-.143 8.891-.426 12.564-1.177 21.856-4.278 22.872-4.627 3.051-1.049 5.069-4.032 4.908-7.249-.055-1.077-.64-10.874-4.22-22.956-4.991-16.847-13.494-29.719-24.588-37.223-.019-.013-.039-.025-.058-.037 13.463-7.206 25.933-16.069 37.149-26.345 2.945 1.94 6.511 4.096 10.577 6.18 11.636 5.962 22.884 8.986 33.429 8.986 3.059 0 6.055-.264 8.929-.787l.009-.002c.518-.094 1.032-.197 1.541-.308 13.087-2.853 25.758-11.65 36.643-25.443 7.966-10.092 12.255-19.356 12.434-19.747 1.346-2.932.58-6.452-1.862-8.556-.816-.703-8.3-7.033-19.525-12.786-11.637-5.963-22.884-8.986-33.43-8.986-1.662 0-3.302.087-4.917.242.092-.21.192-.416.284-.626 5.456-12.545 9.43-25.462 11.961-38.54 2.148.132 4.465.217 6.927.217.668 0 1.345-.006 2.035-.019 17.567-.333 32.236-5.109 42.418-13.809 10.184-8.702 17.19-22.446 20.259-39.746 2.243-12.652 1.642-22.85 1.616-23.28z"/></g></g></svg>