<svg id="Слой_1" data-name="Слой 1" xmlns="http://www.w3.org/2000/svg" viewBox="0 0 339.03 796.86">
  <defs>
    <style>
      .cls-1 {
        fill: #444;
      }

      .cls-2 {
        fill: #c1b4cf;
      }

      .cls-3 {
        fill: #ffc48e;
      }

      .cls-4 {
        fill: #ffece0;
      }

      .cls-5 {
        fill: #306;
      }
    </style>
  </defs>
  <g>
    <path d="M639.74,777.56c0,6.56,6.25,21.47,4.08,28s-1.78,15.83-5.41,20.18-5,14.83,2.9,17.41c0,0,22.49-5.08,32.64-43.52s-1.28-2.52,6-20.65,2.17-23.21,2.17-23.21-14.1-16.35-22.28-16.41S639.74,777.56,639.74,777.56Z" transform="translate(-344.8 -89.65)"/>
    <polygon points="18.62 234.58 0 218.69 1.11 214.98 18.91 212.38 41.52 230.18 18.62 234.58"/>
    <path d="M502,847.45c1.13,6.28,4.5,8.64,5.71,19A10.51,10.51,0,0,1,499.15,878c-18.62,3.35-35,9.53-65.8,8.43-8.14-.29-30.8-5.23-30.8-5.23s-.87-9.88,4.65-11.62,20.63-2.33,21.5-2.62,18.89-9.29,22.66-12.2-.57-5.74,6.41-6S502,847.45,502,847.45Z" transform="translate(-344.8 -89.65)"/>
    <path class="cls-1" d="M505.05,713.12s41.92,23.2,46.38,27.21,76.74,40.9,76.74,40.9,8,2.68,12.49.89l19.16-42.76s-16.5-14.72-19.62-16.06-92.34-70-121.33-73.15L507,647.71s-7.3,1.63-7.74,6.53S505.05,713.12,505.05,713.12Z" transform="translate(-344.8 -89.65)"/>
    <path d="M511.74,686.68c8.22,3.94,16.17,8.45,24.08,13,10.83,6.17,21.55,12.53,32.24,18.94q17,10.21,33.91,20.64Q616.32,748,630.61,757l17.16,10.72,1,.6c.3.19.58-.28.28-.47l-15.2-9.5q-13.81-8.62-27.66-17.16-16.78-10.35-33.65-20.54c-10.84-6.53-21.7-13-32.67-19.31-8.41-4.84-16.85-9.66-25.54-14-.76-.37-1.51-.75-2.28-1.11-.31-.15-.59.32-.27.47Z" transform="translate(-344.8 -89.65)"/>
    <path d="M529.8,652.78,507,647.71s-7.3,1.63-7.74,6.53,5.8,58.88,5.8,58.88,41.92,23.2,46.38,27.21l-18.8-36.65Z" transform="translate(-344.8 -89.65)"/>
    <path class="cls-1" d="M446.42,485.09c-3.72,9.91-9.25,172.76-6.15,180.81,0,0,11.26,178.93,10,182s57.19,1.74,55.46-2.16,6.33-54.36,7.36-63.84c1.67-15.3,19.52-216.75,21.69-222.82s21.64-28.74,29.44-66.87L511.32,487Z" transform="translate(-344.8 -89.65)"/>
    <path d="M564.18,492.17,511.32,487l-64.9-1.89c-1,2.67-1,8.94-2.08,17.18-.32,2.42,29.46-.73,60.77,1.45.66,0,16.26,1.73,16.88,1.79l32.51.54S561.19,510,564.18,492.17Z" transform="translate(-344.8 -89.65)"/>
    <path d="M478.21,496.81c.41,8.39,4,16.06,7.73,23.43,3.86,7.69,7,15.71,10.84,23.4.16.31.63,0,.48-.28-3.73-7.41-6.71-15.17-10.44-22.58s-7.64-15.37-8.06-24c0-.35-.56-.35-.55,0Z" transform="translate(-344.8 -89.65)"/>
    <path d="M483.21,494.11c-.59,7.27,2.64,14,5.53,20.48q4.89,10.9,9.77,21.82c.14.33.62.05.47-.27l-9.36-20.93c-3-6.65-6.47-13.6-5.86-21.1,0-.35-.52-.35-.55,0Z" transform="translate(-344.8 -89.65)"/>
    <path class="cls-2" d="M491.23,233.51c-4.42-.49-11.29-1-15.71,3.43s-39.26,59.88-44.17,94.23c-1.74,12.18,4.39,52.84,4.39,52.84s-17.95,79.33-17.64,84.09c.49,7.36-1.47,22.08,13.74,26.5s37.79,0,37.79,0l35.83-211.52Z" transform="translate(-344.8 -89.65)"/>
    <path class="cls-3" d="M421.45,360.77s-17.67,1-26-3.44-17.63-13.73-17.63-13.73-3.1-1.5-4.33-2.14c-6.8-3.56-3.92-7.64-3.92-7.64s-9.48-1.86-8.63-6.52a4.67,4.67,0,0,1,2.5-3.07s-3.65-3.45-3.84-4.8-.19-3.45,3.26-3.45a28.5,28.5,0,0,1,8.06,1.73l12.27,2.49s-1.92-1.92,1.92-3.07,19.75-2.11,22.24-2.87,20.91,13.42,20.91,13.42Z" transform="translate(-344.8 -89.65)"/>
    <path d="M363.43,324.23a4.67,4.67,0,0,0-2.5,3.07c-.85,4.66,8.63,6.52,8.63,6.52s-2.88,4.08,3.92,7.64c1.23.64,4.33,2.14,4.33,2.14s9.29,9.32,17.63,13.73l-8.12-11.56s-8.18-4.16-5.61-8.49h0l-9.46-6.42,19.88.16Z" transform="translate(-344.8 -89.65)"/>
    <path class="cls-3" d="M478.83,222.65,472,206.21l-7.21-2s-2.21-2.3-13-7.71c-1-.5-3.72-5.08-6.9-11.28l-6-1.9a4.42,4.42,0,0,1-3.1-4.26c.05-5.11,0-14.66-.63-17-.92-3.22-11.48-27.09-6.88-37.65S452.66,88.13,483,97.77s32.14,44.08,27.09,60.61l8.72,25.25Z" transform="translate(-344.8 -89.65)"/>
    <path d="M442.81,160.3a9,9,0,0,1,.48,2.13,9.48,9.48,0,0,0,.5,2.23c.11.33.64.19.53-.15a8.86,8.86,0,0,1-.48-2.13,9.29,9.29,0,0,0-.5-2.22c-.11-.34-.64-.19-.53.14Z" transform="translate(-344.8 -89.65)"/>
    <polygon points="173.97 93.97 134.03 133 127.24 116.56 173.97 93.97"/>
    <path d="M414.65,113.6c-10.46,9.79,2.65,24.85,11.83,23.93s28.73-13.71,35.15-15.54l3.52,4.87a7.28,7.28,0,0,0,5.89,3h5.19S481.49,145.4,483,148c1,1.58,8.7-3.62,13,0,8.27,6.88,15,23.48,15,23.48L515,159.05s6-20.6,4.16-29.78S510.88,98.08,499,92.57,443.09,87,414.65,113.6Z" transform="translate(-344.8 -89.65)"/>
    <path class="cls-4" d="M440.59,365.19s-.23-1.45-.58-3.84c-1.36-9.15,2.71-29.66,3.88-37.44,1.47-9.81,32-89.27,32-89.27s-5.4-14.72-5.4-18.16,52-45.15,52-45.15l7.85,12.27L527,197.34Z" transform="translate(-344.8 -89.65)"/>
    <path class="cls-4" d="M434.85,369.25l-14.79-1.65s3.73-40.77,7-41.86S444.71,332,444.71,332Z" transform="translate(-344.8 -89.65)"/>
    <polygon points="99.91 242.34 90.05 279.59 75.26 277.95 83.78 268.17 99.91 242.34"/>
    <path class="cls-5" d="M535,183.47s-23,11.88-40.76,31.32c-5.15,5.65.21,8.62-7.56,20.12-18.94,28.06-43.88,92.24-43.88,92.24s-9.15,30.88-10.87,73.76-6.62,88.54-6.62,88.54,19.77,6.36,36.35,6.36,98.2-.57,102.91-.57c8.5,0,13.82-6.22,14.3-10.86.88-8.61-7.67-53.95-12.82-80.83S575.43,258,580,245.4s-12-29.73-32.59-40c0,0-6.77-3.55-7.8-6.15Z" transform="translate(-344.8 -89.65)"/>
    <path d="M576.39,393.76c-3.34,3.76-18.78,5-22.12,4.18s-44.65-3.76-61.34-5.43-45.49-12.94-52.59-14.19-9.18-5.84-9.18-5.84l.41,17.52A225.45,225.45,0,0,0,471,398.86c23.37,3.22,78.15,8.86,78.15,8.86l16.12-4Z" transform="translate(-344.8 -89.65)"/>
    <path d="M520.4,324.38l4.84,19.11-23.54-2.1s10.24-.56,12.66-3.22S520.4,324.38,520.4,324.38Z" transform="translate(-344.8 -89.65)"/>
    <path class="cls-5" d="M559.7,219.32c-12.56-.66-35.47,14.61-40.48,48.83S525.06,347,525.06,347a27.51,27.51,0,0,1-20.45.42c-11.27-4.17-38-12.52-44.65-15s-13.06-7.19-17.17-5.27S430.18,376,430.18,376a71.25,71.25,0,0,0,10.16,2.34c7.1,1.25,35.89,12.52,52.59,14.19s58,4.59,61.34,5.43,18.78-.42,22.12-4.18,15.86-76.67,15.86-89.31C592.25,236,575.56,220.15,559.7,219.32Z" transform="translate(-344.8 -89.65)"/>
    <path class="cls-3" d="M492.93,148.63c2.35-7,2.69-10.73,8.72-11.4S512.05,148.29,510,155s-5.7,12.41-11.74,11.07Z" transform="translate(-344.8 -89.65)"/>
    <path d="M505.3,498.13c-2.45,23.27-7.86,46.06-12.58,68.94-2.35,11.34-4.52,22.72-6.06,34.2s-2.42,23.18-3,34.82c-2.42,47.79-2.6,95.76-1.16,143.59q1.2,40.23,4.11,80.37c0,.35.58.36.55,0q-5.19-71.67-4.95-143.6.12-35.91,1.61-71.81c.5-11.88,1.15-23.76,2.45-35.58s3.3-23.43,5.6-35c5-25.23,11.29-50.27,14-75.9,0-.35-.51-.34-.55,0Z" transform="translate(-344.8 -89.65)"/>
    <path d="M453.12,843.64c13-.57,25.94-.82,38.92-1.24,2.94-.09,5.88-.19,8.82-.32.35,0,.35-.56,0-.54-13,.56-25.95.81-38.92,1.23-2.94.1-5.88.19-8.82.32-.35,0-.36.57,0,.55Z" transform="translate(-344.8 -89.65)"/>
    <path d="M636.72,782.44l13-31.64c.13-.32-.4-.46-.53-.14l-13,31.63c-.13.33.4.47.53.15Z" transform="translate(-344.8 -89.65)"/>
    <path d="M483,148l1.39,11.57a17.62,17.62,0,0,1-.84,7.86l-5.06,14.54a17.49,17.49,0,0,1-7.78,9.41l-1.71-.17-7.93-6.7-14.91,3.39,2.59,4.3,13.15-1.2,5,5.54-2.24,7.57,7.37,2.14L487.72,191A17.5,17.5,0,0,0,493,178.74l.68-33.61Z" transform="translate(-344.8 -89.65)"/>
    <path d="M515.49,292.12A380.28,380.28,0,0,0,524,343.2a.28.28,0,0,0,.53-.15A379.65,379.65,0,0,1,516,292.12c0-.34-.58-.35-.55,0Z" transform="translate(-344.8 -89.65)"/>
    <path d="M446.48,329.17c10.81,2.62,21.73,4.83,32.63,7C492,338.74,505,341.28,518,342.93c2.48.32,5,.6,7.46.73a16.7,16.7,0,0,0,4.41-.15c.34-.08.2-.61-.15-.53a14.37,14.37,0,0,1-3.82.15c-2.09-.09-4.17-.3-6.24-.54-5.93-.7-11.84-1.67-17.73-2.69-13.45-2.32-26.85-5-40.2-7.86-5.06-1.09-10.12-2.18-15.14-3.4-.35-.08-.49.45-.15.53Z" transform="translate(-344.8 -89.65)"/>
    <path d="M510.69,242.35c7.46-5.52,15-11,22.75-16.07,6.12-4,12.49-8.19,19.4-10.76,2.15-.8,4.8-1.72,7.1-1.05a.28.28,0,0,0,.15-.53,10.32,10.32,0,0,0-5.76.49,48.8,48.8,0,0,0-8.32,3.64,207.25,207.25,0,0,0-22.16,14.08q-6.78,4.77-13.44,9.72c-.28.21,0,.69.28.48Z" transform="translate(-344.8 -89.65)"/>
    <path d="M504.92,265.65c3.36,8.76,7,17.42,10.32,26.18.13.32.66.18.53-.15-3.35-8.76-7-17.42-10.32-26.18-.12-.32-.65-.18-.53.15Z" transform="translate(-344.8 -89.65)"/>
    <path d="M450.92,379.73a218.31,218.31,0,0,1,4.53-41.49c.08-.35-.45-.49-.52-.15a218.28,218.28,0,0,0-4.56,41.64c0,.35.54.35.55,0Z" transform="translate(-344.8 -89.65)"/>
    <path d="M438.79,374.29a3.79,3.79,0,0,0,4.56,2.2,3.39,3.39,0,0,0,2.06-4.48,3.48,3.48,0,0,0-2.09-2.21.28.28,0,0,0-.34.19l-.46,2.71c-.06.35.47.5.53.15l.46-2.71-.33.19a3.23,3.23,0,0,1,1.77,3.9,2.84,2.84,0,0,1-3.76,1.66,2.91,2.91,0,0,1-1.87-1.75c-.11-.33-.64-.19-.53.15Z" transform="translate(-344.8 -89.65)"/>
    <path d="M493,227.36a49.82,49.82,0,0,1,6-5.66c2.93-2.47,6-4.81,9.05-7.09a200,200,0,0,1,17.65-11.93,73.11,73.11,0,0,1,11-4.8c.33-.13.19-.66-.14-.53a77,77,0,0,0-10.09,4.23c-2.73,1.53-5.36,3.24-8,5-6.46,4.31-12.8,8.88-18.8,13.81a54.88,54.88,0,0,0-7.1,6.61c-.22.27.16.66.39.39Z" transform="translate(-344.8 -89.65)"/>
    <path d="M437.93,420c-2.11,2.75.3,7.48,3.86,6.95a4.78,4.78,0,0,0,3.8-3.67,3.88,3.88,0,0,0-2.07-4.22,4.49,4.49,0,0,0-5.15.45c-.26.24.13.62.39.38,2.16-2,6.45-.42,6.37,2.67a4.22,4.22,0,0,1-2.85,3.71,3.35,3.35,0,0,1-3.89-1.5,4,4,0,0,1,0-4.49c.22-.28-.26-.56-.47-.28Z" transform="translate(-344.8 -89.65)"/>
    <path d="M487.46,419h38.28a.28.28,0,0,0,0-.55H487.46a.28.28,0,0,0,0,.55Z" transform="translate(-344.8 -89.65)"/>
    <path d="M486.5,423.59c.74,4.78.86,9.7,1.13,14.52q.47,8.31.8,16.64l.15,3.6a.26.26,0,0,0,.14.24,43.71,43.71,0,0,0,8.61,3,38.62,38.62,0,0,0,18.07.59,26.1,26.1,0,0,0,10.46-5.08c.28-.23-.11-.61-.39-.39-10,8-24.05,6.65-35.18,2-.4-.16-.79-.37-1.19-.52,0,0,0,.33,0-.12a23.67,23.67,0,0,0-.17-3.94q-.33-7.86-.76-15.73c-.28-5-.4-10-1.16-14.94,0-.34-.58-.2-.53.15Z" transform="translate(-344.8 -89.65)"/>
    <path d="M528.85,456.42c-.09-6.79-.09-13.57-.11-20.36q0-7.5,0-15a.28.28,0,0,0-.55,0c0,11.29,0,22.58.1,33.88,0,.49,0,1,0,1.47a.28.28,0,0,0,.55,0Z" transform="translate(-344.8 -89.65)"/>
    <path d="M491.05,429.32H523a.28.28,0,0,0,0-.55h-31.9a.28.28,0,0,0,0,.55Z" transform="translate(-344.8 -89.65)"/>
    <path d="M447.54,695.78l7.72-6.94c.26-.24-.13-.62-.39-.39l-7.71,6.94c-.27.23.12.62.38.39Z" transform="translate(-344.8 -89.65)"/>
    <path d="M448.32,685.75l4.62-3.87c.27-.22-.12-.61-.39-.38l-4.62,3.86c-.27.23.12.61.39.39Z" transform="translate(-344.8 -89.65)"/>
    <path d="M364.72,324.83c11,3.72,22.58,5.61,33.9,7.89.35.07.49-.46.15-.53-11.32-2.28-22.95-4.17-33.91-7.89-.33-.11-.48.42-.14.53Z" transform="translate(-344.8 -89.65)"/>
    <path d="M370.45,334c4.39,1.49,8.9,2.65,13.4,3.75a84,84,0,0,0,15.4,2.76c.36,0,.36-.53,0-.55-5.25-.27-10.49-1.57-15.59-2.82-4.38-1.08-8.78-2.21-13.06-3.66-.34-.12-.48.41-.15.52Z" transform="translate(-344.8 -89.65)"/>
    <path d="M379.28,343.62a60.42,60.42,0,0,0,9.85,2.29c3.26.56,6.55,1,9.84,1.34.36,0,.35-.51,0-.55-3.34-.3-6.67-.79-10-1.37a59.11,59.11,0,0,1-9.57-2.24c-.34-.12-.48.41-.15.53Z" transform="translate(-344.8 -89.65)"/>
    <path d="M380.82,319.34A213.53,213.53,0,0,0,409,322.73c.36,0,.36-.53,0-.55a211.61,211.61,0,0,1-28-3.37c-.34-.06-.49.47-.14.53Z" transform="translate(-344.8 -89.65)"/>
    <path d="M436.54,152.66a45.81,45.81,0,0,1,15.89-4.59c.35,0,.35-.57,0-.54a46.52,46.52,0,0,0-16.17,4.65c-.31.15,0,.63.28.48Z" transform="translate(-344.8 -89.65)"/>
    <path d="M444.41,327.25c9.18-26.5,19.22-52.8,33.48-77Q484,239.86,491,230.08c.2-.29-.27-.57-.48-.28-16.3,22.84-28.4,48.05-38.31,74.22-2.9,7.65-5.64,15.36-8.31,23.09-.12.33.41.47.53.14Z" transform="translate(-344.8 -89.65)"/>
    <path d="M490.4,225.23c.91-1.5,1-3.19,1.26-4.87a10.76,10.76,0,0,1,3.11-5.49c2.8-3,5.83-5.73,8.85-8.45a171.4,171.4,0,0,1,18.69-14.65c3.87-2.61,7.84-5.05,11.89-7.36.31-.17,0-.65-.28-.47a182.14,182.14,0,0,0-38.84,29.82,14.55,14.55,0,0,0-3.41,4.57c-.89,2.14-.52,4.61-1.75,6.62-.18.3.29.58.48.28Z" transform="translate(-344.8 -89.65)"/>
    <path d="M474.31,218.7a5.58,5.58,0,0,1,.25-2.75l-.4.16c2.72,1.55,5.49,3,8.21,4.59,1.6.91,3.19,1.84,4.75,2.81a21.69,21.69,0,0,1,3.25,2.3c.26.23.65-.15.39-.39a21.59,21.59,0,0,0-3.14-2.24c-1.57-1-3.18-1.93-4.79-2.85-2.78-1.59-5.61-3.11-8.4-4.69a.28.28,0,0,0-.4.16,6.28,6.28,0,0,0-.25,3c.06.35.59.2.53-.14Z" transform="translate(-344.8 -89.65)"/>
    <path d="M474.05,218.77a5.47,5.47,0,0,1,.25-2.89c2.85,1.63,13.86,7.49,16.26,9.73,0,0,2.16,3.24-1.44,7.2Z" transform="translate(-344.8 -89.65)"/>
    <path d="M419.8,359.86a165.05,165.05,0,0,1,7.06-34.28l-.34.19a57.76,57.76,0,0,1,13.7,5.14c.31.16.59-.31.28-.48a58.86,58.86,0,0,0-13.83-5.19.29.29,0,0,0-.34.19,166.61,166.61,0,0,0-7.08,34.43c0,.35.52.35.55,0Z" transform="translate(-344.8 -89.65)"/>
  </g>
</svg>
