<svg xmlns="http://www.w3.org/2000/svg" width="195.051" height="55.332" viewBox="0 0 195.051 55.332">
  <path id="Instagram_text" d="M34.037,48.514c-3.992,1.671-8.381,6.392-9.767,12.318-1.755,7.508,5.55,10.683,6.149,9.642.705-1.223-1.309-1.637-1.724-5.533-.536-5.032,1.8-10.654,4.747-13.121.547-.458.521.18.521,1.36,0,2.11-.117,21.051-.117,25,0,5.349-.221,7.038-.618,8.707-.4,1.691-1.048,2.834-.559,3.275.547.492,2.884-.679,4.236-2.567A14.075,14.075,0,0,0,39.2,79.665c.123-3.559.118-9.208.123-12.429,0-2.955.05-11.607-.052-16.808-.025-1.276-3.563-2.614-5.233-1.915M175.8,73.547a16.342,16.342,0,0,1-1.508,6.488c-1.479,2.968-4.548,3.89-5.851-.377a24.11,24.11,0,0,1-.233-9.456c.52-3.306,1.971-5.8,4.374-5.578,2.37.223,3.479,3.276,3.218,8.923ZM135.845,90.8c-.032,4.621-.759,8.672-2.319,9.848-2.212,1.668-5.185.417-4.569-2.955.545-2.984,3.121-6.031,6.894-9.754,0,0,.008.849-.006,2.86Zm-.6-17.28a18.286,18.286,0,0,1-1.508,6.515c-1.479,2.968-4.57,3.9-5.851-.377a21.426,21.426,0,0,1-.233-9.079c.562-3.089,1.926-5.955,4.374-5.955,2.38,0,3.554,2.611,3.218,8.9ZM112.1,73.482a16.524,16.524,0,0,1-1.508,6.554c-1.519,2.948-4.525,3.883-5.851-.377-.956-3.071-.63-7.259-.233-9.522.59-3.357,2.067-5.737,4.374-5.512,2.369.231,3.521,3.276,3.218,8.857Zm106.072,3.133c-.579,0-.843.6-1.062,1.6-.758,3.494-1.555,4.283-2.583,4.283-1.148,0-2.18-1.73-2.446-5.193a115.621,115.621,0,0,1,.092-12.723c.054-1.025-.228-2.038-2.976-3.037-1.183-.429-2.9-1.062-3.757,1A51.425,51.425,0,0,0,201.847,74.9c-.012.1-.131.117-.152-.11a95.944,95.944,0,0,1-.5-10,3,3,0,0,0-1.485-2.862c-.8-.508-3.247-1.406-4.126-.337-.762.874-1.644,3.226-2.561,6.014-.745,2.266-1.264,3.8-1.264,3.8s.01-6.114.019-8.433A1.188,1.188,0,0,0,191,61.75a16.285,16.285,0,0,0-3.1-.631c-.84,0-1.046.47-1.046,1.154,0,.09-.133,8.05-.133,13.616,0,.242,0,.506,0,.786-.465,2.558-1.972,6.031-3.612,6.031s-2.416-1.452-2.416-8.087c0-3.871.116-5.554.173-8.354.033-1.613.1-2.851.094-3.132-.012-.862-1.5-1.3-2.2-1.457a6.49,6.49,0,0,0-1.775-.2,1.108,1.108,0,0,0-1.142,1.08c0,.324,0,.939,0,.939a6.407,6.407,0,0,0-3.17-2.57,6.1,6.1,0,0,0-7.031,2.652,16.13,16.13,0,0,0-2.859,8.173,24.255,24.255,0,0,0,.3,7.426c-.579,2.5-1.653,3.528-2.83,3.528-1.708,0-2.947-2.788-2.8-7.61a43.723,43.723,0,0,1,1.423-8.617,2.79,2.79,0,0,0-.547-2.78c-.553-.632-1.731-.954-3.424-.557-1.206.283-2.931.587-4.509.821a9.13,9.13,0,0,0,.173-1.05c.41-3.512-3.406-3.227-4.624-2.105a4.321,4.321,0,0,0-1.409,2.88A3.4,3.4,0,0,0,146.081,67a34.292,34.292,0,0,1-3.608,8.974,38.733,38.733,0,0,1-2.25,3.533q0-.615-.007-1.227c-.018-5.8.059-10.372.093-12.019.033-1.613.1-2.818.094-3.1-.009-.63-.377-.868-1.143-1.17a8.11,8.11,0,0,0-2.308-.515c-1.048-.082-1.679.474-1.663,1.131,0,.124,0,.886,0,.886a6.407,6.407,0,0,0-3.17-2.57,6.1,6.1,0,0,0-7.031,2.652,17.492,17.492,0,0,0-2.859,8.146,24.974,24.974,0,0,0,.147,6.987c-.395,1.952-1.531,3.993-2.815,3.993-1.642,0-2.576-1.452-2.576-8.087,0-3.871.116-5.554.173-8.354.033-1.613.1-2.851.094-3.132-.012-.862-1.5-1.3-2.2-1.457a6.382,6.382,0,0,0-1.833-.194,1.179,1.179,0,0,0-1.081,1.039V63.5a6.407,6.407,0,0,0-3.17-2.57c-2.484-.737-5.061-.073-7.031,2.652-1.284,1.777-2.324,3.747-2.859,8.107a27.315,27.315,0,0,0-.214,3.543c-.512,3.132-2.774,6.742-4.624,6.742-1.083,0-2.114-2.1-2.114-6.576,0-5.962.369-14.451.431-15.269,0,0,2.338-.04,2.791-.045,1.166-.013,2.222.015,3.775-.065.779-.04,1.53-2.836.726-3.182A27.818,27.818,0,0,0,95.9,56.52c-.859-.019-3.249-.2-3.249-.2s.214-5.634.264-6.23c.042-.5-.6-.751-.968-.906a13.26,13.26,0,0,0-2.645-.755c-1.311-.271-1.906-.006-2.022,1.1-.175,1.68-.266,6.6-.266,6.6-.962,0-4.249-.188-5.212-.188-.894,0-1.86,3.846-.623,3.893,1.423.055,3.9.1,5.545.152,0,0-.073,8.628-.073,11.292,0,.283,0,.556,0,.821a13.026,13.026,0,0,1-4.09,7.261c.684-3.119-.713-5.461-3.231-7.444-.927-.731-2.758-2.114-4.807-3.629a12.369,12.369,0,0,0,2.239-3.522c.746-1.666.778-3.574-1.052-3.994a5.47,5.47,0,0,0-6.26,3.9,4.518,4.518,0,0,0,.86,4.615c.082.1.172.209.264.315-.683,1.316-1.62,3.087-2.414,4.46-2.2,3.814-3.869,6.83-5.128,6.83-1.006,0-.992-3.062-.992-5.93,0-2.472.183-6.188.328-10.036a2.8,2.8,0,0,0-1.655-2.654,7.434,7.434,0,0,0-2.832-1.183c-1.2,0-4.658.163-7.927,9.618-.412,1.192-1.221,3.363-1.221,3.363L48.8,62.7a.792.792,0,0,0-.467-.7,8.069,8.069,0,0,0-3.33-.911q-.935,0-.934.868l-.114,17.788a26.148,26.148,0,0,0,.169,3.618,3.792,3.792,0,0,0,.616,1.586,1.766,1.766,0,0,0,1.084.693c.473.1,3.066.43,3.2-.56a36.431,36.431,0,0,1,1.529-7.262c2.119-7.457,4.883-11.1,6.182-12.388.227-.226.486-.239.474.13-.055,1.635-.25,5.72-.382,9.191-.352,9.288,1.338,11.01,3.753,11.01,1.847,0,4.451-1.836,7.243-6.482,1.74-2.9,3.43-5.735,4.644-7.781.846.783,1.8,1.626,2.744,2.527,2.2,2.093,2.929,4.081,2.448,5.968-.367,1.442-1.751,2.928-4.213,1.484-.718-.421-1.024-.747-1.746-1.222a1.24,1.24,0,0,0-1.335-.064,4.749,4.749,0,0,0-1.75,2.674c-.293,1.065.774,1.628,1.88,2.121a14.585,14.585,0,0,0,4.3.852c5.085.17,9.158-2.455,11.994-9.227.508,5.848,2.668,9.157,6.421,9.157,2.509,0,5.025-3.243,6.125-6.434a11.312,11.312,0,0,0,1.387,3.388c2.892,4.582,8.5,3.6,11.321-.3a7.249,7.249,0,0,0,1-1.634,5.3,5.3,0,0,0,5.064,4.958c1.9,0,3.856-.9,5.229-3.988a9.448,9.448,0,0,0,.528.959c2.892,4.582,8.5,3.6,11.321-.3.133-.183.248-.348.349-.5l.083,2.413-2.595,2.38c-4.343,3.985-7.646,7.008-7.889,10.529-.312,4.489,3.329,6.158,6.083,6.376a7.766,7.766,0,0,0,6.97-3.645c1.354-1.99,2.241-6.275,2.176-10.506-.026-1.694-.069-3.849-.1-6.158a49.337,49.337,0,0,0,4.83-6.636A50.224,50.224,0,0,0,149.623,67s1.607.014,3.322-.1c.549-.036.706.076.6.478-.122.486-2.167,8.371-.3,13.624a6.583,6.583,0,0,0,5.863,4.753c2,0,3.909-1.509,4.934-3.75a7.894,7.894,0,0,0,.393.715c2.892,4.582,8.483,3.59,11.321-.3a11.6,11.6,0,0,0,1-1.634,5.506,5.506,0,0,0,5.26,4.977c1.764,0,3.439-.723,4.8-3.938a14.551,14.551,0,0,0,.287,2.937c.086.223.587.5.952.639a7.291,7.291,0,0,0,3.869.192c.422-.085.751-.424.8-1.3.118-2.295.046-6.15.741-9.016a26.523,26.523,0,0,1,2.774-7.6c.289-.517.616-.6.627-.055.024,1.108.079,4.362.532,8.734a19.882,19.882,0,0,0,1.117,5.717,3.146,3.146,0,0,0,3.155,1.8c.623,0,1.925-.172,1.809-1.267a34.925,34.925,0,0,1,1.194-8.568,41.731,41.731,0,0,1,2.457-6.911c.167-.377.244-.08.242-.022-.1,2.131-.309,9.1.559,12.912,1.177,5.164,4.581,5.741,5.767,5.741,2.532,0,4.6-1.926,5.3-6.995.168-1.22-.081-2.162-.826-2.162" transform="translate(-23.998 -48.32)" fill="#306"/>
</svg>
