<svg xmlns="http://www.w3.org/2000/svg" width="237" height="264.725" viewBox="0 0 237 264.725">
  <g id="lab" transform="translate(19)">
    <path id="Back" d="M118.5,0A118.5,118.5,0,1,1,0,118.5,118.5,118.5,0,0,1,118.5,0Z" transform="translate(-19 24.726)" fill="#306"/>
    <g id="Main">
      <path id="Контур_454" data-name="Контур 454" d="M32.7,129.091a16.546,16.546,0,1,1,16.7-16.545A16.64,16.64,0,0,1,32.7,129.091Zm0-24.818a8.273,8.273,0,1,0,8.35,8.273A8.32,8.32,0,0,0,32.7,104.273Zm0,0" transform="translate(-7.65 -46.364)" fill="#fff"/>
      <path id="Контур_455" data-name="Контур 455" d="M348.525,240.818a12.41,12.41,0,1,1,12.525-12.409A12.484,12.484,0,0,1,348.525,240.818Zm0-16.545a4.137,4.137,0,1,0,4.175,4.136A4.159,4.159,0,0,0,348.525,224.273Zm0,0" transform="translate(-160.649 -104.319)" fill="#fff"/>
      <path id="Контур_456" data-name="Контур 456" d="M329.05,80.273H320.7V72h-8.35v8.273H304v8.273h8.35v8.273h8.35V88.545h8.35Zm0,0" transform="translate(-145.349 -34.773)" fill="#fff"/>
      <path id="Контур_457" data-name="Контур 457" d="M25.05,272.273H16.7V264H8.35v8.273H0v8.273H8.35v8.273H16.7v-8.273h8.35Zm0,0" transform="translate(0 -127.501)" fill="#fff"/>
      <path id="Контур_458" data-name="Контур 458" d="M144.7,328.273A8.35,8.35,0,1,1,136.35,320,8.312,8.312,0,0,1,144.7,328.273Zm0,0" transform="translate(-61.199 -154.546)" fill="#fff"/>
      <path id="Контур_459" data-name="Контур 459" d="M160.35,436.136A4.175,4.175,0,1,1,156.175,432,4.156,4.156,0,0,1,160.35,436.136Zm0,0" transform="translate(-72.674 -208.638)" fill="#fff"/>
      <path id="Контур_460" data-name="Контур 460" d="M248.35,380.136A4.175,4.175,0,1,1,244.175,376,4.156,4.156,0,0,1,248.35,380.136Zm0,0" transform="translate(-114.749 -181.592)" fill="#fff"/>
      <path id="Контур_461" data-name="Контур 461" d="M112.35,33.091H187.5a8.32,8.32,0,0,0,8.35-8.273V8.273A8.32,8.32,0,0,0,187.5,0H112.35A8.32,8.32,0,0,0,104,8.273V24.818A8.32,8.32,0,0,0,112.35,33.091Zm0,0" transform="translate(-49.725)" fill="#fff"/>
      <path id="Контур_462" data-name="Контур 462" d="M198.224,270.465l-24.345-70.512h-3.753a4.173,4.173,0,0,1-.5-.028c-12.49-1.495-25.254-5.792-30.165-7.57l2.872-7.772c4.6,1.666,16.5,5.679,28.049,7.1h.642l-24.282-70.318H107.5v-8.273h37.575V80h-66.8v36.54L68.16,145.834l2.45.406a4.322,4.322,0,0,1,.61.147c15.035,4.865,26.62,12.583,37.83,20.049,8.287,5.522,16.115,10.739,25.23,14.867l-3.474,7.519c-9.732-4.409-18.211-10.06-26.412-15.519-11.151-7.428-21.68-14.445-35.465-18.957l-3.508-.58-40.293,116.7A20.4,20.4,0,0,0,24,277.159v5.522a20.8,20.8,0,0,0,20.875,20.682h133.6a20.8,20.8,0,0,0,20.875-20.682v-5.522a20.4,20.4,0,0,0-1.127-6.693Zm-128.3-58.1a16.7,16.7,0,1,1,16.7,16.545A16.64,16.64,0,0,1,69.926,212.363Zm25.05,66.181A12.41,12.41,0,1,1,107.5,266.135,12.484,12.484,0,0,1,94.976,278.544ZM140.9,249.59a12.41,12.41,0,1,1,12.525-12.409A12.484,12.484,0,0,1,140.9,249.59Zm0,0" transform="translate(-11.475 -38.637)" fill="#fff"/>
    </g>
  </g>
</svg>
