<svg id="Capa_1" enable-background="new 0 0 512 512" height="512" viewBox="0 0 512 512" width="512" xmlns="http://www.w3.org/2000/svg"><g><path d="m90 181h-90v331h90zm-30 270h-30v-30h30zm0-60h-30v-30h30zm0-60h-30v-30h30z"/><path d="m512 181h-90v331h90zm-30 270h-30v-30h30zm0-60h-30v-30h30zm0-60h-30v-30h30z"/><circle cx="256" cy="136" r="45"/><path d="m211 451h90v61h-90z"/><path d="m120 512h61v-91h150v91h61v-512h-272zm136-451c41.353 0 75 33.647 75 75 0 36.216-25.809 66.513-60 73.482v61.518h-30v-61.518c-34.191-6.969-60-37.266-60-73.482 0-41.353 33.647-75 75-75zm-75 240h150v30h-150zm0 60h150v30h-150z"/></g></svg>