<svg xmlns="http://www.w3.org/2000/svg" width="117.334" height="128" viewBox="0 0 117.334 128">
  <g id="list" transform="translate(-21.333)">
    <g id="Сгруппировать_122" data-name="Сгруппировать 122" transform="translate(21.333)">
      <g id="Сгруппировать_121" data-name="Сгруппировать 121">
        <path id="Контур_502" data-name="Контур 502" d="M304,277.333A26.667,26.667,0,1,0,330.667,304,26.667,26.667,0,0,0,304,277.333ZM302.4,318.4a5.333,5.333,0,0,1-7.467,0l-10.667-10.667,7.467-7.467,6.933,6.933,17.6-17.6,7.467,7.467Z" transform="translate(-213.333 -208)" fill="#c1b4cf"/>
        <path id="Контур_503" data-name="Контур 503" d="M80,96a32,32,0,0,1,32-32h5.333V5.333A5.333,5.333,0,0,0,112,0H26.667a5.333,5.333,0,0,0-5.334,5.333V122.667A5.333,5.333,0,0,0,26.666,128H112A32,32,0,0,1,80,96ZM58.667,21.333H96V32H58.667Zm0,26.667H85.333V58.667H58.667Zm-16,37.333A5.333,5.333,0,1,1,48,80,5.333,5.333,0,0,1,42.667,85.333Zm0-26.667A5.333,5.333,0,1,1,48,53.334,5.333,5.333,0,0,1,42.667,58.667Zm0-26.667A5.333,5.333,0,1,1,48,26.667,5.333,5.333,0,0,1,42.667,32Zm32,53.333h-16V74.667h16Z" transform="translate(-21.333)" fill="#c1b4cf"/>
      </g>
    </g>
  </g>
</svg>
