<svg id="Capa_1" enable-background="new 0 0 512 512" height="512" viewBox="0 0 512 512" width="512" xmlns="http://www.w3.org/2000/svg"><path d="m323.09 138.545-5.903 11.807c3.735-.234 7.485-.352 11.235-.352h47.578c8.276 0 15-6.724 15-15v-15h-37.925c-12.773 0-24.272 7.104-29.985 18.545z"/><path d="m158.925 120h-37.925v15c0 8.276 6.724 15 15 15h47.578c3.75 0 7.5.117 11.235.352l-5.903-11.807c-5.713-11.441-17.212-18.545-29.985-18.545z"/><path d="m481 135v-135h-30c0 16.538-13.462 30-30 30h-67.925c-38.569 0-73.96 17.563-97.075 47.065-23.115-29.502-58.506-47.065-97.075-47.065h-67.925c-16.538 0-30-13.462-30-30h-30v135c0 41.726 24.655 77.547 60 94.468v130.532h-30v152h90v-152h-30v-121.516c4.942.716 9.864 1.516 15 1.516h47.578c23.013 0 45.542 9.331 61.816 25.605l10.606 10.606 10.605-10.605c16.275-16.275 38.804-25.606 61.817-25.606h47.578c16.165 0 31.307-3.977 45-10.532v43.295c-17.422 6.213-30 22.707-30 42.237 0 24.814 20.186 45 45 45s45-20.186 45-45c0-19.53-12.578-36.024-30-42.237v-64.512c18.499-18.938 30-44.752 30-73.251zm-263.35 48.926c-11.074-2.607-22.529-3.926-34.072-3.926h-47.578c-24.814 0-45-20.186-45-45v-45h67.925c24.214 0 45.981 13.462 56.821 35.127l33.076 66.123zm158.35-3.926h-47.578c-11.543 0-22.998 1.318-34.072 3.926l-31.172 7.324 33.076-66.123c10.84-21.665 32.607-35.127 56.821-35.127h67.925v45c0 24.814-20.186 45-45 45z"/></svg>