<?xml version="1.0" encoding="iso-8859-1"?>
<!-- Generator: Adobe Illustrator 19.0.0, SVG Export Plug-In . SVG Version: 6.00 Build 0)  -->
<svg version="1.1" id="Capa_1" xmlns="http://www.w3.org/2000/svg" xmlns:xlink="http://www.w3.org/1999/xlink" x="0px" y="0px"
	 viewBox="0 0 512 512" style="enable-background:new 0 0 512 512;" xml:space="preserve">
<g>
	<g>
		<path d="M214.213,331.336h-10.578v20.172h10.578c7.995,0,11.808-3.813,11.808-10.086S222.208,331.336,214.213,331.336z"/>
	</g>
</g>
<g>
	<g>
		<path d="M112.984,330.474c-10.702,0-19.311,8.118-19.311,21.525c0,13.407,8.61,21.525,19.311,21.525s19.312-8.118,19.312-21.525
			C132.296,338.592,123.686,330.474,112.984,330.474z"/>
	</g>
</g>
<g>
	<g>
		<path d="M426.795,219.667L300.214,98.318c3.169-6.495,4.952-13.785,4.952-21.485c0-27.111-22.056-49.167-49.166-49.167
			c-27.111,0-49.167,22.056-49.167,49.167c0,7.7,1.783,14.991,4.953,21.486L85.205,219.667H0v264.667h512V219.667H426.795z
			 M232.508,120.013C239.492,123.828,247.497,126,256,126s16.508-2.172,23.493-5.987l103.951,99.653H128.556L232.508,120.013z
			 M112.985,397.018C84.941,397.018,64.4,378.076,64.4,352s20.541-45.018,48.585-45.018c28.044,0,48.585,18.942,48.585,45.018
			S141.029,397.018,112.985,397.018z M216.058,373.893h-12.423v21.156h-29.028v-86.1h41.451c23.985,0,39.237,12.546,39.237,32.472
			C255.295,361.347,240.043,373.893,216.058,373.893z M338.812,395.049h-71.586v-86.1h69.988v21.894h-41.452v10.086h36.408v20.91
			h-36.408v11.316h43.05V395.049z M437.333,395.049h-23.862l-32.718-39.114v39.114h-28.291v-86.1h23.862l32.719,39.114V308.95h28.29
			V395.049z"/>
	</g>
</g>
<g>
</g>
<g>
</g>
<g>
</g>
<g>
</g>
<g>
</g>
<g>
</g>
<g>
</g>
<g>
</g>
<g>
</g>
<g>
</g>
<g>
</g>
<g>
</g>
<g>
</g>
<g>
</g>
<g>
</g>
</svg>
