<svg xmlns="http://www.w3.org/2000/svg" width="143.745" height="128.21" viewBox="0 0 143.745 128.21">
  <g id="open" transform="translate(0 -27.666)">
    <g id="Сгруппировать_116" data-name="Сгруппировать 116" transform="translate(57.171 112.922)">
      <g id="Сгруппировать_115" data-name="Сгруппировать 115">
        <path id="Контур_492" data-name="Контур 492" d="M206.6,331.336h-2.97V337h2.97c2.245,0,3.315-1.07,3.315-2.832S208.849,331.336,206.6,331.336Z" transform="translate(-203.635 -331.336)" fill="#c1b4cf"/>
      </g>
    </g>
    <g id="Сгруппировать_118" data-name="Сгруппировать 118" transform="translate(26.299 112.68)">
      <g id="Сгруппировать_117" data-name="Сгруппировать 117">
        <path id="Контур_493" data-name="Контур 493" d="M99.095,330.474c-3,0-5.422,2.279-5.422,6.043s2.417,6.043,5.422,6.043,5.422-2.279,5.422-6.043S102.1,330.474,99.095,330.474Z" transform="translate(-93.673 -330.474)" fill="#c1b4cf"/>
      </g>
    </g>
    <g id="Сгруппировать_120" data-name="Сгруппировать 120" transform="translate(0 27.666)">
      <g id="Сгруппировать_119" data-name="Сгруппировать 119">
        <path id="Контур_494" data-name="Контур 494" d="M119.824,81.571,84.286,47.5a13.8,13.8,0,1,0-24.826,0L23.921,81.571H0v74.306H143.745V81.571ZM65.277,53.593a13.781,13.781,0,0,0,13.191,0L107.653,81.57H36.092Zm-33.556,77.77c-7.873,0-13.64-5.318-13.64-12.639s5.767-12.639,13.64-12.639,13.64,5.318,13.64,12.639S39.594,131.362,31.721,131.362Zm28.938-6.492H57.171v5.94h-8.15V106.637H60.659c6.734,0,11.016,3.522,11.016,9.117S67.393,124.87,60.659,124.87Zm34.463,5.94h-20.1V106.637H94.673v6.147H83.036v2.832H93.257v5.871H83.036v3.177H95.122Zm27.66,0h-6.7L106.9,119.828v10.981H98.954V106.637h6.7l9.186,10.981V106.637h7.942v24.172Z" transform="translate(0 -27.666)" fill="#c1b4cf"/>
      </g>
    </g>
  </g>
</svg>
