<svg id="Слой_1" data-name="Слой 1" xmlns="http://www.w3.org/2000/svg" viewBox="0 0 401.41 832.15">
  <defs>
    <style>
      .cls-1 {
        fill: #d3875e;
      }

      .cls-2 {
        fill: #413847;
      }

      .cls-3 {
        fill: #fff;
      }

      .cls-4 {
        fill: #150000;
        opacity: 0.2;
      }

      .cls-5 {
        opacity: 0.65;
      }

      .cls-6 {
        stroke: #413847;
        stroke-width: 0.36px;
      }

      .cls-10, .cls-6, .cls-9 {
        stroke-miterlimit: 10;
      }

      .cls-7 {
        fill: #ffc48e;
      }

      .cls-11, .cls-8 {
        fill: #fff7e7;
      }

      .cls-8 {
        opacity: 0.47;
      }

      .cls-10, .cls-9 {
        fill: none;
        stroke: #fff;
      }

      .cls-9 {
        stroke-width: 0.18px;
      }

      .cls-10 {
        stroke-width: 0.23px;
      }

      .cls-11 {
        opacity: 0.5;
      }

      .cls-12 {
        font-size: 39.46px;
        font-family: Calibri;
        letter-spacing: 0.2em;
      }

      .cls-12, .cls-17 {
        fill: #306;
      }

      .cls-13 {
        letter-spacing: 0.21em;
      }

      .cls-14 {
        letter-spacing: 0.18em;
      }

      .cls-15 {
        letter-spacing: 0.2em;
      }

      .cls-16 {
        fill: #ffece0;
      }

      .cls-18 {
        fill: #ecd0b3;
      }
    </style>
  </defs>
  <g>
    <g>
      <path class="cls-1" d="M351.41,247.06c-5.32-8.16-23-48.12-9.13-64.44s20.05-11,20.05-11l7.84,13.62Z" transform="translate(-263.65 -79.53)"/>
      <path d="M354.67,213.15c.43-5,7.66-41.53,7.66-41.53l7.84,13.62-18.76,61.82S352.81,234.85,354.67,213.15Z" transform="translate(-263.65 -79.53)"/>
      <rect class="cls-2" x="329.88" y="100.2" width="246.99" height="484.05" rx="8.73" transform="translate(-168.68 -177.99) rotate(13.83)"/>
      <path class="cls-3" d="M500.77,562.49,307.83,515a15.64,15.64,0,0,1-11.44-18.93L393.6,101.52a15.64,15.64,0,0,1,18.93-11.44l192.93,47.5a15.65,15.65,0,0,1,11.45,18.93L519.7,551A15.65,15.65,0,0,1,500.77,562.49Z" transform="translate(-263.65 -79.53)"/>
      <rect class="cls-4" x="378.86" y="204.27" width="196.4" height="77.28" rx="4.05" transform="translate(-193.16 -184.88) rotate(13.6)"/>
      <rect class="cls-4" x="328.48" y="416.52" width="94.92" height="48.94" rx="2.18" transform="translate(-149.43 -155.55) rotate(13.6)"/>
      <rect class="cls-4" x="438.18" y="345.57" width="93.62" height="145.68" rx="3.82" transform="translate(-158.16 -177.12) rotate(12.88)"/>
      <g class="cls-5">
        <line class="cls-6" x1="185.38" y1="255.51" x2="93.93" y2="233.74"/>
        <line class="cls-6" x1="183.5" y1="263.48" x2="92.05" y2="241.72"/>
        <line class="cls-6" x1="181.52" y1="270.77" x2="90.07" y2="249.01"/>
        <line class="cls-6" x1="179.53" y1="278.07" x2="88.09" y2="256.3"/>
        <line class="cls-6" x1="177.08" y1="285.66" x2="85.63" y2="263.89"/>
        <line class="cls-6" x1="175.25" y1="293.98" x2="83.81" y2="272.21"/>
      </g>
      <g class="cls-5">
        <line class="cls-6" x1="173.7" y1="302.56" x2="82.26" y2="280.8"/>
        <line class="cls-6" x1="171.82" y1="310.54" x2="80.38" y2="288.77"/>
        <line class="cls-6" x1="169.84" y1="317.83" x2="78.39" y2="296.06"/>
        <line class="cls-6" x1="167.86" y1="325.12" x2="76.41" y2="303.35"/>
        <line class="cls-6" x1="165.4" y1="332.71" x2="73.96" y2="310.95"/>
        <line class="cls-6" x1="163.57" y1="341.03" x2="72.13" y2="319.26"/>
      </g>
      <g class="cls-5">
        <line class="cls-6" x1="292.28" y1="230.7" x2="106.42" y2="186.47"/>
        <line class="cls-6" x1="290.42" y1="238.68" x2="104.56" y2="194.45"/>
        <line class="cls-6" x1="288.19" y1="245.92" x2="102.33" y2="201.68"/>
        <line class="cls-6" x1="285.96" y1="253.15" x2="100.1" y2="208.92"/>
        <line class="cls-6" x1="282.88" y1="260.59" x2="97.02" y2="216.36"/>
        <line class="cls-6" x1="281.2" y1="268.95" x2="95.34" y2="224.71"/>
      </g>
      <path class="cls-7" d="M350.83,566.14s14.63,81.76,22.82,95S392,690.82,392,690.82l15.61,92.87H602.71l-21.86-78.82s48-109.65,49.17-200.57-.39-152.18-11.32-189.64S604.27,262,588.27,258.47s-23.41,12.09-25.37,23c-1,5.86-1.94,101.36-1.94,101.36l-10.54,75.41s-54.54,57.21-81.86,137l-54.67-15.22Z" transform="translate(-263.65 -79.53)"/>
      <path class="cls-1" d="M580.45,702.79c-11.26,10.11-44.58,25.93-89.57,18.44,0,0,31.1,22.7,51.87,20.62S580.45,702.79,580.45,702.79Z" transform="translate(-263.65 -79.53)"/>
      <path d="M490.7,721.89a137.54,137.54,0,0,0,46.9-.12,108.45,108.45,0,0,0,32.7-11.22,56.37,56.37,0,0,0,10.63-7.28c.66-.59-.31-1.56-1-1-6.39,5.71-14.53,9.61-22.48,12.6a121.83,121.83,0,0,1-38.56,7.5,139.62,139.62,0,0,1-27.85-1.84c-.87-.14-1.24,1.18-.37,1.33Z" transform="translate(-263.65 -79.53)"/>
      <path d="M392.41,692.8a151.57,151.57,0,0,0,19,11.52c.78.41,1.48-.78.69-1.18a149.63,149.63,0,0,1-19-11.53c-.72-.51-1.41.68-.7,1.19Z" transform="translate(-263.65 -79.53)"/>
      <path class="cls-1" d="M454.73,644.72s5.91-23.28,13.83-49.43l-54.67-15.22a240.12,240.12,0,0,0,21.71,39.32C439.33,624.85,454.73,644.72,454.73,644.72Z" transform="translate(-263.65 -79.53)"/>
      <path d="M456.9,636.75q7.73-29.28,16.26-58.34a.69.69,0,0,0-1.32-.37q-8.54,29.06-16.26,58.35a.68.68,0,0,0,1.32.36Z" transform="translate(-263.65 -79.53)"/>
      <path class="cls-7" d="M320.21,304.71c-6.5,2.08-19.86,12.76-21.28,32.63s8.51,28,17,29.08,18.44-7.45,20.93-14.19,11.7-15.25,9.57-30.15S340.07,298.32,320.21,304.71Z" transform="translate(-263.65 -79.53)"/>
      <path d="M328.23,365.1c8.93-9.2,16.08-20.55,18.26-33.35a45,45,0,0,0-.74-19.35,37.85,37.85,0,0,0-1.5-4.39,13.16,13.16,0,0,0-1.64-3.24A9.37,9.37,0,0,0,338,302a24.41,24.41,0,0,0-18.13,2.07c-.78.42-.09,1.6.69,1.19A23.34,23.34,0,0,1,336.32,303a9.74,9.74,0,0,1,5.06,2.42,9.38,9.38,0,0,1,1.45,2.7,35.65,35.65,0,0,1,1.6,4.63c3.21,11.78.67,24.46-5,35.06a73.1,73.1,0,0,1-12.15,16.3c-.62.64.35,1.61,1,1Z" transform="translate(-263.65 -79.53)"/>
      <path class="cls-8" d="M301.58,332.28c-1.24,5.76-1.6,15.34,1.28,21.1,0,0,6.07.64,10.87-1,0,0,6.07-20.78,9.91-26.54s7-14.39,4.48-16.95-9.28-1.28-11.51-.64S304.45,318.84,301.58,332.28Z" transform="translate(-263.65 -79.53)"/>
      <path class="cls-7" d="M308.79,393.4c-7.73-4.12-28.74,1.46-35.13,19.91S269.6,452,293.88,454.8c11.88,1.37,17.84-1.7,24.56-24.2,2.84-9.5,3.86-16.2,3.48-21.15C321.24,400.53,316,397.27,308.79,393.4Z" transform="translate(-263.65 -79.53)"/>
      <path d="M312.84,396.34c4.05,2.23,8.13,5.35,9.8,9.83,1.77,4.74-.34,9.92-1.58,14.54-2.49,9.28-4.91,18.71-10.79,26.53-2.77,3.67-6.59,7.17-11.41,7.39-.88,0-.88,1.42,0,1.37,9.42-.44,15.15-10.85,18.39-18.47a111.11,111.11,0,0,0,4.75-15A79.83,79.83,0,0,0,324.56,412a13.14,13.14,0,0,0-.37-5.51c-1.6-5.16-6.1-8.8-10.66-11.31-.77-.43-1.46.75-.69,1.18Z" transform="translate(-263.65 -79.53)"/>
      <path class="cls-7" d="M266.92,506.94c3.45-8.19,13.48-8.16,22.35-7.45s31.21,1.78,32.27,23.77-8.34,24.38-24.66,26.16-27.83,4-31.37-10.2S264.09,513.68,266.92,506.94Z" transform="translate(-263.65 -79.53)"/>
      <path d="M296.65,500.87c5.72,1.06,11.57,2.4,16.38,5.84,4.34,3.11,9,8.17,8.21,13.91-.12.88,1.25.87,1.37,0,.77-5.84-3.64-11.05-8-14.39-5.11-4-11.39-5.53-17.64-6.68-.86-.16-1.23,1.16-.36,1.32Z" transform="translate(-263.65 -79.53)"/>
      <path class="cls-8" d="M289,544.89c-4.1-5.27-5.23-31-1.73-36.66,0,0,26,.43,27.77,3.25S318.5,539,312.59,542C303.86,546.36,289,544.89,289,544.89Z" transform="translate(-263.65 -79.53)"/>
      <path class="cls-2" d="M454.71,110.15H569.49a1.66,1.66,0,0,1,1.66,1.66v16.47a9.73,9.73,0,0,1-9.73,9.73H462.78a9.73,9.73,0,0,1-9.73-9.73V111.81a1.66,1.66,0,0,1,1.66-1.66Z" transform="translate(-217.55 -201.38) rotate(14.2)"/>
      <circle class="cls-9" cx="284.48" cy="55.24" r="3.39"/>
      <circle class="cls-10" cx="132.27" cy="475.15" r="9.73"/>
      <circle class="cls-3" cx="267.86" cy="50.85" r="3.39"/>
      <path class="cls-8" d="M274.16,434.51s-1-12,3.76-22.27,10.95-13.8,16-13.7c3.79.07,10.85,2.7,12.06,5.83,3,7.78-4.59,24.18-8.36,33.43,0,0-1.57,12.12-12.53,8.35C285.12,446.15,275.53,441.7,274.16,434.51Z" transform="translate(-263.65 -79.53)"/>
      <path d="M612.18,309.53a32.66,32.66,0,0,1-16.35,6.29c-1.92.13-2.48-2-3.16-3.4s-1.34-2.85-2-4.29q-2-4.56-3.68-9.25c-.29-.82-1.62-.47-1.32.36,1.24,3.46,2.61,6.88,4.1,10.23.74,1.65,1.5,3.29,2.3,4.91.58,1.19,1.18,2.49,2.6,2.77a12.35,12.35,0,0,0,4.47-.45,35.17,35.17,0,0,0,4.92-1.36,35.55,35.55,0,0,0,8.79-4.63c.71-.51,0-1.7-.7-1.18Z" transform="translate(-263.65 -79.53)"/>
      <path class="cls-11" d="M599.84,266.26s-16.21,2.27-18.34,4.1,7.19,42.19,16.08,44.15S614.42,307,614.42,307,608.81,280.46,599.84,266.26Z" transform="translate(-263.65 -79.53)"/>
      <path d="M607.21,382.75a54.55,54.55,0,0,0,17-4.71c.8-.36.1-1.55-.7-1.18a52.88,52.88,0,0,1-16.31,4.52c-.87.09-.88,1.46,0,1.37Z" transform="translate(-263.65 -79.53)"/>
      <path d="M613.36,388.91a26.7,26.7,0,0,0,11.73-3.82c.75-.46.06-1.65-.69-1.18a25.36,25.36,0,0,1-11,3.63c-.87.07-.88,1.45,0,1.37Z" transform="translate(-263.65 -79.53)"/>
      <polygon class="cls-1" points="163.82 525.9 87.19 486.61 150.24 500.55 163.82 525.9"/>
      <text class="cls-12" transform="matrix(0.97, 0.24, -0.24, 0.97, 155.07, 85.53)">М<tspan class="cls-13" x="41.63" y="0">Т</tspan><tspan class="cls-14" x="69.18" y="0">У</tspan><tspan class="cls-15" x="96.98" y="0">СИ</tspan></text>
    </g>
    <polygon class="cls-16" points="138.75 671.84 121.2 683.15 142.47 783.1 372.14 738.58 362.57 671.45 333.86 671.84 138.75 671.84"/>
    <path class="cls-17" d="M406.12,862.62l229.67-44.51L647,814.77a14,14,0,0,1,18,13.45v82.54H403.3S406.12,860.53,406.12,862.62Z" transform="translate(-263.65 -79.53)"/>
    <polygon class="cls-18" points="372.14 738.58 142.47 783.1 135.7 751.31 303.23 743.38 372.14 738.58"/>
    <path d="M557.12,778.09l8.72,52.1c.14.87,1.46.5,1.32-.36l-8.72-52.11c-.14-.86-1.46-.5-1.32.37Z" transform="translate(-263.65 -79.53)"/>
    <path d="M573.27,789c-3.06,6.71-1.84,14.53,1.92,20.71,1.8,3,4.24,5.85,7.48,7.24a10.94,10.94,0,0,0,10.22-1,13.54,13.54,0,0,0,5.71-10.18c.09-.88-1.28-.87-1.37,0-.41,4.26-2.84,8.4-7,10-4.3,1.67-8.37,0-11.34-3.27-5.41-5.94-7.91-15.25-4.48-22.77.37-.8-.81-1.5-1.18-.69Z" transform="translate(-263.65 -79.53)"/>
    <path d="M418.68,886.32c4.49-1.05,9-2,13.52-2.89q9.92-2,19.84-3.87,12.22-2.32,24.46-4.57l27.81-5.1,29.36-5.33,29.69-5.38q14.11-2.56,28.23-5.16,12.75-2.34,25.51-4.74,10.53-2,21-4c5.1-1,10.19-2,15.26-3.16l2.65-.61c.85-.2.49-1.52-.37-1.32-4.48,1.06-9,2-13.52,2.89q-9.9,2-19.84,3.87-12.23,2.33-24.46,4.57-13.89,2.58-27.8,5.1L540.7,861.9,511,867.29q-14.12,2.57-28.22,5.15-12.76,2.35-25.52,4.74-10.51,2-21,4.05c-5.09,1-10.19,2-15.26,3.17l-2.64.6c-.86.2-.5,1.52.36,1.32Z" transform="translate(-263.65 -79.53)"/>
    <path d="M629.07,831.49c1.39,9.53,2.41,19.13,3.54,28.69,1.52,12.75,3,25.5,4.56,38.25.52,4.25,1,8.51,1.64,12.75.12.87,1.44.5,1.32-.36-1.39-9.53-2.41-19.12-3.54-28.69-1.52-12.75-3-25.5-4.56-38.25-.52-4.25-1-8.51-1.64-12.75-.12-.87-1.44-.5-1.32.36Z" transform="translate(-263.65 -79.53)"/>
    <path d="M406.48,861.23q-8.58-38.12-15-76.66-1.82-10.91-3.46-21.84l-.32.78L402.75,752c.69-.53,0-1.72-.69-1.18L387,762.32a.74.74,0,0,0-.31.78q5.81,38.63,13.78,76.88,2.26,10.83,4.69,21.61c.2.86,1.52.5,1.32-.36Z" transform="translate(-263.65 -79.53)"/>
  </g>
</svg>
