<svg xmlns="http://www.w3.org/2000/svg" width="237" height="266.06" viewBox="0 0 237 266.06">
	<g id="postgraduate" transform="translate(16.399)">
		<path id="Back" d="M118.5,0A118.5,118.5,0,1,1,0,118.5,118.5,118.5,0,0,1,118.5,0Z" transform="translate(-16.399 28.853)" fill="#fff" />
		<g id="Main" transform="translate(0 0)">
			<g id="Сгруппировать_97" data-name="Сгруппировать 97" transform="translate(0)">
				<path id="Контур_435" data-name="Контур 435" d="M235.211,288.161c-1.965-4.7-6.7-7.713-11.212-9.564l-30.52-14.053-14.663-12.366-23.561,23.434h-.018l10.168,67.971a.894.894,0,0,1-.162.662l-10.631,14.549a.9.9,0,0,1-1.452,0l-10.63-14.549a.894.894,0,0,1-.164-.662l10.167-67.973h-.016l-23.559-23.432-14.663,12.366L83.773,278.6c-4.516,1.851-8.953,4.663-11.211,9.564,0,0-33.176,78.983-15.181,78.983H250.4C268.387,367.146,235.211,288.161,235.211,288.161Z" transform="translate(-52.032 -101.084)" fill="#306" />
				<path id="Контур_436" data-name="Контур 436" d="M247.707,78.783a1.7,1.7,0,0,0,1.525-1.891q-.512-4.376-1.023-8.746l-.711-6.1a1.7,1.7,0,0,0-1.842-1.492l-1.32,0,.025-20.492.691-.251,2.3-.832a4.921,4.921,0,0,0,0-9.258L165.934.294a4.918,4.918,0,0,0-3.347,0L81.166,29.718a4.922,4.922,0,0,0,0,9.258l30.1,10.878a73.624,73.624,0,0,0-3,22.938c.53,48.773,28.842,77.857,55.04,77.857,25.891,0,54.511-29.084,55.038-77.857a74.337,74.337,0,0,0-2.814-22.311l21.886-7.909.046,17.987h-1.322a1.7,1.7,0,0,0-1.839,1.5l-1.712,14.852a1.7,1.7,0,0,0,.368,1.261,1.675,1.675,0,0,0,1.158.619M163.3,138.8c-22.857,0-38.628-26.775-41.81-53.541C118.552,60.51,154.35,59.357,156.429,74.7c.64,4.717-4.775,9.769-4.161,11.717,3.029,9.616,53.188-31.386,52.846-1.166C204.872,106.588,185.081,138.8,163.3,138.8Z" transform="translate(-62.408 0)" fill="#306" />
			</g>
		</g>
	</g>
</svg>
