<svg id="science_arrow_left" xmlns="http://www.w3.org/2000/svg" width="61" height="61" viewBox="0 0 61 61">
  <circle id="Эллипс_64" data-name="Эллипс 64" cx="30.5" cy="30.5" r="30.5" fill="#fff"/>
  <g id="arrow" transform="translate(20.614 14.07)">
    <path id="Контур_1" data-name="Контур 1" d="M112.788,15.5,126.228.269a.739.739,0,0,1,1.14,0,1,1,0,0,1,0,1.292L114.5,16.142l12.867,14.581a1,1,0,0,1,0,1.292.767.767,0,0,1-.567.271.744.744,0,0,1-.567-.271l-13.44-15.23A1,1,0,0,1,112.788,15.5Z" transform="translate(-112.556 0)" fill="none" stroke="#306" stroke-width="3"/>
  </g>
</svg>
