<svg xmlns="http://www.w3.org/2000/svg" width="105.503" height="105.502" viewBox="0 0 105.503 105.502">
  <g id="chemistry" transform="translate(61.072 -59.103)">
    <g id="Сгруппировать_105" data-name="Сгруппировать 105" transform="translate(-61.072 59.103)">
      <g id="Сгруппировать_104" data-name="Сгруппировать 104">
        <path id="Контур_438" data-name="Контур 438" d="M251.8,260.032a8.792,8.792,0,1,0,17.584,0V226.623H251.8v33.409Z" transform="translate(-199.052 -179.147)" fill="#306"/>
        <path id="Контур_439" data-name="Контур 439" d="M117.508,313.112a8.792,8.792,0,1,0,17.584,0V293.77H117.508Z" transform="translate(-92.891 -232.227)" fill="#306"/>
        <path id="Контур_440" data-name="Контур 440" d="M98.469,31.651h5.275a1.758,1.758,0,0,0,1.758-1.758V22.859a1.758,1.758,0,0,0-1.758-1.758H98.469V12.309h1.758a1.758,1.758,0,1,0,0-3.517h-21.1a1.758,1.758,0,1,0,0,3.517h1.758V21.1H70.335V12.309h1.758a1.758,1.758,0,1,0,0-3.517h-21.1a1.758,1.758,0,1,0,0,3.517h1.758V21.1H42.2V12.309h1.758a1.758,1.758,0,1,0,0-3.517h-21.1a1.758,1.758,0,0,0,0,3.517h1.758V21.1H15.825a15.72,15.72,0,0,0-5.275.916V1.758A1.759,1.759,0,0,0,8.792,0H1.758A1.759,1.759,0,0,0,0,1.758V103.744A1.759,1.759,0,0,0,1.758,105.5H103.744a1.758,1.758,0,0,0,1.758-1.758,8.8,8.8,0,0,0-8.792-8.792H20.96a12.317,12.317,0,0,0-10.41-10.41V36.926a5.282,5.282,0,0,1,5.275-5.275h8.792V58.027H42.2V31.651h10.55V43.959H70.335V31.651h10.55V54.51H98.469V31.651ZM17.584,96.711v5.275H3.517V87.919H8.792A8.8,8.8,0,0,1,17.584,96.711Z" fill="#306"/>
        <path id="Контур_441" data-name="Контур 441" d="M386.1,299.843a8.792,8.792,0,0,0,17.584,0V276.984H386.1v22.859Z" transform="translate(-305.213 -218.957)" fill="#306"/>
      </g>
    </g>
  </g>
</svg>
