<svg xmlns="http://www.w3.org/2000/svg" width="91" height="114" viewBox="0 0 91 114">
  <g id="about_icon" data-name="about icon" transform="translate(-5.037 -6)">
    <path id="Вычитание_11" data-name="Вычитание 11" d="M-1516.963-1041h-48.714l-27.286-29.261V-1140a14.9,14.9,0,0,1,4.394-10.607,14.9,14.9,0,0,1,10.606-4.393h76v99a14.9,14.9,0,0,1-4.393,10.607A14.9,14.9,0,0,1-1516.963-1041Zm-29.713-29.192a5.343,5.343,0,0,0-3.847,1.507,5.078,5.078,0,0,0-1.56,3.8,5.3,5.3,0,0,0,1.56,3.8,5.163,5.163,0,0,0,3.847,1.612,5.336,5.336,0,0,0,3.9-1.612,5.216,5.216,0,0,0,1.612-3.8,5.079,5.079,0,0,0-1.561-3.8A5.477,5.477,0,0,0-1546.675-1070.192Zm-1.56-56.68a25.661,25.661,0,0,1,6.968.871,15.412,15.412,0,0,1,5.3,2.613,11.535,11.535,0,0,1,3.354,4.043,11.708,11.708,0,0,1,1.118,5.161,12.106,12.106,0,0,1-2.132,7.228,45.008,45.008,0,0,1-6.6,6.916,67.626,67.626,0,0,0-5.408,5.2,20.037,20.037,0,0,0-3.484,5.512,18.7,18.7,0,0,0-1.4,7.488h7.7a13.583,13.583,0,0,1,2.184-7.853,44.342,44.342,0,0,1,6.656-7.228,71.342,71.342,0,0,0,5.356-5.3,20.564,20.564,0,0,0,3.432-5.564,19.087,19.087,0,0,0,1.4-7.54,15.73,15.73,0,0,0-6.5-13.208c-4.312-3.244-10.173-4.888-17.419-4.888-11.318,0-20.03,3.639-25.9,10.816l5.512,4.16a22.043,22.043,0,0,1,8.45-6.318A29.151,29.151,0,0,1-1548.235-1126.872ZM-1573.88-1041h-19.083v-20.463l19.081,20.462Z" transform="translate(1598 1161)" fill="#306"/>
  </g>
</svg>
