<svg id="teacher" xmlns="http://www.w3.org/2000/svg" width="128.477" height="128.477" viewBox="0 0 128.477 128.477">
  <path id="Контур_504" data-name="Контур 504" d="M43.264,125.084a3.782,3.782,0,0,1,5.106,1.582l15.007,28.479a12.475,12.475,0,0,1,4.177-.715h9.966A18.454,18.454,0,0,1,95.945,136.1h6.638a16.217,16.217,0,0,1-2.559-8.764V119.98a16.323,16.323,0,1,1,32.643.248v7.111a16.216,16.216,0,0,1-2.559,8.764h9.386a18.2,18.2,0,0,1,3.5.335V79.81H29.25v80.608a2.519,2.519,0,0,0,2.519,2.519H55.661a12.561,12.561,0,0,1,1.612-3.162L41.682,130.188a3.778,3.778,0,0,1,1.582-5.1ZM48.224,90.3H86.951a3.779,3.779,0,0,1,0,7.557H48.224a3.779,3.779,0,1,1,0-7.557Zm0,17.614H86.951a3.779,3.779,0,1,1,0,7.557H48.224a3.779,3.779,0,1,1,0-7.557Z" transform="translate(-21.881 -59.705)" fill="#c1b4cf"/>
  <path id="Контур_505" data-name="Контур 505" d="M238.34,333.27H194.792a10.886,10.886,0,0,0-10.868,10.878v3.67a3.778,3.778,0,0,1-3.779,3.779H166.4a5.019,5.019,0,0,0,0,10.039h22.811a3.981,3.981,0,0,0,3.973-3.978v-5.7a3.849,3.849,0,0,1,3.6-3.881,3.779,3.779,0,0,1,3.958,3.775v23.416a2.519,2.519,0,0,0,2.519,2.519h26.378V351.963a3.849,3.849,0,0,1,3.6-3.881,3.779,3.779,0,0,1,3.958,3.775v25.935h9.49a2.519,2.519,0,0,0,2.519-2.519V344.148A10.884,10.884,0,0,0,238.34,333.27Z" transform="translate(-120.729 -249.314)" fill="#c1b4cf"/>
  <path id="Контур_506" data-name="Контур 506" d="M340.19,213.244V220.6a8.764,8.764,0,0,0,17.528,0v-7.358a8.764,8.764,0,1,0-17.528,0Z" transform="translate(-254.491 -152.968)" fill="#c1b4cf"/>
  <path id="Контур_507" data-name="Контур 507" d="M0,2.519v7.51a2.519,2.519,0,0,0,2.519,2.519H125.958a2.519,2.519,0,0,0,2.519-2.519V2.519A2.519,2.519,0,0,0,125.958,0H2.519A2.519,2.519,0,0,0,0,2.519Z" fill="#c1b4cf"/>
</svg>
