<svg height="512pt" viewBox="0 0 512 512" width="512pt" xmlns="http://www.w3.org/2000/svg"><path d="m335.269531 191.730469v260.269531h128.53125v-434.871094c0-8.277344-6.722656-15-15-15h-192.800781c-8.28125 0-15 6.722656-15 15v129.601563h49.269531c24.808594 0 45 20.191406 45 45zm34.261719-110.332031c0-8.28125 6.71875-15 15-15 8.285156 0 15 6.71875 15 15v16.066406c0 8.285156-6.714844 15-15 15-8.28125 0-15-6.714844-15-15zm0 80.335937c0-8.285156 6.71875-15 15-15 8.285156 0 15 6.714844 15 15v16.066406c0 8.285157-6.714844 15-15 15-8.28125 0-15-6.714843-15-15zm0 80.332031c0-8.285156 6.71875-15 15-15 8.285156 0 15 6.714844 15 15v16.066406c0 8.285157-6.714844 15-15 15-8.28125 0-15-6.714843-15-15zm0 80.332032c0-8.28125 6.71875-15 15-15 8.285156 0 15 6.71875 15 15v16.066406c0 8.285156-6.714844 15-15 15-8.28125 0-15-6.714844-15-15zm-64.265625-241c0-8.28125 6.71875-15 15-15 8.285156 0 15 6.71875 15 15v16.066406c0 8.285156-6.714844 15-15 15-8.28125 0-15-6.714844-15-15zm0 0"/><path d="m47.132812 142.46875h112.46875c25.988282 0 47.132813-21.144531 47.132813-47.132812 0-26.289063-21.335937-47.136719-47.132813-47.136719h-1.503906c-3.4375-27.140625-26.671875-48.199219-54.730468-48.199219-28.058594 0-51.292969 21.058594-54.730469 48.199219h-1.503907c-26.332031 0-47.132812 21.378906-47.132812 47.132812 0 25.992188 21.144531 47.136719 47.132812 47.136719zm0 0"/><path d="m497 482h-482c-8.285156 0-15 6.714844-15 15s6.714844 15 15 15h482c8.285156 0 15-6.714844 15-15s-6.714844-15-15-15zm0 0"/><path d="m305.269531 452v-260.269531c0-8.28125-6.71875-15-15-15h-227.070312c-8.277344 0-15 6.71875-15 15v260.269531h81.402343v-50.328125c0-8.292969 6.71875-15 15-15h64.269532c8.277344 0 15 6.707031 15 15v50.328125zm-177.800781-114.601562c0 8.285156-6.71875 15-15 15-8.285156 0-15-6.714844-15-15v-16.066407c0-8.28125 6.714844-15 15-15 8.28125 0 15 6.71875 15 15zm0-80.332032c0 8.285156-6.71875 15-15 15-8.285156 0-15-6.714844-15-15v-16.066406c0-8.285156 6.714844-15 15-15 8.28125 0 15 6.714844 15 15zm64.265625 80.332032c0 8.285156-6.71875 15-15 15-8.285156 0-15-6.714844-15-15v-16.066407c0-8.28125 6.714844-15 15-15 8.28125 0 15 6.71875 15 15zm0-80.332032c0 8.285156-6.71875 15-15 15-8.285156 0-15-6.714844-15-15v-16.066406c0-8.285156 6.714844-15 15-15 8.28125 0 15 6.714844 15 15zm34.265625-16.066406c0-8.285156 6.714844-15 15-15s15 6.714844 15 15v16.066406c0 8.285156-6.714844 15-15 15s-15-6.714844-15-15zm0 80.332031c0-8.28125 6.714844-15 15-15s15 6.71875 15 15v16.066407c0 8.285156-6.714844 15-15 15s-15-6.714844-15-15zm0 0"/><path d="m159.601562 416.671875h34.269532v35.328125h-34.269532zm0 0"/></svg>