<svg id="Capa_1" enable-background="new 0 0 510.809 510.809" height="512" viewBox="0 0 510.809 510.809" width="512" xmlns="http://www.w3.org/2000/svg"><g><path d="m503.309 452.126h-56.904v-6.755c0-8.01-6.517-14.526-14.526-14.526h-28.51c-8.01 0-14.525 6.516-14.525 14.526v6.755h-105.027v-6.755c0-8.01-6.517-14.526-14.526-14.526h-6.755v-42.411h128.871c15.759 0 30.742-5.95 42.191-16.753 11.558-10.905 18.219-25.559 18.758-41.259.027-.79.042-1.583.042-2.379 0-20.635-9.217-39.151-23.742-51.67 26.208-28.027 40.556-64.254 40.556-102.957 0-28.248-7.85-55.796-22.7-79.666-2.188-3.517-6.814-4.595-10.33-2.406-3.517 2.188-4.595 6.813-2.406 10.33 8.377 13.465 14.278 28.232 17.518 43.643-17.52-12.232-46.172-20.743-78.184-25.255-2.602-18.719-6.573-35.94-11.793-50.635-4.21-11.851-9.013-21.54-14.313-28.986 26.037 5.571 49.841 18.694 68.859 38.312 2.882 2.973 7.63 3.048 10.605.164 2.974-2.883 3.047-7.631.164-10.605-28.7-29.604-67.21-45.908-108.434-45.908-78.396 0-143.587 60.066-150.415 137.586-9.256 4.465-17.891 10.402-25.622 17.723-20.045 18.982-31.165 44.501-31.314 71.859-.021 3.815.178 7.642.592 11.442-31.756 5.958-55.597 33.978-55.597 67.03 0 .793.014 1.583.041 2.377.539 15.703 7.2 30.357 18.758 41.262 11.449 10.804 26.434 16.753 42.191 16.753h17.413c4.143 0 7.5-3.358 7.5-7.5s-3.357-7.5-7.5-7.5h-17.413c-24.518 0-45.135-19.527-45.958-43.522-.021-.621-.032-1.244-.032-1.87 0-27.917 21.803-51.233 49.636-53.08 2.143-.142 4.122-1.196 5.436-2.895 1.313-1.699 1.837-3.879 1.436-5.989-1.026-5.399-1.532-10.925-1.502-16.426.126-23.227 9.583-44.907 26.628-61.049 17.069-16.166 39.273-24.447 62.522-23.301 31.56 1.547 59.458 20.346 72.81 49.06.872 1.876 2.48 3.308 4.443 3.958 1.966.65 4.109.46 5.928-.524 7.714-4.175 16.458-6.382 25.289-6.382 29.343 0 53.215 23.872 53.215 53.215 0 .796-.027 1.587-.061 2.375-.089 2.044.661 4.036 2.076 5.513 1.414 1.478 3.371 2.314 5.417 2.314.049 0 .104 0 .16-.002 29.301.05 53.123 23.902 53.123 53.215 0 .623-.011 1.242-.032 1.862-.824 24.003-21.441 43.53-45.959 43.53h-227.16c-4.143 0-7.5 3.358-7.5 7.5s3.357 7.5 7.5 7.5h83.289v42.411h-6.755c-8.01 0-14.525 6.516-14.525 14.526v6.755h-118.28v-6.755c0-8.01-6.517-14.526-14.526-14.526h-28.51c-8.01 0-14.525 6.516-14.525 14.526v6.755h-42.915c-4.143 0-7.5 3.358-7.5 7.5s3.357 7.5 7.5 7.5h42.914v6.755c0 8.01 6.516 14.526 14.525 14.526h28.51c8.01 0 14.526-6.516 14.526-14.526v-6.755h118.28v6.755c0 8.01 6.516 14.526 14.525 14.526h28.51c8.01 0 14.526-6.516 14.526-14.526v-6.755h105.025v6.755c0 8.01 6.516 14.526 14.525 14.526h28.51c8.01 0 14.526-6.516 14.526-14.526v-6.755h56.904c4.143 0 7.5-3.358 7.5-7.5.003-4.146-3.355-7.504-7.497-7.504zm-86.081-306.713c23.159 8.008 36.985 18.476 36.985 28.002 0 13.111-27.218 30.099-79.309 38.016 1.178-12.343 1.779-25.082 1.779-38.016 0-13.007-.615-25.756-1.781-38.021 15.604 2.377 29.948 5.74 42.326 10.019zm-70.045-70.966c4.533 12.759 8.069 27.606 10.519 43.777-12.996-1.28-26.322-1.933-39.501-1.933-13.424 0-26.707.653-39.495 1.895 2.45-16.156 5.983-30.99 10.512-43.739 8.24-23.196 19.075-37.044 28.982-37.044 9.908-.001 20.742 13.848 28.983 37.044zm-57.817-33.965c-5.287 7.44-10.08 17.115-14.281 28.944-5.215 14.68-9.183 31.881-11.785 50.578-14.11 1.974-27.369 4.702-39.206 8.126-12.594 3.643-27.572 9.22-39.012 17.248 10.997-52.545 52.256-93.636 104.284-104.896zm-82.604 109.804c13.441-6.174 32-11.53 54.745-14.967-.859 9.008-1.41 18.279-1.645 27.724-13.269-7.477-28.305-11.947-44.129-12.723-3.007-.147-5.999-.152-8.971-.034zm91.227 51.055c-6.066-10.858-13.991-20.311-23.27-28.045.004-13.73.704-27.139 2.042-39.919 12.779-1.334 26.627-2.087 41.439-2.087 14.276 0 28.206.73 41.444 2.132 1.339 12.803 2.038 26.237 2.038 39.993 0 11.478-.496 22.783-1.457 33.773-10.615-6.816-23.232-10.774-36.756-10.774-8.741-.001-17.42 1.689-25.48 4.927zm81.57 24.536c27.248-4.397 54.607-12.489 71.807-24.513-5.155 24.907-17.213 47.772-35.238 66.431-7.482-3.983-15.782-6.625-24.585-7.574-.814-12.703-5.136-24.462-11.984-34.344zm-286.583 247.529h-27.562v-27.562h27.562zm175.841 0h-27.562v-27.562h27.562zm162.587 0h-27.561v-27.562h27.561z"/></g></svg>