<svg id="center" xmlns="http://www.w3.org/2000/svg" width="264.726" height="264.726" viewBox="0 0 264.726 264.726">
  <path id="Back" d="M118.5,0A118.5,118.5,0,1,1,0,118.5,118.5,118.5,0,0,1,118.5,0Z" transform="translate(14.29 24.726)" fill="#fff"/>
  <g id="Main">
    <path id="Контур_475" data-name="Контур 475" d="M464.159,345.818h-9.307V328.756a7.756,7.756,0,0,0-15.511,0v17.062H429v73.937h35.159A7.756,7.756,0,0,0,471.914,412V353.574A7.756,7.756,0,0,0,464.159,345.818Z" transform="translate(-207.189 -155.03)" fill="#306"/>
    <path id="Контур_476" data-name="Контур 476" d="M42.915,345.818H32.574V328.756a7.756,7.756,0,0,0-15.511,0v17.062H7.756A7.756,7.756,0,0,0,0,353.574V412a7.756,7.756,0,0,0,7.756,7.756H42.915Z" transform="translate(0 -155.03)" fill="#306"/>
    <path id="Контур_477" data-name="Контур 477" d="M113,264.726h37.227V223.362a7.756,7.756,0,0,1,7.756-7.756h57.909a7.756,7.756,0,0,1,7.756,7.756v41.363h37.227V7.756A7.756,7.756,0,0,0,253.118,0H120.756A7.756,7.756,0,0,0,113,7.756Zm53.255-83.244h-8.273a7.756,7.756,0,1,1,0-15.511h8.273a7.756,7.756,0,1,1,0,15.511Zm0-33.091h-8.273a7.756,7.756,0,1,1,0-15.511h8.273a7.756,7.756,0,1,1,0,15.511Zm0-33.091h-8.273a7.756,7.756,0,0,1,0-15.511h8.273a7.756,7.756,0,0,1,0,15.511Zm0-33.091h-8.273a7.756,7.756,0,0,1,0-15.511h8.273a7.756,7.756,0,1,1,0,15.511Zm49.636,99.272h-8.273a7.756,7.756,0,1,1,0-15.511h8.273a7.756,7.756,0,1,1,0,15.511Zm0-33.091h-8.273a7.756,7.756,0,1,1,0-15.511h8.273a7.756,7.756,0,1,1,0,15.511Zm0-33.091h-8.273a7.756,7.756,0,0,1,0-15.511h8.273a7.756,7.756,0,0,1,0,15.511Zm0-33.091h-8.273a7.756,7.756,0,1,1,0-15.511h8.273a7.756,7.756,0,1,1,0,15.511Zm-62.045-48.6h66.181a7.756,7.756,0,0,1,0,15.511H153.846a7.756,7.756,0,0,1,0-15.511Z" transform="translate(-54.574)" fill="#306"/>
    <path id="Контур_478" data-name="Контур 478" d="M215,480.608h42.4V447H215Z" transform="translate(-103.836 -215.882)" fill="#306"/>
  </g>
</svg>
