<svg id="creaction" xmlns="http://www.w3.org/2000/svg" width="133.172" height="133.172" viewBox="0 0 133.172 133.172">
  <g id="Сгруппировать_175" data-name="Сгруппировать 175">
    <path id="Контур_802" data-name="Контур 802" d="M132.359,20.234l-8.323-8.323a2.767,2.767,0,0,0-3.338-.447l-19.421,11.1a2.769,2.769,0,0,0-1.4,2.409v4.4L81.287,47.959A24.569,24.569,0,0,0,69.36,44.391c-13.065,0-16.294,8.031-18.651,13.9-2.195,5.451-3.593,8.3-9.093,8.3a40.544,40.544,0,0,0-13.872,2.256V37.928L45.579,22.075A11.068,11.068,0,1,0,33.414,9.906L11.8,34.225a2.772,2.772,0,0,0,.114,3.8l.781.781C8.532,43.254,0,54.8,0,74.909V130.4a2.775,2.775,0,0,0,5.549,0V74.909c0-18.271,7.571-28.43,11.071-32.171l.84.84a2.771,2.771,0,0,0,3.8.111l.932-.828V71.608c-7.143,4.637-11.1,12.33-11.1,22.722,0,8.656,4.473,17.684,11.1,24.871v8.422H19.421a2.774,2.774,0,1,0,0,5.549h11.1a2.774,2.774,0,1,0,0-5.549H27.744v-3.252c6.686,5.333,14.583,8.8,22.2,8.8,17.633,0,27.744-11.125,27.744-30.518,0-5.5,2.845-6.9,8.3-9.093,5.863-2.357,13.894-5.587,13.894-18.651a24.473,24.473,0,0,0-3.565-11.93L114.9,44.391h4.4a2.783,2.783,0,0,0,2.411-1.4l11.1-19.421A2.781,2.781,0,0,0,132.359,20.234Zm-83.232,89.93a2.774,2.774,0,0,1-3.923,0l-11.1-11.1a2.774,2.774,0,0,1,3.923-3.923l11.1,11.1A2.773,2.773,0,0,1,49.127,110.164ZM63.811,94.33A13.872,13.872,0,1,1,77.683,80.458,13.886,13.886,0,0,1,63.811,94.33Z" fill="#306"/>
  </g>
</svg>
