<svg xmlns="http://www.w3.org/2000/svg" width="119.875" height="121.972" viewBox="0 0 119.875 121.972">
  <g id="events" transform="translate(-1101.898 -2350.589)">
    <path id="Контур_510" data-name="Контур 510" d="M0,199v64.154c0,6.551,4.726,11.88,10.536,11.88h98.8c5.809,0,10.536-5.33,10.536-11.88V199Zm33.715,54.914H26.223a3.989,3.989,0,0,1,0-7.92h7.492a3.989,3.989,0,0,1,0,7.92Zm0-16.9H26.223a3.989,3.989,0,0,1,0-7.92h7.492a3.989,3.989,0,0,1,0,7.92Zm0-16.9H26.223a3.989,3.989,0,0,1,0-7.92h7.492a3.989,3.989,0,0,1,0,7.92Zm29.969,33.793H56.191a3.989,3.989,0,0,1,0-7.92h7.492a3.989,3.989,0,0,1,0,7.92Zm0-16.9H56.191a3.989,3.989,0,0,1,0-7.92h7.492a3.989,3.989,0,0,1,0,7.92Zm0-16.9H56.191a3.989,3.989,0,0,1,0-7.92h7.492a3.989,3.989,0,0,1,0,7.92Zm29.969,33.793H86.16a3.989,3.989,0,0,1,0-7.92h7.492a3.989,3.989,0,0,1,0,7.92Zm0-16.9H86.16a3.989,3.989,0,0,1,0-7.92h7.492a3.989,3.989,0,0,1,0,7.92Zm0-16.9H86.16a3.989,3.989,0,0,1,0-7.92h7.492a3.989,3.989,0,0,1,0,7.92Z" transform="translate(1101.898 2197.526)" fill="#306"/>
    <path id="Контур_509" data-name="Контур 509" d="M119.875,63.017V47.441c0-6.551-4.726-11.88-10.536-11.88h-1.4V50.081a3.537,3.537,0,1,1-7.024,0V28.96a3.537,3.537,0,1,0-7.024,0v6.6H70.473V50.081a3.537,3.537,0,1,1-7.024,0V28.96a3.537,3.537,0,1,0-7.024,0v6.6H33.012V50.081a3.756,3.756,0,0,1-3.512,3.96,3.756,3.756,0,0,1-3.512-3.96V28.96A3.756,3.756,0,0,0,22.476,25a3.756,3.756,0,0,0-3.512,3.96v6.6H10.536C4.726,35.56,0,40.89,0,47.441V63.017Z" transform="translate(1101.898 2325.589)" fill="#306"/>
  </g>
</svg>
