<svg xmlns="http://www.w3.org/2000/svg" width="112.919" height="115.853" viewBox="0 0 112.919 115.853">
  <g id="map" transform="translate(0 -14.798)">
    <g id="Сгруппировать_131" data-name="Сгруппировать 131" transform="translate(59.37 44.61)">
      <g id="Сгруппировать_130" data-name="Сгруппировать 130" transform="translate(0)">
        <path id="Контур_608" data-name="Контур 608" d="M198.616,184.664a43.348,43.348,0,0,0,3.309-8.285v42.367l-11.567-23.392A38.155,38.155,0,0,0,198.616,184.664Z" transform="translate(-190.358 -176.379)" fill="#306"/>
      </g>
    </g>
    <g id="Сгруппировать_133" data-name="Сгруппировать 133" transform="translate(11.991 14.798)">
      <g id="Сгруппировать_132" data-name="Сгруппировать 132">
        <path id="Контур_609" data-name="Контур 609" d="M239,4.923c14.941,0,27.1,11.664,27.1,26a24.883,24.883,0,0,1-.708,5.879l-.031.13q-.077.311-.162.62-.017.061-.034.122a25.227,25.227,0,0,1-.9,2.642l-.046.114q-.117.284-.241.565l-.074.167c-.082.184-.166.367-.253.549-.022.047-.046.094-.068.141q-.432.892-.931,1.75l-.072.126c-.094.159-.191.317-.288.474-.046.074-.092.149-.139.223q-.141.222-.286.441c-.053.08-.107.16-.161.239-.1.143-.194.285-.294.427-.054.076-.109.151-.164.227q-.307.424-.631.837c-.045.057-.088.115-.133.171-.1.12-.2.238-.294.357-.079.1-.157.19-.238.284q-.144.169-.291.334-.131.149-.265.3t-.29.314c-.1.1-.2.208-.3.311s-.184.191-.277.284c-.146.146-.3.291-.446.434-.106.1-.214.2-.322.3-.139.129-.279.257-.421.383-.088.078-.178.155-.268.232-.126.109-.253.217-.382.323q-.139.115-.279.228-.2.161-.4.318c-.089.069-.178.139-.269.207-.161.121-.324.24-.487.359-.067.048-.132.1-.2.145q-.344.243-.7.476c-.068.045-.137.088-.2.132-.174.113-.349.224-.526.333l-.269.163q-.243.146-.489.287l-.278.158c-.174.1-.35.191-.526.285-.082.044-.164.088-.247.13-.259.134-.52.264-.784.39l-4.7,6.952-4.07,6.02-.525.776a3.333,3.333,0,0,1-5.465,0l-.525-.776-.311-.46-3.721-5.5-4.737-7.008c-.265-.126-.527-.257-.786-.391-.083-.043-.165-.088-.248-.131-.176-.093-.351-.187-.525-.284-.095-.053-.189-.106-.283-.16q-.243-.139-.483-.283c-.092-.056-.185-.111-.277-.168-.168-.1-.335-.211-.5-.318-.077-.05-.156-.1-.232-.15q-.352-.233-.7-.475c-.061-.043-.12-.088-.18-.131-.17-.123-.339-.246-.506-.372-.093-.07-.185-.142-.277-.214q-.2-.153-.392-.31-.148-.119-.294-.241-.18-.15-.358-.3c-.1-.085-.2-.169-.294-.255-.117-.1-.232-.21-.347-.315-.093-.086-.188-.17-.279-.257q-.281-.265-.553-.538c-.1-.1-.207-.212-.31-.319-.088-.091-.177-.183-.264-.276-.108-.115-.213-.231-.318-.347-.078-.086-.155-.171-.231-.258q-.163-.184-.322-.372-.1-.118-.2-.238c-.111-.134-.222-.268-.331-.4-.042-.053-.082-.106-.124-.159q-.6-.769-1.146-1.579c-.03-.046-.062-.091-.092-.136-.112-.169-.221-.34-.329-.511l-.1-.153q-.164-.266-.322-.535l-.057-.1a25.671,25.671,0,0,1-1.3-2.57l-.01-.022q-.143-.327-.276-.658l-.018-.045a25.189,25.189,0,0,1-1.287-4.256h0a24.878,24.878,0,0,1-.526-5.069C211.9,16.587,224.058,4.923,239,4.923Zm0,40.118c8.113,0,14.713-6.333,14.713-14.117S247.113,16.806,239,16.806s-14.713,6.333-14.713,14.117S230.887,45.041,239,45.041Z" transform="translate(-211.903 -4.923)" fill="#306"/>
      </g>
    </g>
    <g id="Сгруппировать_135" data-name="Сгруппировать 135" transform="translate(0 40.03)">
      <g id="Сгруппировать_134" data-name="Сгруппировать 134">
        <path id="Контур_610" data-name="Контур 610" d="M389.957,159.848l3.7-1.069a44.042,44.042,0,0,0,4.366,12.864,36.894,36.894,0,0,0,11.964,13.574l4.953,9.007L403.3,210.973h-15.83V163.58A3.776,3.776,0,0,1,389.957,159.848Z" transform="translate(-387.475 -158.779)" fill="#306"/>
      </g>
    </g>
    <g id="Сгруппировать_137" data-name="Сгруппировать 137" transform="translate(77.451 30.741)">
      <g id="Сгруппировать_136" data-name="Сгруппировать 136">
        <path id="Контур_611" data-name="Контур 611" d="M31.436,123.187a2.882,2.882,0,0,1,2.786.709,4.13,4.13,0,0,1,1.246,3.023v37.146H18.1a3.033,3.033,0,0,0-2.322,1.148L0,184.137V132.269Z" transform="translate(0 -123.077)" fill="#306"/>
      </g>
    </g>
    <g id="Сгруппировать_139" data-name="Сгруппировать 139" transform="translate(42.345 69.168)">
      <g id="Сгруппировать_138" data-name="Сгруппировать 138">
        <path id="Контур_612" data-name="Контур 612" d="M195.3,283.307l6.894-12.538h.409L218.95,303.83v27.594l-28.592-8.26V287.9A10.184,10.184,0,0,0,195.3,283.307Z" transform="translate(-190.358 -270.769)" fill="#306"/>
      </g>
    </g>
    <g id="Сгруппировать_141" data-name="Сгруппировать 141" transform="translate(0 82.228)">
      <g id="Сгруппировать_140" data-name="Сгруппировать 140">
        <path id="Контур_613" data-name="Контур 613" d="M366.91,338.645a3.092,3.092,0,0,0,2.519-1.407l11.3-16.275a10.037,10.037,0,0,0,4.634,4.073v35.053l-31.8,9.187a2.782,2.782,0,0,1-.775.11,2.957,2.957,0,0,1-2.011-.82,4.127,4.127,0,0,1-1.247-3.023v-26.9Z" transform="translate(-349.538 -320.963)" fill="#306"/>
      </g>
    </g>
    <g id="Сгруппировать_143" data-name="Сгруппировать 143" transform="translate(77.451 79.415)">
      <g id="Сгруппировать_142" data-name="Сгруппировать 142" transform="translate(0)">
        <path id="Контур_614" data-name="Контур 614" d="M19.461,310.154H35.468V347.3a3.775,3.775,0,0,1-2.482,3.732L0,360.562V333.5Z" transform="translate(0 -310.154)" fill="#306"/>
      </g>
    </g>
  </g>
</svg>
