<svg id="news" xmlns="http://www.w3.org/2000/svg" width="97.732" height="117.364" viewBox="0 0 97.732 117.364">
  <path id="news-2" data-name="news" d="M94.039,122.6V19.969a3.683,3.683,0,0,0-3.683-3.683H3.683A3.683,3.683,0,0,0,0,19.969v95.266A18.436,18.436,0,0,0,18.415,133.65H97.732A18.32,18.32,0,0,1,94.039,122.6ZM19.643,87H31.428a3.683,3.683,0,0,1,0,7.366H19.643a3.683,3.683,0,0,1,0-7.366ZM15.96,74.968a3.683,3.683,0,0,1,3.683-3.683H31.428a3.683,3.683,0,1,1,0,7.366H19.643A3.683,3.683,0,0,1,15.96,74.968Zm58.682,41h-55a3.683,3.683,0,0,1,0-7.366h55a3.683,3.683,0,0,1,0,7.366Zm3.683-19.4a3.683,3.683,0,0,1-3.683,3.683h-27.5a3.683,3.683,0,0,1-3.683-3.683v-27.5a3.683,3.683,0,0,1,3.683-3.683h27.5a3.683,3.683,0,0,1,3.683,3.683ZM74.642,57.044h-55a3.683,3.683,0,1,1,0-7.366h55a3.683,3.683,0,0,1,0,7.366Zm0-15.714h-55a3.683,3.683,0,1,1,0-7.366h55a3.683,3.683,0,0,1,0,7.366Z" transform="translate(0 -16.286)" fill="#306"/>
  <path id="Контур_8" data-name="Контур 8" d="M207,246.286h20.134V266.42H207Z" transform="translate(-156.175 -189.813)" fill="#306"/>
</svg>
