<svg xmlns="http://www.w3.org/2000/svg" width="135.538" height="114.974" viewBox="0 0 135.538 114.974">
  <g id="partners" transform="translate(0 -38.84)">
    <g id="Сгруппировать_178" data-name="Сгруппировать 178" transform="translate(105.491 100.912)">
      <g id="Сгруппировать_177" data-name="Сгруппировать 177">
        <path id="Контур_812" data-name="Контур 812" d="M408.976,273.32H398.494a27.266,27.266,0,0,1,1.652,9.372v39.616a11.681,11.681,0,0,1-.673,3.913H416.8a11.753,11.753,0,0,0,11.739-11.739v-21.6A19.587,19.587,0,0,0,408.976,273.32Z" transform="translate(-398.494 -273.32)" fill="#306"/>
      </g>
    </g>
    <g id="Сгруппировать_180" data-name="Сгруппировать 180" transform="translate(0 100.913)">
      <g id="Сгруппировать_179" data-name="Сгруппировать 179">
        <path id="Контур_813" data-name="Контур 813" d="M28.4,282.693a27.265,27.265,0,0,1,1.652-9.372H19.566A19.588,19.588,0,0,0,0,292.887v21.6a11.753,11.753,0,0,0,11.739,11.739H29.069a11.686,11.686,0,0,1-.673-3.913Z" transform="translate(0 -273.321)" fill="#306"/>
      </g>
    </g>
    <g id="Сгруппировать_182" data-name="Сгруппировать 182" transform="translate(36.222 90.719)">
      <g id="Сгруппировать_181" data-name="Сгруппировать 181">
        <path id="Контур_814" data-name="Контур 814" d="M180.358,234.815H156.395a19.588,19.588,0,0,0-19.566,19.566V294a3.913,3.913,0,0,0,3.913,3.913h55.268A3.913,3.913,0,0,0,199.924,294V254.381A19.588,19.588,0,0,0,180.358,234.815Z" transform="translate(-136.829 -234.815)" fill="#306"/>
      </g>
    </g>
    <g id="Сгруппировать_184" data-name="Сгруппировать 184" transform="translate(44.239 38.84)">
      <g id="Сгруппировать_183" data-name="Сгруппировать 183" transform="translate(0 0)">
        <path id="Контур_815" data-name="Контур 815" d="M190.644,38.84a23.526,23.526,0,1,0,23.53,23.53A23.557,23.557,0,0,0,190.644,38.84Z" transform="translate(-167.114 -38.84)" fill="#306"/>
      </g>
    </g>
    <g id="Сгруппировать_186" data-name="Сгруппировать 186" transform="translate(8.853 60.772)">
      <g id="Сгруппировать_185" data-name="Сгруппировать 185">
        <path id="Контур_816" data-name="Контур 816" d="M51.04,121.689a17.589,17.589,0,1,0,17.6,17.6A17.617,17.617,0,0,0,51.04,121.689Z" transform="translate(-33.443 -121.689)" fill="#306"/>
      </g>
    </g>
    <g id="Сгруппировать_188" data-name="Сгруппировать 188" transform="translate(91.49 60.772)">
      <g id="Сгруппировать_187" data-name="Сгруппировать 187">
        <path id="Контур_817" data-name="Контур 817" d="M363.2,121.689a17.6,17.6,0,1,0,17.6,17.6A17.617,17.617,0,0,0,363.2,121.689Z" transform="translate(-345.607 -121.689)" fill="#306"/>
      </g>
    </g>
  </g>
</svg>
