<svg xmlns="http://www.w3.org/2000/svg" width="98.518" height="112.373" viewBox="0 0 98.518 112.373">
  <g id="social" transform="translate(-5.385)">
    <path id="Контур_413" data-name="Контур 413" d="M114.03,13.606,109.494,0h34.174l-4.536,13.606Z" transform="translate(-54.932)" fill="#306"/>
    <path id="Контур_414" data-name="Контур 414" d="M87.356,460.823a10.5,10.5,0,0,0,3.8-.71v4.93A6.757,6.757,0,0,1,84.4,471.8H32.705a6.757,6.757,0,0,1-6.757-6.757v-4.93a10.5,10.5,0,0,0,3.8.71H87.356Z" transform="translate(12.748 -359.427)" fill="#306"/>
    <path id="Контур_415" data-name="Контур 415" d="M273.272,176.3,248.4,156.814h49.753Z" transform="translate(-241.362 -118.622)" fill="#306"/>
    <path id="Контур_416" data-name="Контур 416" d="M245.835,192.709l26.525-20.423v36.392H219.31V172.286Z" transform="translate(-213.925 -131.015)" fill="#306"/>
    <path id="Контур_417" data-name="Контур 417" d="M54.359,28.564H25.948V6.757A6.757,6.757,0,0,1,32.705,0h4.938l5.912,17.734H73.548L79.46,0H84.4a6.757,6.757,0,0,1,6.757,6.757V93.791a3.8,3.8,0,0,1-3.8,3.8H29.747a3.8,3.8,0,0,1-3.8-3.8V86.761h28.41Z" transform="translate(12.748)" fill="#306"/>
  </g>
</svg>
