<svg xmlns="http://www.w3.org/2000/svg" width="124.197" height="124.199" viewBox="0 0 124.197 124.199">
  <g id="sport" transform="translate(-0.005)">
    <g id="Сгруппировать_173" data-name="Сгруппировать 173" transform="translate(0.005)">
      <path id="Контур_796" data-name="Контур 796" d="M122.132,78.658H84.873V62.1a2.069,2.069,0,0,0-2.07-2.07h-2.07v-6.21a2.069,2.069,0,0,0-2.07-2.07H68.313v-4.14h3.1a2.98,2.98,0,0,0,3.1-3.057v-.985c0-.772.025-1.6.064-2.451a8.048,8.048,0,0,0,2.006.282A8.259,8.259,0,0,0,77.241,24.9a27.085,27.085,0,0,1,1.227-3.331,2.069,2.069,0,0,0-1.875-2.946h-2.07v-2.06a6.223,6.223,0,0,0-6.21-6.218V6.21a6.21,6.21,0,0,0-12.42,0v4.14a6.226,6.226,0,0,0-6.21,6.218V18.63h-2.07a2.071,2.071,0,0,0-1.876,2.946,27.044,27.044,0,0,1,1.227,3.331A8.259,8.259,0,0,0,47.614,41.4a8.051,8.051,0,0,0,2.008-.282c.039.851.062,1.677.062,2.451v.985a2.982,2.982,0,0,0,3.1,3.057h3.1v4.14H45.544a2.069,2.069,0,0,0-2.07,2.07v6.21H41.4a2.069,2.069,0,0,0-2.07,2.07V72.45H2.075a2.069,2.069,0,0,0-2.07,2.07v47.609a2.069,2.069,0,0,0,2.07,2.07H122.132a2.069,2.069,0,0,0,2.07-2.07V80.73A2.07,2.07,0,0,0,122.132,78.658ZM74.937,36.75A76.084,76.084,0,0,1,76.181,29a4.138,4.138,0,1,1,.412,8.255,3.945,3.945,0,0,1-1.67-.371C74.927,36.843,74.933,36.8,74.937,36.75Zm-27.323.509a4.14,4.14,0,0,1,0-8.28,3.477,3.477,0,0,1,.412.025A76.138,76.138,0,0,1,49.27,36.75c0,.046.01.093.016.139A3.955,3.955,0,0,1,47.614,37.259Zm-18.63,74.518H14.495a2.071,2.071,0,0,1-1.434-3.562L25.383,96.354a4.178,4.178,0,0,0,.555-5.837,3.743,3.743,0,0,0-2.583-1.476,5.239,5.239,0,0,0-.578-.033c-2.708,0-4.14,1.43-4.14,4.14a2.07,2.07,0,0,1-4.14,0c0-5.03,3.25-8.28,8.28-8.28a9.7,9.7,0,0,1,1.049.058,7.9,7.9,0,0,1,5.4,3.07A8.7,8.7,0,0,1,30.9,94.535a8.464,8.464,0,0,1-2.643,4.8l-8.621,8.3h9.354a2.071,2.071,0,1,1,0,4.142ZM53.824,18.63V16.57a2.083,2.083,0,0,1,2.08-2.08H68.3a2.083,2.083,0,0,1,2.08,2.08v2.06Zm10.35,28.979v4.14h-4.14v-4.14Zm4.14,57.959H55.894a2.07,2.07,0,1,1,0-4.14h4.14v-15.7L57.357,88.4a2.07,2.07,0,1,1-2.927-2.927l6.21-6.208a2.047,2.047,0,0,1,.675-.449,2.073,2.073,0,0,1,2.861,1.911v20.7h4.14a2.07,2.07,0,1,1,0,4.139Zm8.28-45.539H47.614v-4.14H76.593v4.14Zm33.119,47.609a8.28,8.28,0,0,1-16.559,0,2.07,2.07,0,0,1,4.14,0,4.14,4.14,0,1,0,4.14-4.14,2.07,2.07,0,1,1,0-4.14,4.14,4.14,0,1,0-4.14-4.14,2.07,2.07,0,0,1-4.14,0,8.28,8.28,0,1,1,13.7,6.21A8.236,8.236,0,0,1,109.712,107.637Z" transform="translate(-0.005)" fill="#306"/>
    </g>
  </g>
</svg>
