<svg xmlns="http://www.w3.org/2000/svg" width="165.376" height="194.5" viewBox="0 0 165.376 194.5">
  <g id="events_creation" transform="translate(-822 -12475)">
    <g id="goal" transform="translate(783.666 12475)">
      <g id="Сгруппировать_166" data-name="Сгруппировать 166" transform="translate(74.802 167.783)">
        <g id="Сгруппировать_165" data-name="Сгруппировать 165" transform="translate(0)">
          <rect id="Прямоугольник_89" data-name="Прямоугольник 89" width="92.437" height="26.717"/>
        </g>
      </g>
      <g id="Сгруппировать_168" data-name="Сгруппировать 168" transform="translate(38.334)">
        <g id="Сгруппировать_167" data-name="Сгруппировать 167">
          <path id="Контур_793" data-name="Контур 793" d="M171.293,22.666V0H70.751V22.666H38.334V40.337A54.715,54.715,0,0,0,77.723,92.859l24.093,16.427v24.5l-16.144,22.6h70.7l-16.144-22.6v-24.5L164.32,92.859A54.715,54.715,0,0,0,203.71,40.337V22.666ZM70.751,77.476A43.334,43.334,0,0,1,49.73,40.337V34.063h21.02Zm54.5-6.872V76.3h-7.231V70.861c-5.128-.308-10.1-1.692-13.179-3.59l3.9-8.82a24.627,24.627,0,0,0,11.846,3.282c3.436,0,4.666-.718,4.666-1.949,0-4.513-19.846-.872-19.846-14.256,0-5.8,4.2-10.667,12.615-11.846v-5.59h7.231v5.487a26.784,26.784,0,0,1,10.41,2.974l-3.641,8.769a22.144,22.144,0,0,0-10-2.667c-3.539,0-4.667,1.026-4.667,2.257,0,4.307,19.846.718,19.846,13.949C137.2,64.4,133.2,69.22,125.253,70.6Zm67.06-30.267a43.334,43.334,0,0,1-21.02,37.139V34.063h21.02Z" transform="translate(-38.334)" fill="#c1b4cf"/>
        </g>
      </g>
    </g>
    <path id="Пересечение_1" data-name="Пересечение 1" d="M627.467,271.5V244.783H719.9V271.5Zm10.871-38.115,16.143-22.6v-24.5l-15.164-10.339,61.863,4.688-8.289,5.652v24.5l16.144,22.6Z" transform="translate(231 12398)" fill="#fff"/>
  </g>
</svg>
