<svg xmlns="http://www.w3.org/2000/svg" width="200.533" height="246.055" viewBox="0 0 200.533 246.055">
  <g id="news_partners" transform="translate(-207.057 -4.166)">
    <g id="rocket" transform="matrix(0.899, 0.438, -0.438, 0.899, 272.799, 4.166)">
      <g id="Сгруппировать_44" data-name="Сгруппировать 44" transform="translate(86.673 86.675)">
        <g id="Сгруппировать_43" data-name="Сгруппировать 43">
          <path id="Контур_42" data-name="Контур 42" d="M252.642,241.476a3.606,3.606,0,1,1,0,5.1A3.605,3.605,0,0,1,252.642,241.476Z" transform="translate(-251.587 -240.419)" fill="#c1b4cf"/>
        </g>
      </g>
      <g id="Сгруппировать_46" data-name="Сгруппировать 46" transform="translate(36.56 36.562)">
        <g id="Сгруппировать_45" data-name="Сгруппировать 45" transform="translate(0)">
          <path id="Контур_43" data-name="Контур 43" d="M315.887,106.7a18.026,18.026,0,1,1,0,25.493A18.018,18.018,0,0,1,315.887,106.7Zm5.1,20.394a10.816,10.816,0,1,0,0-15.3A10.83,10.83,0,0,0,320.985,127.093Z" transform="translate(-310.603 -101.415)" fill="#c1b4cf"/>
        </g>
      </g>
      <g id="Сгруппировать_48" data-name="Сгруппировать 48" transform="translate(0 0)">
        <g id="Сгруппировать_47" data-name="Сгруппировать 47">
          <path id="Контур_44" data-name="Контур 44" d="M97.074,1.056A3.593,3.593,0,0,1,99.752,0a160.156,160.156,0,0,1,43.3,8.964c18.487,6.528,33.9,15.873,45.8,27.778,2.667,2.667,5.263,5.5,7.747,8.435,11.77-6.928,21.2-4.756,27.165-1.565,13.729,7.347,22.227,27.3,22.227,41.566a3.606,3.606,0,0,1-6.155,2.549,22.951,22.951,0,0,0-19.088-6.4l-1.263,1.263a126.81,126.81,0,0,1,5.954,17.51A10.2,10.2,0,0,1,225,106.36a34.14,34.14,0,0,1,9.736,6.864c9.28,9.28,11.165,31.9,11.24,32.855a3.6,3.6,0,0,1-3.593,3.889q-.142,0-.284-.011c-.958-.075-23.576-1.96-32.856-11.24a34.142,34.142,0,0,1-6.863-9.734,10.181,10.181,0,0,1-6.266.434,126.818,126.818,0,0,1-17.508-5.954l-1.263,1.263a22.952,22.952,0,0,0,6.4,19.088,3.605,3.605,0,0,1-2.549,6.154c-14.269,0-34.219-8.5-41.566-22.227-3.191-5.962-5.363-15.394,1.565-27.164-2.937-2.483-5.766-5.078-8.435-7.747-11.9-11.9-21.25-27.314-27.777-45.8a160.154,160.154,0,0,1-8.964-43.3A3.606,3.606,0,0,1,97.074,1.056Zm140.852,76.37c-2.24-10.838-8.744-22.731-17.57-27.455-5.9-3.156-12.344-2.847-19.2.905a145.767,145.767,0,0,1,15.147,24.691,3.8,3.8,0,0,1,1.908-1.121A30.814,30.814,0,0,1,237.926,77.426ZM214.34,133.619c4.957,4.957,16.586,7.572,23.936,8.639-1.068-7.35-3.683-18.978-8.639-23.935a25.98,25.98,0,0,0-9.23-6.066l-12.132,12.132A25.976,25.976,0,0,0,214.34,133.619ZM197.9,122.433a3.383,3.383,0,0,0,3.15-1.022l7.061-7.061,9.311-9.311a3.385,3.385,0,0,0,1.025-3.151,117.059,117.059,0,0,0-4.5-13.769l-29.813,29.813A116.985,116.985,0,0,0,197.9,122.433Zm-51.916,1.906c4.724,8.825,16.616,15.33,27.454,17.57-3.456-6.5-4.217-14.781-2.955-19.8a3.765,3.765,0,0,1,1.1-1.821,145.821,145.821,0,0,1-24.69-15.147C143.141,112,142.832,118.443,145.988,124.34Zm-8.128-36.607a130.856,130.856,0,0,0,10.4,9.327A138.511,138.511,0,0,0,177,114.876l33.9-33.9a138.488,138.488,0,0,0-17.815-28.739,130.829,130.829,0,0,0-9.328-10.4c-10.68-10.681-24.464-19.181-40.98-25.3L112.56,46.751C118.678,63.267,127.178,77.051,137.859,87.732ZM109.966,39.148l25.2-25.2A162.084,162.084,0,0,0,103.53,7.514,162.11,162.11,0,0,0,109.966,39.148Z" transform="translate(-96.018 0)" fill="#c1b4cf"/>
        </g>
      </g>
      <g id="Сгруппировать_50" data-name="Сгруппировать 50" transform="translate(96.871 147.856)">
        <g id="Сгруппировать_49" data-name="Сгруппировать 49" transform="translate(0)">
          <path id="Контур_45" data-name="Контур 45" d="M196.077,411.177a3.606,3.606,0,0,1,5.1,0l10.2,10.2a3.605,3.605,0,1,1-5.1,5.1l-10.2-10.2A3.606,3.606,0,0,1,196.077,411.177Z" transform="translate(-195.021 -410.121)" fill="#c1b4cf"/>
        </g>
      </g>
      <g id="Сгруппировать_52" data-name="Сгруппировать 52" transform="translate(147.855 96.872)">
        <g id="Сгруппировать_51" data-name="Сгруппировать 51" transform="translate(0)">
          <path id="Контур_46" data-name="Контур 46" d="M54.647,269.757a3.605,3.605,0,0,1,5.1,0l10.2,10.2a3.605,3.605,0,1,1-5.1,5.1l-10.2-10.2A3.605,3.605,0,0,1,54.647,269.757Z" transform="translate(-53.592 -268.701)" fill="#c1b4cf"/>
        </g>
      </g>
      <g id="Сгруппировать_54" data-name="Сгруппировать 54" transform="translate(122.362 152.958)">
        <g id="Сгруппировать_53" data-name="Сгруппировать 53">
          <path id="Контур_47" data-name="Контур 47" d="M85.907,425.327a3.606,3.606,0,0,1,5.1,0l24.422,24.418a3.605,3.605,0,0,1-5.1,5.1L85.908,430.425A3.6,3.6,0,0,1,85.907,425.327Z" transform="translate(-84.851 -424.271)" fill="#c1b4cf"/>
        </g>
      </g>
      <g id="Сгруппировать_56" data-name="Сгруппировать 56" transform="translate(151.204 152.958)">
        <g id="Сгруппировать_55" data-name="Сгруппировать 55">
          <path id="Контур_48" data-name="Контур 48" d="M5.907,425.327a3.606,3.606,0,0,1,5.1,0l24.422,24.418a3.605,3.605,0,0,1-5.1,5.1L5.908,430.425A3.6,3.6,0,0,1,5.907,425.327Z" transform="translate(-4.851 -424.271)" fill="#c1b4cf"/>
        </g>
      </g>
      <g id="Сгруппировать_58" data-name="Сгруппировать 58" transform="translate(152.956 122.364)">
        <g id="Сгруппировать_57" data-name="Сгруппировать 57" transform="translate(0)">
          <path id="Контур_49" data-name="Контур 49" d="M1.058,340.466a3.606,3.606,0,0,1,5.1,0l24.418,24.422a3.605,3.605,0,1,1-5.1,5.1L1.057,345.565A3.605,3.605,0,0,1,1.058,340.466Z" transform="translate(-0.001 -339.41)" fill="#c1b4cf"/>
        </g>
      </g>
      <g id="Сгруппировать_60" data-name="Сгруппировать 60" transform="translate(71.378 71.379)">
        <g id="Сгруппировать_59" data-name="Сгруппировать 59" transform="translate(0)">
          <path id="Контур_50" data-name="Контур 50" d="M280.927,199.046a3.606,3.606,0,0,1,5.1,0l5.1,5.1a3.605,3.605,0,0,1-5.1,5.1l-5.1-5.1A3.606,3.606,0,0,1,280.927,199.046Z" transform="translate(-279.871 -197.99)" fill="#c1b4cf"/>
        </g>
      </g>
    </g>
    <path id="Вычитание_3" data-name="Вычитание 3" d="M74.136,311.3a3.632,3.632,0,0,1-1.582-.366,3.58,3.58,0,0,1-1.828-2.066L59.481,276.211a3.6,3.6,0,1,1,6.817-2.348l11.245,32.653a3.606,3.606,0,0,1-3.407,4.78ZM48.214,298.653a3.626,3.626,0,0,1-1.581-.366A3.578,3.578,0,0,1,44.8,296.22L33.558,263.568a3.6,3.6,0,1,1,6.817-2.348l11.246,32.653a3.607,3.607,0,0,1-3.407,4.78Zm40.9-14.085a3.639,3.639,0,0,1-1.581-.365,3.586,3.586,0,0,1-1.828-2.067L74.467,249.481a3.605,3.605,0,1,1,6.818-2.347l11.242,32.655a3.607,3.607,0,0,1-3.409,4.779Zm-29.347-18.8a3.633,3.633,0,0,1-1.581-.364c-.082-.04-.167-.085-.25-.134-.828-.488-20.331-12.1-24.6-24.506a34.286,34.286,0,0,1-1.9-11.757,10.162,10.162,0,0,1-5.822-2.357,126.991,126.991,0,0,1-13.126-13.026l-1.687.581a23.112,23.112,0,0,0-2.612,19.963A3.605,3.605,0,0,1,3.2,238.587c-12.825-6.256-27.031-22.639-27.616-38.2-.249-6.637,1.858-16.141,13.315-23.729-.043-.1-.086-.195-.129-.292l-.083-.19,8.195.616A138.607,138.607,0,0,0,14.805,205.2L60.129,189.6c.055-2.67.034-5.38-.065-8.053l7.231.544c.053,1.673.076,3.361.072,5.017a.54.54,0,0,0,.068-.023,3.813,3.813,0,0,1,1.325-.242,3.544,3.544,0,0,1,.814.094,26.138,26.138,0,0,1,5.06,1.914,30.718,30.718,0,0,1,11.351,9.4A51.387,51.387,0,0,0,87.5,183.607l7.2.541A59.991,59.991,0,0,1,93.572,197.3a48.064,48.064,0,0,1-3.741,11.457,3.63,3.63,0,0,1-3.241,2.024c-.073,0-.147,0-.219-.007a3.608,3.608,0,0,1-3.19-2.426,23.1,23.1,0,0,0-14.349-14.122l-1.687.581a127.041,127.041,0,0,1-2.325,18.348,10.152,10.152,0,0,1-3.137,5.437,34.273,34.273,0,0,1,5.741,10.437c4.27,12.4-3.948,33.563-4.3,34.457a3.6,3.6,0,0,1-3.353,2.285Zm-4.8-43.893h0l-16.223,5.585a25.907,25.907,0,0,0,1.407,10.956c1.016,2.953,3.512,6.333,7.417,10.046a85.775,85.775,0,0,0,10.309,8.211,85.65,85.65,0,0,0,3.068-12.818c.791-5.33.676-9.53-.341-12.483a25.881,25.881,0,0,0-5.637-9.5ZM-7.984,183.258h0c-6.376,4.515-9.481,10.187-9.229,16.859.394,10.473,8.808,21.522,16.972,27.826a31.241,31.241,0,0,1,1.666-10.821,25.855,25.855,0,0,1,4.359-8.27,3.653,3.653,0,0,1,1.7-1.124.621.621,0,0,0,.086-.032,146.1,146.1,0,0,1-15.55-24.438Zm67.731,14.1h0L19.883,211.081a117.2,117.2,0,0,0,10.4,10.081,3.065,3.065,0,0,0,1.993.682,3.951,3.951,0,0,0,1.287-.22L43,218.373l12.45-4.288a3.384,3.384,0,0,0,2.3-2.382,117.166,117.166,0,0,0,1.991-14.35ZM20.983,263.877a3.626,3.626,0,0,1-1.58-.366,3.579,3.579,0,0,1-1.828-2.067l-4.693-13.636a3.6,3.6,0,1,1,6.818-2.346L24.393,259.1a3.608,3.608,0,0,1-3.41,4.779ZM89.163,240.4a3.626,3.626,0,0,1-1.58-.366,3.584,3.584,0,0,1-1.829-2.066l-4.7-13.634a3.6,3.6,0,1,1,6.817-2.349l4.7,13.634a3.609,3.609,0,0,1-3.408,4.781ZM33.95,190.78a3.64,3.64,0,0,1-1.584-.367,3.6,3.6,0,1,1,1.584.367Z" transform="translate(280.419 -62.289)" fill="#fff"/>
  </g>
</svg>
