<svg xmlns="http://www.w3.org/2000/svg" width="221.961" height="205.44" viewBox="0 0 221.961 205.44">
  <g id="science_news" transform="translate(-0.662 -14.885) rotate(-2)">
    <path id="Контур_6" data-name="Контур 6" d="M212.022,205.034H188.051v-2.871a6.154,6.154,0,0,0-6.119-6.173h-12.01a6.153,6.153,0,0,0-6.119,6.173v2.871H119.56v-2.871a6.154,6.154,0,0,0-6.119-6.173H110.6V177.965h54.288a25.676,25.676,0,0,0,17.773-7.12,25.274,25.274,0,0,0,7.9-17.535q.017-.5.018-1.011a29.037,29.037,0,0,0-10-21.96A64.637,64.637,0,0,0,188.1,52.726a3.143,3.143,0,0,0-4.352-1.023,3.2,3.2,0,0,0-1.014,4.39,57.777,57.777,0,0,1,7.38,18.548c-7.38-5.2-19.45-8.816-32.936-10.733a111.438,111.438,0,0,0-4.968-21.52,50.658,50.658,0,0,0-6.029-12.319,56.684,56.684,0,0,1,29.007,16.282,3.14,3.14,0,0,0,4.467.07,3.207,3.207,0,0,0,.069-4.507A62.839,62.839,0,0,0,134.043,22.4c-33.025,0-60.487,25.528-63.363,58.473A42.78,42.78,0,0,0,46.7,118.949a43.141,43.141,0,0,0,.249,4.863A29,29,0,0,0,23.524,152.3c0,.337.006.673.017,1.01a25.275,25.275,0,0,0,7.9,17.536,25.675,25.675,0,0,0,17.773,7.12h7.335a3.188,3.188,0,0,0,0-6.375H49.216a19.424,19.424,0,0,1-19.36-18.5q-.013-.4-.013-.795a22.575,22.575,0,0,1,20.909-22.559,3.151,3.151,0,0,0,2.29-1.23,3.211,3.211,0,0,0,.6-2.545,36.728,36.728,0,0,1-.633-6.981A35.874,35.874,0,0,1,64.232,93.039a35.285,35.285,0,0,1,26.338-9.9,35.678,35.678,0,0,1,30.672,20.85,3.169,3.169,0,0,0,1.872,1.682,3.136,3.136,0,0,0,2.5-.223,22.289,22.289,0,0,1,10.653-2.712,22.543,22.543,0,0,1,22.417,22.616c0,.338-.011.674-.026,1.009a3.2,3.2,0,0,0,.875,2.343,3.145,3.145,0,0,0,2.282.983h.067A22.543,22.543,0,0,1,184.257,152.3c0,.265,0,.528-.013.791a19.425,19.425,0,0,1-19.361,18.5H69.19a3.188,3.188,0,0,0,0,6.375h35.086v18.025h-2.846a6.153,6.153,0,0,0-6.119,6.173v2.871H45.486v-2.871a6.154,6.154,0,0,0-6.119-6.173H27.356a6.153,6.153,0,0,0-6.119,6.173v2.871H3.159a3.188,3.188,0,0,0,0,6.375H21.237v2.871a6.153,6.153,0,0,0,6.119,6.173h12.01a6.153,6.153,0,0,0,6.119-6.173v-2.871H95.311v2.871a6.153,6.153,0,0,0,6.119,6.173h12.01a6.153,6.153,0,0,0,6.119-6.173v-2.871H163.8v2.871a6.153,6.153,0,0,0,6.119,6.173h12.01a6.153,6.153,0,0,0,6.119-6.173v-2.871h23.971a3.188,3.188,0,0,0,0-6.377ZM175.76,74.682c9.756,3.4,15.58,7.852,15.58,11.9,0,5.572-11.466,12.792-33.409,16.157.5-5.246.749-10.66.749-16.157,0-5.528-.259-10.946-.75-16.159A101.645,101.645,0,0,1,175.76,74.682Zm-29.507-30.16a102.492,102.492,0,0,1,4.431,18.605c-5.475-.544-11.088-.822-16.64-.822-5.655,0-11.25.278-16.638.805a102.493,102.493,0,0,1,4.428-18.589c3.471-9.858,8.035-15.744,12.209-15.744S142.782,34.664,146.253,44.522ZM121.9,30.087a50.7,50.7,0,0,0-6.016,12.3,111.388,111.388,0,0,0-4.965,21.5A118.741,118.741,0,0,0,94.4,67.337c-5.305,1.548-11.615,3.918-16.434,7.33a57.638,57.638,0,0,1,43.93-44.58ZM87.1,76.753c5.662-2.624,13.48-4.9,23.062-6.361-.362,3.828-.594,7.768-.693,11.783a41.729,41.729,0,0,0-18.59-5.407c-1.267-.062-2.527-.065-3.779-.014Zm38.43,21.7a42.382,42.382,0,0,0-9.8-11.919,165.428,165.428,0,0,1,.86-16.965,166.943,166.943,0,0,1,17.456-.887,164.986,164.986,0,0,1,17.459.906,165.447,165.447,0,0,1,.859,17c0,4.878-.209,9.683-.614,14.353a28.5,28.5,0,0,0-26.217-2.485Zm34.362,10.428c11.478-1.869,23-5.308,30.249-10.418A57.333,57.333,0,0,1,175.3,126.694a28.334,28.334,0,0,0-10.357-3.219A28.974,28.974,0,0,0,159.892,108.879ZM39.167,214.078H27.556V202.364H39.167Zm74.074,0H101.63V202.364h11.611Zm68.491,0h-11.61V202.364h11.61Z" transform="translate(-0.12)" fill="#fff"/>
    <path id="Вычитание_1" data-name="Вычитание 1" d="M27.554,83.012a6.061,6.061,0,0,1-4.243-1.731,6.169,6.169,0,0,1-1.873-4.229l-.1-2.869-18.068.631-.112,0a3.188,3.188,0,0,1-.11-6.373l18.067-.631-.1-2.869a6.154,6.154,0,0,1,5.9-6.383l12-.419c.071,0,.143,0,.215,0a6.061,6.061,0,0,1,4.243,1.731A6.169,6.169,0,0,1,45.248,64.1l.1,2.869,49.8-1.739-.1-2.869a6.154,6.154,0,0,1,5.9-6.384l2.844-.1-.629-18.014L68.094,39.086l-.11,0a3.194,3.194,0,0,1-2.312-5.362,3.123,3.123,0,0,1,2.2-1.011l95.634-3.34a19.426,19.426,0,0,0,18.7-19.165c0-.275-.006-.534-.014-.791A22.577,22.577,0,0,0,180.036.5l6.65-.5a29.081,29.081,0,0,1,1.825,9.2c.011.329.017.669.017,1.012a25.275,25.275,0,0,1-7.286,17.8,25.672,25.672,0,0,1-17.513,7.735l-54.255,1.895.628,18.014,2.844-.1c.071,0,.143,0,.215,0a6.063,6.063,0,0,1,4.244,1.731,6.169,6.169,0,0,1,1.873,4.229l.1,2.869,44.216-1.544-.1-2.869a6.16,6.16,0,0,1,1.641-4.423,6.048,6.048,0,0,1,4.259-1.96l12-.419c.071,0,.143,0,.215,0a6.063,6.063,0,0,1,4.244,1.731,6.169,6.169,0,0,1,1.873,4.229l.1,2.869,23.956-.837.11,0A3.189,3.189,0,0,1,212,67.524l-23.956.837.1,2.868a6.154,6.154,0,0,1-5.9,6.384l-12,.419c-.071,0-.143,0-.215,0a6.061,6.061,0,0,1-4.243-1.731,6.169,6.169,0,0,1-1.873-4.229l-.1-2.869L119.6,70.751l.1,2.869A6.154,6.154,0,0,1,113.8,80l-12,.419c-.071,0-.143,0-.213,0A6.063,6.063,0,0,1,97.34,78.7a6.168,6.168,0,0,1-1.873-4.229l-.1-2.869-49.8,1.739.1,2.869a6.154,6.154,0,0,1-5.9,6.383l-12,.419C27.7,83.01,27.625,83.012,27.554,83.012Zm11.386-18.5-11.6.406.41,11.706,11.6-.4Zm74.029-2.585-11.6.4.409,11.707,11.6-.406Zm68.449-2.39-11.6.4.409,11.707,11.6-.406ZM47.221,39.8a25.592,25.592,0,0,1-9.133-1.674,25.771,25.771,0,0,1-7.967-4.837,25.274,25.274,0,0,1-8.509-17.249c-.022-.323-.04-.653-.053-1.009-.03-.87-.022-1.749.025-2.614l6.37-.479a22.874,22.874,0,0,0-.081,2.873c.008.25.022.51.041.794A19.32,19.32,0,0,0,47.237,33.422c.223,0,.449,0,.672-.012l7.331-.256.112,0a3.188,3.188,0,0,1,.111,6.373l-7.331.256C47.83,39.792,47.523,39.8,47.221,39.8Z" transform="translate(2.381 136.528) rotate(2)" fill="#c1b4cf"/>
  </g>
</svg>
