<svg xmlns="http://www.w3.org/2000/svg" width="180.264" height="172.753" viewBox="0 0 180.264 172.753">
  <g id="sport_events" transform="translate(-870 -11176)">
    <g id="like" transform="translate(870 11176)">
      <g id="Сгруппировать_170" data-name="Сгруппировать 170" transform="translate(0 75.11)">
        <g id="Сгруппировать_169" data-name="Сгруппировать 169">
          <path id="Контур_794" data-name="Контур 794" d="M18.777,224A18.8,18.8,0,0,0,0,242.777v60.088a18.8,18.8,0,0,0,18.777,18.777H41.31a18.643,18.643,0,0,0,11.267-3.8V224Z" transform="translate(0 -224)" fill="#c1b4cf"/>
        </g>
      </g>
      <g id="Сгруппировать_172" data-name="Сгруппировать 172" transform="translate(60.088 0)">
        <g id="Сгруппировать_171" data-name="Сгруппировать 171">
          <path id="Контур_795" data-name="Контур 795" d="M290.843,113.943a16.656,16.656,0,0,0-4.89-11.822,18.648,18.648,0,0,0,4.807-14.338c-.879-9.547-9.479-17.028-19.589-17.028h-46.4c2.3-6.978,5.979-19.769,5.979-30.044,0-16.291-13.843-30.044-22.533-30.044A23.625,23.625,0,0,0,194.6,15.241a3.774,3.774,0,0,0-1.4,2.937v25.47L171.568,90.509l-.9.458v80.5a49.211,49.211,0,0,0,18.777,4.439h68.944c8.18,0,15.338-5.513,17.02-13.122a16.9,16.9,0,0,0-1.359-11.282,16.823,16.823,0,0,0,7.519-22.54A16.814,16.814,0,0,0,290.843,113.943Z" transform="translate(-170.667 -10.667)" fill="#c1b4cf"/>
        </g>
      </g>
    </g>
    <path id="Пересечение_2" data-name="Пересечение 2" d="M0,93.887A18.8,18.8,0,0,1,18.778,75.11h33.8v36.13L0,115.606ZM60.089,80.3l.9-.458L82.622,32.98V7.51a3.776,3.776,0,0,1,1.4-2.937A23.631,23.631,0,0,1,97.644,0c8.69,0,22.532,13.753,22.532,30.044,0,10.275-3.68,23.066-5.979,30.044h46.4c10.11,0,18.71,7.481,19.589,17.028a18.647,18.647,0,0,1-4.807,14.338,16.64,16.64,0,0,1,4.685,9.2L60.089,110.615Z" transform="translate(870 11176)" fill="#fff"/>
  </g>
</svg>
