<svg id="instagram" xmlns="http://www.w3.org/2000/svg" width="51.244" height="51.244" viewBox="0 0 51.244 51.244">
  <g id="Сгруппировать_160" data-name="Сгруппировать 160">
    <g id="Сгруппировать_159" data-name="Сгруппировать 159">
      <path id="Контур_787" data-name="Контур 787" d="M35.231,0H16.014A16.016,16.016,0,0,0,0,16.014V35.231A16.016,16.016,0,0,0,16.014,51.244H35.231A16.016,16.016,0,0,0,51.244,35.231V16.014A16.016,16.016,0,0,0,35.231,0ZM46.44,35.231a11.222,11.222,0,0,1-11.21,11.21H16.014A11.222,11.222,0,0,1,4.8,35.231V16.014A11.222,11.222,0,0,1,16.014,4.8H35.231a11.222,11.222,0,0,1,11.21,11.21Z" fill="#c1b4cf"/>
    </g>
  </g>
  <g id="Сгруппировать_162" data-name="Сгруппировать 162" transform="translate(12.811 12.811)">
    <g id="Сгруппировать_161" data-name="Сгруппировать 161">
      <path id="Контур_788" data-name="Контур 788" d="M140.811,128a12.811,12.811,0,1,0,12.811,12.811A12.812,12.812,0,0,0,140.811,128Zm0,20.818a8.007,8.007,0,1,1,8.007-8.007A8.018,8.018,0,0,1,140.811,148.818Z" transform="translate(-128 -128)" fill="#c1b4cf"/>
    </g>
  </g>
  <g id="Сгруппировать_164" data-name="Сгруппировать 164" transform="translate(37.687 10.143)">
    <g id="Сгруппировать_163" data-name="Сгруппировать 163">
      <ellipse id="Эллипс_58" data-name="Эллипс 58" cx="1.707" cy="1.707" rx="1.707" ry="1.707" fill="#c1b4cf"/>
    </g>
  </g>
</svg>
