<svg xmlns="http://www.w3.org/2000/svg" width="62.935" height="51.135" viewBox="0 0 62.935 51.135">
  <path id="twitter" d="M62.935,54.054A26.9,26.9,0,0,1,55.5,56.091a12.83,12.83,0,0,0,5.676-7.131A25.784,25.784,0,0,1,53,52.083a12.9,12.9,0,0,0-22.318,8.823,13.285,13.285,0,0,0,.3,2.942,36.52,36.52,0,0,1-26.594-13.5A12.906,12.906,0,0,0,8.347,67.6a12.742,12.742,0,0,1-5.829-1.589v.142A12.962,12.962,0,0,0,12.854,78.826a12.877,12.877,0,0,1-3.383.425,11.408,11.408,0,0,1-2.443-.22,13.025,13.025,0,0,0,12.056,8.988,25.925,25.925,0,0,1-16,5.5A24.165,24.165,0,0,1,0,93.345a36.323,36.323,0,0,0,19.793,5.79c23.742,0,36.722-19.667,36.722-36.715,0-.57-.02-1.121-.047-1.668A25.739,25.739,0,0,0,62.935,54.054Z" transform="translate(0 -48)" fill="#c1b4cf"/>
</svg>
