<svg xmlns="http://www.w3.org/2000/svg" width="61.996" height="36.165" viewBox="0 0 61.996 36.165">
  <path id="vk" d="M51.445,25.738c-1-1.266-.716-1.829,0-2.96.013-.013,8.287-11.446,9.139-15.324l.005,0C61.013,6.038,60.59,5,58.541,5H51.763a2.91,2.91,0,0,0-2.947,1.888S45.364,15.15,40.482,20.5c-1.576,1.547-2.3,2.043-3.164,2.043-.424,0-1.082-.5-1.082-1.909V7.451C36.235,5.757,35.752,5,34.323,5H23.665a1.622,1.622,0,0,0-1.726,1.527c0,1.607,2.441,1.976,2.694,6.5v9.809c0,2.149-.39,2.544-1.255,2.544-2.3,0-7.9-8.295-11.211-17.788C11.5,5.747,10.844,5,9.106,5H2.325C.39,5,0,5.894,0,6.891,0,8.653,2.3,17.412,10.715,28.985c5.606,7.9,13.5,12.18,20.681,12.18,4.317,0,4.844-.951,4.844-2.586,0-7.548-.39-8.261,1.772-8.261,1,0,2.728.5,6.758,4.306,4.606,4.518,5.363,6.541,7.941,6.541h6.778c1.932,0,2.911-.951,2.348-2.826C60.548,34.395,51.838,26.281,51.445,25.738Z" transform="translate(0 -5)" fill="#c1b4cf"/>
</svg>
