<svg xmlns="http://www.w3.org/2000/svg" width="60.782" height="42.557" viewBox="0 0 60.782 42.557">
  <path id="youtube" d="M59.53.577a7.615,7.615,0,0,0-5.357-5.358c-4.756-1.3-23.782-1.3-23.782-1.3s-19.025,0-23.782,1.252A7.769,7.769,0,0,0,1.252.577C0,5.333,0,15.2,0,15.2S0,25.11,1.252,29.816A7.616,7.616,0,0,0,6.61,35.173c4.806,1.3,23.782,1.3,23.782,1.3s19.025,0,23.782-1.252a7.615,7.615,0,0,0,5.358-5.357c1.251-4.756,1.251-14.619,1.251-14.619S60.832,5.333,59.53.577Zm-35.2,23.731V6.084L40.154,15.2Zm0,0" transform="translate(-0.001 6.082)" fill="#c1b4cf"/>
</svg>
