<svg xmlns="http://www.w3.org/2000/svg" width="347.578" height="257.271" viewBox="0 0 347.578 257.271">
  <path id="huawei" d="M149.681,208.587a.973.973,0,0,0,.288-1.254A776.656,776.656,0,0,0,53.24,53.226S22.84,81.5,25.007,109.948a49.841,49.841,0,0,0,17.614,34.144c26.506,25.379,90.689,57.405,105.615,64.661a1.2,1.2,0,0,0,1.434-.213m-9.907,21.767a1.444,1.444,0,0,0-1.374-.96v.032L31.53,233.033c11.585,20.3,31.1,36.054,51.436,31.231,14.029-3.446,45.825-25.224,56.292-32.576l-.011-.043c.8-.71.511-1.28.511-1.28m1.613-9.443c.511-.827-.4-1.536-.4-1.536l.011-.043C94.047,188.2,3.08,140.459,3.08,140.459c-10.227,31.061,5.757,64.6,36.608,76.761a66.015,66.015,0,0,0,20.433,4.417c1.608.293,63.548.032,80.147-.043a1.446,1.446,0,0,0,1.108-.731M148.464,7.888c-4.66.395-17.218,3.2-17.218,3.2A49.228,49.228,0,0,0,96.263,43.5a63.119,63.119,0,0,0,.147,33.291c9.434,41.155,55.917,108.8,65.884,122.983.706.694,1.287.438,1.287.438a1.276,1.276,0,0,0,.989-1.307h.022c15.36-151-16.131-191.021-16.131-191.021m35.375,192.3a1.232,1.232,0,0,0,1.543-.565h.011c10.32-14.575,56.449-81.84,65.84-122.813a68.266,68.266,0,0,0,.179-33.285,49.24,49.24,0,0,0-35.315-32.4S207.923,9.089,199.265,7.9c0,0-31.676,40.045-16.273,191.139h.022a1.242,1.242,0,0,0,.815,1.147m25.294,29.193s-.934.123-1.195.8a1.5,1.5,0,0,0,.413,1.43h-.011c10.222,7.2,41.279,28.51,56.183,32.64,0,0,27.624,9.23,51.621-31.242l-107-3.665ZM344.584,140.24s-90.841,47.871-137.818,79h.011a1.332,1.332,0,0,0-.543,1.536s.445.784,1.108.784v.021l82.015-.213a64.956,64.956,0,0,0,18.4-4.161A61.7,61.7,0,0,0,344.54,140.24m-146.4,68.289a1.378,1.378,0,0,0,1.445.107v.021c15.306-7.5,79.012-39.319,105.392-64.57a50.268,50.268,0,0,0,17.6-34.358c1.923-29.343-28.2-56.578-28.2-56.578A777.507,777.507,0,0,0,197.815,206.8h.032a1.422,1.422,0,0,0,.288,1.67" transform="translate(0.003 -7.883)" fill="#fff"/>
</svg>
