<svg id="nokia" xmlns="http://www.w3.org/2000/svg" width="387.962" height="64.23" viewBox="0 0 387.962 64.23">
  <path id="Контур_55" data-name="Контур 55" d="M18.68,63.468H0V1.071H32.307L69.371,47.654V1.071h18.68v62.4H56.4L18.68,16.09V63.468M177.43,44.175c0,8.673-1.561,11.662-4.147,14.532-3.964,4.271-9.728,5.554-20.84,5.554H120.548c-11.112,0-16.883-1.284-20.843-5.554-2.582-2.867-4.146-5.859-4.146-14.532V20.121c0-8.672,1.564-11.66,4.146-14.532,3.96-4.275,9.733-5.558,20.843-5.558h31.9c11.111,0,16.876,1.284,20.838,5.558,2.586,2.871,4.147,5.859,4.147,14.532V44.175m-25.772,4.275c4.266,0,5.771-.245,6.792-1.159.959-.855,1.382-1.954,1.382-5.62V22.623c0-3.665-.423-4.758-1.382-5.616-1.021-.917-2.526-1.159-6.792-1.159H121.33c-4.266,0-5.77.242-6.789,1.159-.962.858-1.382,1.953-1.382,5.616V41.67c0,3.665.419,4.765,1.382,5.62,1.019.914,2.522,1.159,6.789,1.159h30.328ZM204.577,1.071v62.4H185.059V1.071h19.518m32.977,0h25.768L228.545,30.258l39.224,33.211H240.2L204.577,30.926,237.554,1.071Zm33.816,0h19.525v62.4H271.37Zm93.949,62.4L359.543,52.6H321.77l-5.707,10.87H294.5l34.6-62.4h24.263l34.6,62.4H365.319M328.553,39.046h24.272L340.686,16.455Z" transform="translate(0 -0.031)" fill="#1c4598"/>
</svg>
